{"glyphs":{"0":{"ha":1036,"x_min":92,"x_max":943,"o":"m 514 -13 q 243 88 359 -13 q 113 323 151 169 q 92 510 92 403 q 113 698 92 616 q 168 839 134 779 q 247 938 202 899 q 338 1002 291 978 q 518 1046 426 1046 q 792 947 679 1046 q 924 705 885 865 q 943 516 943 622 q 923 332 943 410 q 868 196 902 254 q 789 98 833 138 q 697 33 745 58 q 514 -13 606 -13 m 415 121 q 518 98 462 98 q 622 121 575 98 q 703 193 669 143 q 774 510 774 296 q 621 913 774 846 q 517 934 574 934 q 413 913 460 934 q 332 843 366 892 q 262 510 262 739 q 415 121 262 193 z "},"1":{"ha":693,"x_min":90,"x_max":611,"o":"m 601 -5 q 534 0 585 0 l 191 0 q 119 34 134 0 q 114 60 114 46 q 124 100 114 88 q 188 93 148 93 q 245 101 228 93 q 273 124 262 109 q 290 207 290 150 l 291 787 q 208 863 277 863 q 167 860 188 863 q 127 852 167 860 q 106 874 114 850 q 100 927 90 919 q 384 1043 277 979 q 394 1046 387 1046 q 411 1040 401 1046 q 429 1027 421 1035 q 448 994 448 1008 l 448 173 q 457 122 448 134 q 496 99 471 104 q 540 91 520 95 q 576 79 560 86 q 611 32 611 63 q 601 -5 611 9 z "},"2":{"ha":954,"x_min":98,"x_max":846,"o":"m 316 125 q 448 124 382 124 q 572 127 514 124 q 670 144 629 130 q 761 281 755 176 q 785 285 774 285 q 820 270 811 285 q 834 237 829 256 q 841 198 839 219 q 846 131 846 160 q 839 78 846 101 q 819 38 833 56 q 730 0 789 0 l 136 0 q 107 32 117 9 q 98 71 98 54 q 110 111 98 100 q 479 430 332 252 q 632 760 632 614 q 588 883 632 835 q 461 934 541 934 q 326 887 379 934 q 267 743 267 836 q 269 719 267 731 q 213 701 236 701 q 174 708 190 701 q 146 729 158 715 q 119 814 119 761 q 141 907 119 867 q 209 979 164 948 q 471 1046 304 1046 q 715 969 627 1046 q 804 763 804 893 q 502 278 804 551 q 316 125 414 198 z "},"3":{"ha":985,"x_min":112,"x_max":870,"o":"m 825 804 q 626 539 825 627 q 799 454 732 519 q 870 284 870 383 q 762 75 870 158 q 473 -13 650 -13 q 214 42 314 -13 q 112 185 112 97 q 157 283 112 249 q 205 305 184 305 q 252 298 225 305 q 399 107 252 144 q 485 98 435 98 q 575 113 534 98 q 644 154 616 127 q 702 296 702 208 q 643 420 702 368 q 448 481 573 481 q 388 478 427 481 q 355 530 366 478 q 352 558 352 543 q 362 574 352 574 q 587 640 506 576 q 661 779 661 696 q 612 890 661 846 q 494 934 563 934 q 387 921 425 934 q 327 886 349 909 q 292 756 289 843 q 247 740 269 740 q 208 747 225 740 q 178 768 191 753 q 150 843 150 799 q 173 922 150 888 q 240 983 196 956 q 494 1046 342 1046 q 727 983 635 1046 q 825 804 825 916 z "},"4":{"ha":1006,"x_min":37,"x_max":932,"o":"m 670 -19 q 625 -22 651 -22 q 584 -12 598 -22 l 584 237 l 119 237 q 62 283 89 237 q 50 347 37 328 q 190 562 146 490 l 273 701 q 442 1075 407 939 q 572 1046 528 1075 q 591 967 607 1023 q 459 709 569 882 q 328 519 370 574 l 254 424 q 195 353 222 383 l 584 353 l 584 580 q 629 634 584 608 q 706 658 672 658 q 741 637 741 658 l 741 353 l 919 353 q 932 335 932 353 q 928 301 932 317 q 917 271 924 285 q 881 237 899 237 l 741 237 l 741 14 q 670 -19 741 -7 z "},"5":{"ha":1002,"x_min":117,"x_max":883,"o":"m 317 627 q 513 660 415 660 q 677 638 611 660 q 788 578 743 617 q 883 353 883 496 q 761 91 883 195 q 452 -13 639 -13 q 212 44 306 -13 q 117 190 117 101 q 163 296 117 262 q 219 314 193 318 q 251 304 245 309 q 364 119 254 170 q 463 98 408 98 q 561 112 518 98 q 638 153 604 125 q 715 317 715 215 q 643 491 715 425 q 475 553 575 553 q 262 502 359 553 l 231 486 q 198 503 212 490 q 176 551 173 528 l 217 976 q 236 1015 217 999 q 311 1041 270 1044 q 463 1034 405 1034 q 557 1035 520 1034 q 633 1039 593 1036 l 715 1044 q 808 1052 758 1048 q 826 991 826 1034 q 795 910 826 931 q 703 891 766 891 q 596 895 640 891 q 508 905 553 899 q 422 918 464 911 l 347 930 l 317 627 z "},"6":{"ha":1006,"x_min":102,"x_max":890,"o":"m 698 798 q 543 947 698 947 q 372 852 446 947 q 270 537 285 740 q 479 646 357 616 q 585 657 525 657 q 701 636 644 657 q 800 576 758 616 q 890 353 890 494 q 776 92 890 198 q 502 -13 663 -13 q 236 94 347 -13 q 108 470 102 221 q 197 825 112 680 q 385 1008 267 945 q 582 1059 483 1059 q 765 1017 696 1059 q 837 895 837 973 q 818 829 837 851 q 748 791 785 791 q 698 798 711 791 m 268 432 q 359 167 275 253 q 524 99 425 99 q 720 222 670 99 q 736 317 736 264 q 720 409 736 370 q 675 476 704 448 q 519 536 614 536 q 312 467 401 536 l 268 432 z "},"7":{"ha":869,"x_min":84,"x_max":805,"o":"m 98 1045 q 455 1034 220 1034 q 756 1044 690 1034 q 803 981 795 1019 q 800 955 805 968 q 553 502 658 776 q 433 0 446 222 q 394 -4 416 -4 q 326 0 351 -4 q 286 15 300 5 q 271 36 271 24 q 491 686 279 313 q 644 913 571 827 q 271 874 460 874 q 103 905 125 874 q 84 979 84 932 q 98 1045 84 1025 z "},"8":{"ha":1006,"x_min":125,"x_max":880,"o":"m 844 796 q 673 541 844 641 q 824 437 791 476 q 868 361 857 399 q 880 274 880 324 q 859 174 880 224 q 792 81 838 123 q 507 -13 690 -13 q 243 57 347 -13 q 125 279 125 135 q 251 499 125 397 q 321 548 286 528 q 173 781 173 642 q 282 984 173 912 q 512 1046 376 1046 q 751 974 658 1046 q 844 796 844 903 m 695 776 q 503 935 695 935 q 330 858 366 935 q 319 800 319 834 q 343 734 319 765 q 406 679 368 704 q 492 631 445 653 l 587 586 q 695 776 695 662 m 280 285 q 303 198 280 239 q 361 134 326 157 q 522 94 422 94 q 677 138 621 94 q 730 244 730 178 q 671 349 730 302 q 594 399 642 373 l 481 461 l 400 503 q 280 285 280 414 z "},"9":{"ha":1006,"x_min":127,"x_max":901,"o":"m 732 469 q 467 376 631 376 q 222 458 313 376 q 127 686 127 542 q 235 943 127 841 q 522 1046 344 1046 q 784 933 682 1046 q 897 547 901 804 q 815 193 892 332 q 646 28 753 81 q 486 -13 565 -13 q 353 -2 408 -13 q 262 29 299 8 q 184 151 184 73 q 209 221 184 194 q 272 249 235 249 q 322 241 309 249 q 400 104 322 136 q 453 94 427 94 q 510 97 479 94 q 581 117 541 100 q 654 176 622 135 q 732 469 725 267 m 492 492 q 575 498 538 492 q 640 515 611 505 q 733 572 685 534 q 594 917 724 863 q 506 933 554 933 q 417 920 458 933 q 344 881 375 907 q 277 718 277 825 q 339 555 277 619 q 492 492 399 492 z "},"\u0000":{"ha":0,"x_min":0,"x_max":0,"o":""},"\r":{"ha":0,"x_min":0,"x_max":0,"o":""},"\u0001":{"ha":0,"x_min":0,"x_max":0,"o":""},"\u0002":{"ha":0,"x_min":0,"x_max":0,"o":""},"\u0003":{"ha":0,"x_min":0,"x_max":0,"o":""},"\u0004":{"ha":0,"x_min":0,"x_max":0,"o":""},"\u0005":{"ha":0,"x_min":0,"x_max":0,"o":""},"\u0006":{"ha":0,"x_min":0,"x_max":0,"o":""},"\u0007":{"ha":0,"x_min":0,"x_max":0,"o":""},"\b":{"ha":0,"x_min":0,"x_max":0,"o":""},"\t":{"ha":0,"x_min":0,"x_max":0,"o":""},"\u0010":{"ha":0,"x_min":0,"x_max":0,"o":""},"\u0011":{"ha":0,"x_min":0,"x_max":0,"o":""},"\u0012":{"ha":0,"x_min":0,"x_max":0,"o":""},"\u0013":{"ha":0,"x_min":0,"x_max":0,"o":""},"\u0014":{"ha":0,"x_min":0,"x_max":0,"o":""},"\u0015":{"ha":0,"x_min":0,"x_max":0,"o":""},"\u0016":{"ha":0,"x_min":0,"x_max":0,"o":""},"\u0017":{"ha":0,"x_min":0,"x_max":0,"o":""},"\u0018":{"ha":0,"x_min":0,"x_max":0,"o":""},"\u0019":{"ha":0,"x_min":0,"x_max":0,"o":""}," ":{"ha":488,"x_min":0,"x_max":0,"o":""},"!":{"ha":450,"x_min":112,"x_max":339,"o":"m 275 357 q 224 342 273 342 q 175 359 175 342 q 172 413 175 375 q 159 609 164 543 l 134 973 q 127 1114 127 1085 q 243 1158 127 1134 q 311 1167 286 1167 q 335 1161 335 1167 q 332 1123 335 1154 l 281 434 q 275 357 277 386 m 112 100 q 144 181 112 149 q 224 213 176 213 q 330 145 301 213 q 339 100 339 124 q 307 19 339 52 q 224 -13 274 -13 q 144 19 176 -13 q 112 100 112 52 z "},"\"":{"ha":768,"x_min":122,"x_max":646,"o":"m 122 716 m 222 1171 q 281 1173 248 1173 q 315 1162 315 1173 q 308 1077 312 1119 q 283 812 286 854 l 275 730 q 208 716 275 716 q 161 732 162 716 q 155 789 159 755 l 140 941 q 132 1019 135 981 l 125 1090 q 122 1144 123 1123 q 222 1171 122 1162 m 553 1171 q 612 1173 578 1173 q 646 1162 646 1173 q 639 1077 643 1119 q 614 812 617 854 l 606 730 q 539 716 606 716 q 492 732 493 716 q 486 789 490 755 l 471 941 q 463 1019 466 981 l 456 1090 q 453 1144 454 1123 q 553 1171 453 1162 z "},"#":{"ha":1120,"x_min":75,"x_max":1045,"o":"m 155 654 q 147 694 147 672 q 150 730 147 716 q 157 756 152 745 q 185 782 168 782 l 372 782 l 423 1006 q 464 1015 441 1015 q 500 1013 486 1015 q 524 1005 514 1010 q 543 975 547 994 l 498 782 l 739 782 l 790 1006 q 830 1015 808 1015 q 867 1013 853 1015 q 891 1005 881 1010 q 910 975 914 994 l 866 782 l 1036 782 q 1045 743 1045 764 q 1043 707 1045 722 q 1035 681 1040 692 q 1004 654 1023 654 l 837 654 l 767 350 l 964 350 q 972 311 972 332 q 970 275 972 289 q 963 248 968 260 q 932 222 951 222 l 738 222 l 687 0 q 625 -7 654 -12 q 586 3 596 -3 q 566 31 563 14 l 610 222 l 370 222 l 319 0 q 279 -7 301 -7 q 242 -5 256 -7 q 218 3 229 -3 q 199 31 196 14 l 243 222 l 82 222 q 75 262 75 240 q 77 298 75 284 q 84 324 79 313 q 113 350 96 350 l 273 350 l 342 654 l 155 654 m 640 350 l 709 654 l 469 654 l 399 350 l 640 350 z "},"$":{"ha":897,"x_min":85,"x_max":810,"o":"m 659 753 q 627 888 659 838 q 522 955 595 939 l 511 594 l 587 557 q 768 418 718 492 q 810 283 810 355 q 785 163 810 212 q 716 78 760 114 q 491 -9 629 5 l 488 -108 q 460 -113 473 -113 q 435 -110 447 -113 q 414 -99 422 -106 q 393 -64 393 -84 l 395 -12 q 188 33 275 -7 q 85 169 85 81 q 123 314 85 248 q 159 330 136 330 q 209 304 202 330 q 264 149 216 202 q 398 83 311 96 l 410 451 l 391 459 q 195 578 259 515 q 111 782 111 661 q 201 968 111 896 q 429 1050 288 1039 l 433 1160 q 459 1166 445 1166 q 485 1162 473 1166 q 506 1152 496 1158 q 528 1115 528 1137 l 526 1051 q 754 962 701 1042 q 773 886 773 933 q 764 802 773 838 q 746 754 755 765 q 695 736 731 736 q 659 753 659 736 m 426 960 q 271 867 307 950 q 261 812 261 842 q 273 756 261 781 q 307 710 286 731 q 416 638 342 674 l 426 960 m 494 81 q 637 172 603 93 q 650 232 650 200 q 639 288 650 264 q 609 332 628 311 q 505 406 572 371 l 494 81 z "},"%":{"ha":1335,"x_min":73,"x_max":1263,"o":"m 335 456 q 316 456 335 456 q 269 460 296 456 q 215 475 242 465 q 161 505 187 486 q 116 554 136 524 q 73 729 73 621 q 217 987 73 928 q 305 1008 266 1008 q 372 1004 345 1008 q 427 990 399 1000 q 480 960 454 979 q 526 910 506 941 q 570 729 570 843 q 425 479 570 541 q 335 456 373 456 m 435 729 q 321 917 435 917 q 208 729 208 917 q 275 556 208 589 q 321 546 296 546 q 367 556 346 546 q 403 589 387 566 q 435 729 435 635 m 777 149 q 766 250 766 191 q 778 352 766 309 q 810 426 790 395 q 857 477 831 457 q 910 509 883 497 q 999 529 959 529 q 1066 525 1038 529 q 1121 511 1093 522 q 1174 481 1148 500 q 1219 431 1199 463 q 1263 250 1263 363 q 1118 0 1263 61 q 1013 -22 1067 -22 q 777 149 825 -22 m 1128 250 q 1015 438 1128 438 q 901 250 901 438 q 969 77 901 111 q 1015 67 990 67 q 1060 77 1040 67 q 1096 110 1081 87 q 1128 250 1128 156 m 912 982 q 969 967 945 985 q 1000 910 1015 933 l 414 2 q 355 21 377 3 q 326 74 313 52 l 912 982 z "},"&":{"ha":1161,"x_min":79,"x_max":1185,"o":"m 794 115 q 423 -13 625 -13 q 191 57 290 -13 q 79 274 79 136 q 203 520 79 420 q 277 569 239 549 q 193 775 193 684 q 282 973 193 896 q 479 1045 366 1045 q 646 1005 580 1045 q 720 880 720 960 q 639 756 720 791 q 609 751 623 751 q 583 762 596 751 q 587 811 587 783 l 587 827 q 546 906 581 877 q 449 936 511 936 q 336 878 367 936 q 325 821 325 856 q 345 745 325 787 q 398 659 364 703 q 478 567 433 614 q 576 473 524 520 q 794 296 715 356 q 896 613 877 425 q 942 617 918 617 q 1046 518 1046 617 q 964 299 1046 429 q 901 215 937 256 l 958 174 q 1082 121 1031 121 q 1128 133 1109 121 q 1151 147 1146 146 q 1161 146 1155 149 q 1172 141 1166 144 q 1185 117 1185 132 q 1172 78 1185 102 q 1138 34 1159 54 q 1032 -14 1088 -14 q 907 35 978 -14 l 794 115 m 338 495 q 239 320 239 423 q 304 156 239 216 q 445 101 363 101 q 697 185 593 101 q 441 392 507 330 q 338 495 375 454 z "},"'":{"ha":437,"x_min":122,"x_max":315,"o":"m 222 1170 q 281 1172 248 1172 q 315 1161 315 1172 q 308 1076 312 1118 q 283 812 286 854 l 275 730 q 208 715 275 715 q 161 732 162 715 q 155 788 159 754 l 140 940 q 132 1019 135 981 l 125 1090 q 122 1143 123 1122 q 222 1170 122 1162 z "},"(":{"ha":651,"x_min":73,"x_max":585,"o":"m 203 24 q 107 253 142 130 q 73 488 73 376 q 89 684 73 599 q 133 849 104 770 q 203 999 162 928 q 296 1133 245 1071 q 528 1332 397 1256 q 572 1262 562 1312 q 256 732 317 1086 q 238 510 238 624 q 430 -83 238 153 q 585 -224 496 -163 q 545 -292 580 -258 q 528 -306 536 -301 q 203 24 327 -191 z "},")":{"ha":651,"x_min":65,"x_max":578,"o":"m 65 0 m 448 24 q 544 253 509 130 q 578 488 578 376 q 563 684 578 599 q 518 849 547 770 q 448 999 489 928 q 355 1133 406 1071 q 123 1332 254 1256 q 79 1262 89 1312 q 395 732 334 1086 q 413 510 413 624 q 221 -83 413 153 q 66 -224 155 -163 q 106 -292 71 -258 q 123 -306 115 -301 q 448 24 324 -191 z "},"*":{"ha":875,"x_min":102,"x_max":772,"o":"m 338 711 q 287 686 320 686 q 230 705 253 686 q 187 781 187 738 q 209 830 187 812 q 258 868 232 848 q 302 903 258 868 q 377 967 346 936 q 279 981 330 978 q 197 986 227 984 q 144 995 160 989 q 115 1019 128 1000 q 102 1060 102 1038 q 111 1106 102 1083 q 140 1146 119 1128 q 176 1163 161 1163 q 208 1160 199 1163 l 230 1147 l 317 1087 q 401 1038 361 1057 q 378 1156 392 1103 l 357 1238 q 354 1263 354 1248 q 361 1292 354 1278 q 380 1314 368 1305 q 434 1335 406 1335 q 479 1329 463 1335 q 507 1312 496 1322 q 530 1263 530 1291 q 521 1215 530 1246 l 496 1134 q 473 1036 481 1085 q 550 1081 522 1062 l 646 1147 q 693 1163 673 1163 q 735 1146 713 1163 q 764 1106 756 1128 q 772 1060 772 1083 q 760 1019 772 1038 q 734 996 747 1000 q 680 986 712 988 l 596 981 q 498 967 545 978 q 560 912 529 936 l 656 838 q 680 814 672 825 q 688 783 688 804 q 651 709 688 738 q 597 686 622 686 q 523 734 545 686 l 483 831 q 438 921 463 878 q 393 831 414 878 l 352 734 q 338 711 347 723 z "},"+":{"ha":785,"x_min":95,"x_max":690,"o":"m 330 450 l 102 450 q 95 491 95 471 q 97 525 95 511 q 104 551 100 539 q 133 576 117 576 l 330 576 l 330 816 q 369 825 347 825 q 405 822 390 825 q 431 815 419 820 q 457 784 457 803 l 457 576 l 681 576 q 690 536 690 558 q 687 501 690 515 q 680 476 685 487 q 649 450 668 450 l 457 450 l 457 211 q 416 203 437 203 q 381 206 396 203 q 355 213 367 208 q 330 241 330 224 l 330 450 z "},",":{"ha":450,"x_min":102,"x_max":340,"o":"m 214 216 q 340 73 340 216 q 229 -212 340 -93 q 177 -255 199 -244 q 132 -230 152 -255 q 125 -214 125 -222 q 141 -193 130 -208 q 164 -156 152 -178 q 194 -35 194 -98 q 112 55 194 49 q 102 101 102 77 q 110 145 102 125 q 133 181 118 165 q 214 216 165 216 z "},"-":{"ha":680,"x_min":95,"x_max":585,"o":"m 576 576 q 585 537 585 558 q 582 501 585 515 q 575 476 580 487 q 544 450 563 450 l 102 450 q 95 491 95 471 q 97 525 95 511 q 104 551 100 539 q 133 576 117 576 l 576 576 z "},".":{"ha":450,"x_min":112,"x_max":339,"o":"m 112 100 q 144 181 112 149 q 224 213 176 213 q 330 145 301 213 q 339 100 339 124 q 307 19 339 52 q 224 -13 274 -13 q 144 19 176 -13 q 112 100 112 52 z "},"/":{"ha":625,"x_min":-3,"x_max":628,"o":"m 496 1230 q 539 1239 517 1239 q 576 1237 562 1239 q 602 1229 591 1234 q 624 1198 628 1218 l 127 -112 q 85 -119 108 -119 q 48 -117 62 -119 q 22 -110 33 -115 q 1 -81 -3 -98 l 496 1230 z "},":":{"ha":450,"x_min":112,"x_max":339,"o":"m 112 0 m 112 100 q 144 181 112 149 q 224 213 176 213 q 330 145 301 213 q 339 100 339 124 q 307 19 339 52 q 224 -13 274 -13 q 144 19 176 -13 q 112 100 112 52 m 112 675 q 144 756 112 724 q 224 789 176 789 q 330 721 301 789 q 339 675 339 700 q 307 595 339 628 q 224 563 274 563 q 144 595 176 563 q 112 675 112 627 z "},";":{"ha":450,"x_min":102,"x_max":340,"o":"m 102 0 m 112 675 q 144 756 112 724 q 224 789 176 789 q 330 721 301 789 q 339 675 339 700 q 307 595 339 628 q 224 563 274 563 q 144 595 176 563 q 112 675 112 627 m 214 216 q 340 73 340 216 q 229 -212 340 -93 q 177 -255 199 -244 q 132 -230 152 -255 q 125 -214 125 -222 q 141 -193 130 -208 q 164 -156 152 -178 q 194 -35 194 -98 q 112 55 194 49 q 102 101 102 77 q 110 145 102 125 q 133 181 118 165 q 214 216 165 216 z "},"<":{"ha":948,"x_min":142,"x_max":804,"o":"m 765 905 q 804 807 804 905 q 771 764 804 783 l 298 508 l 766 241 q 804 184 804 220 q 792 126 804 149 q 764 102 781 102 q 735 110 748 102 l 189 412 q 142 502 142 440 q 156 561 142 532 q 189 601 169 589 l 735 895 q 765 905 753 905 z "},"=":{"ha":758,"x_min":95,"x_max":663,"o":"m 654 711 q 663 673 663 696 q 661 636 663 650 q 654 610 659 622 q 623 585 642 585 l 102 585 q 95 626 95 606 q 97 660 95 646 q 104 685 100 674 q 133 711 117 711 l 654 711 m 654 442 q 663 404 663 427 q 661 367 663 381 q 654 342 659 353 q 623 317 642 317 l 102 317 q 95 358 95 338 q 97 392 95 378 q 104 418 100 406 q 133 442 116 442 l 654 442 z "},">":{"ha":948,"x_min":142,"x_max":805,"o":"m 142 83 m 182 886 q 144 788 144 886 q 176 745 144 764 l 649 489 l 182 222 q 143 165 143 201 q 155 107 143 130 q 183 83 167 83 q 212 91 199 83 l 758 393 q 805 483 805 421 q 792 542 805 513 q 758 582 779 570 l 212 876 q 182 886 194 886 z "},"?":{"ha":860,"x_min":77,"x_max":812,"o":"m 467 368 l 467 343 q 441 323 463 332 q 414 315 420 315 q 402 315 408 315 q 391 316 397 315 q 370 331 378 319 q 338 391 352 360 q 324 458 324 421 q 338 522 324 495 q 376 569 353 548 q 429 608 399 590 l 489 642 q 597 719 568 687 q 654 864 654 783 q 595 1008 654 949 q 442 1069 534 1069 q 243 935 271 1069 q 231 864 231 881 l 231 842 q 233 813 231 821 q 172 795 198 795 q 129 805 145 795 q 100 830 112 814 q 77 905 77 862 q 93 983 77 948 q 137 1047 109 1018 q 203 1098 165 1076 q 283 1135 241 1120 q 451 1167 370 1167 q 596 1153 532 1167 q 709 1104 661 1139 q 812 869 812 1031 q 686 632 812 727 q 618 586 652 606 l 557 549 q 495 497 509 521 q 476 456 481 474 q 467 368 467 422 m 316 100 q 348 180 316 148 q 427 213 379 213 q 534 145 505 213 q 543 100 543 124 q 510 19 543 52 q 427 -13 477 -13 q 348 19 379 -13 q 316 100 316 52 z "},"@":{"ha":1650,"x_min":109,"x_max":1553,"o":"m 1156 -151 l 1158 -151 q 1175 -163 1167 -151 q 1182 -192 1182 -176 q 1175 -221 1182 -209 q 1143 -253 1167 -234 q 1072 -292 1120 -273 q 787 -338 957 -338 q 496 -297 617 -338 q 288 -176 374 -256 q 109 292 109 -9 q 396 924 109 684 q 822 1118 580 1076 q 988 1131 896 1131 q 1168 1108 1080 1131 q 1321 1046 1256 1086 q 1431 953 1386 1006 q 1502 838 1475 900 q 1553 591 1553 724 q 1524 367 1553 458 q 1447 211 1494 276 q 1341 103 1400 145 q 1224 37 1282 62 q 1029 -6 1120 -6 q 924 77 947 -6 q 918 130 918 102 q 690 -7 805 -7 q 543 68 604 -7 q 472 315 472 156 q 536 568 472 449 q 699 754 597 685 q 924 827 805 827 q 1061 792 998 827 q 1138 825 1101 826 q 1188 808 1175 825 q 1206 768 1202 792 q 1139 644 1157 748 q 1128 571 1133 611 q 1115 480 1123 532 l 1099 376 q 1072 157 1072 209 q 1093 104 1072 104 q 1279 180 1197 104 q 1421 467 1389 282 q 1432 572 1432 521 q 1297 918 1432 796 q 939 1035 1168 1035 q 585 940 747 1035 q 332 685 425 846 q 235 311 235 515 q 378 -92 235 50 q 802 -239 526 -239 q 1108 -177 998 -239 l 1156 -151 m 1002 670 q 895 717 966 717 q 685 586 760 717 q 621 331 621 475 q 760 123 621 123 q 899 208 827 123 q 934 252 919 230 l 1002 670 z "},"A":{"ha":1124,"x_min":-11,"x_max":1136,"o":"m 719 80 q 762 75 747 75 q 790 78 776 75 q 814 88 804 81 q 839 135 839 103 q 823 194 839 161 l 759 352 l 330 352 l 254 159 q 243 121 243 133 q 247 103 243 109 q 258 94 250 98 q 277 87 266 90 l 305 79 q 363 66 350 72 q 389 28 389 53 q 379 -3 389 9 q 355 0 366 0 l 79 0 q -11 50 -11 0 q -1 87 -11 73 q 42 80 24 80 q 71 85 59 80 q 94 104 83 91 q 136 193 112 126 l 471 1004 q 552 1049 486 1037 q 591 1053 570 1053 q 642 1030 632 1053 l 709 861 q 936 321 905 398 l 997 161 q 1027 96 1015 109 q 1054 79 1040 84 q 1083 72 1068 75 q 1110 64 1099 68 q 1136 28 1136 52 q 1126 -3 1136 10 q 1103 1 1113 1 l 779 1 q 725 9 745 1 q 706 35 706 18 q 719 80 706 66 m 720 448 l 542 888 l 368 448 l 720 448 z "},"B":{"ha":1044,"x_min":54,"x_max":983,"o":"m 533 -7 l 308 1 l 136 1 q 77 13 101 1 q 54 42 54 24 q 64 87 54 75 q 113 81 87 81 q 155 84 138 81 q 184 98 172 87 q 214 183 214 123 l 214 874 q 138 953 214 937 q 75 975 89 963 q 61 1001 61 987 q 72 1043 61 1032 q 95 1040 84 1040 q 296 1040 95 1040 q 381 1043 328 1040 q 529 1046 434 1046 q 700 1029 625 1046 q 825 979 776 1011 q 918 806 918 918 q 811 600 918 678 q 709 549 771 570 q 966 396 909 533 q 983 291 983 352 q 956 174 983 231 q 871 77 928 117 q 533 -7 755 -7 m 372 576 l 475 576 q 548 576 505 576 q 631 591 590 576 q 699 632 671 606 q 754 768 754 685 q 708 906 754 862 q 520 960 654 960 q 407 943 429 960 q 379 903 385 926 q 372 844 372 880 l 372 576 m 536 486 q 372 485 425 486 l 372 163 q 462 87 372 95 q 539 85 490 85 q 643 95 589 85 q 736 130 697 105 q 819 293 819 181 q 536 486 819 486 z "},"C":{"ha":988,"x_min":80,"x_max":922,"o":"m 772 746 q 774 802 774 765 q 760 868 774 838 q 722 916 746 899 q 593 945 679 945 q 442 914 507 945 q 332 827 376 883 q 243 523 243 715 q 334 232 243 340 q 587 119 427 119 q 831 187 743 119 q 879 231 857 208 q 912 195 899 225 q 916 169 916 185 q 892 120 916 152 q 822 58 868 87 q 559 -14 712 -14 q 209 119 339 -14 q 80 470 80 250 q 123 712 80 604 q 239 896 165 820 q 412 1012 313 971 q 604 1053 511 1053 q 753 1037 697 1053 q 847 994 810 1021 q 922 846 922 939 q 869 747 922 776 q 831 736 852 736 q 772 746 789 736 z "},"D":{"ha":1170,"x_min":50,"x_max":1101,"o":"m 501 -7 l 308 1 l 133 1 q 74 13 98 1 q 50 42 50 24 q 60 87 50 75 q 110 81 85 81 q 152 84 135 81 q 183 98 170 87 q 214 183 214 123 l 214 874 q 136 953 214 937 q 72 975 87 963 q 58 1001 58 987 q 68 1043 58 1032 q 91 1040 81 1040 q 296 1040 91 1040 q 338 1041 312 1040 q 395 1044 338 1041 q 569 1048 480 1048 q 743 1027 659 1048 q 888 969 827 1006 q 990 884 949 932 q 1057 781 1031 836 q 1101 557 1101 682 q 985 183 1101 332 q 715 18 893 66 q 501 -7 623 -7 m 374 163 q 406 98 374 113 q 536 85 433 85 q 719 119 639 85 q 846 211 799 153 q 932 503 932 315 q 703 926 932 827 q 499 962 621 962 q 401 946 418 962 q 379 906 383 930 q 374 844 374 883 l 374 163 z "},"E":{"ha":979,"x_min":60,"x_max":921,"o":"m 820 302 q 859 317 838 317 q 895 309 890 317 q 921 134 921 256 q 902 11 921 49 q 889 0 896 0 l 140 0 q 60 48 60 0 q 71 87 60 74 q 115 81 94 81 q 153 84 137 81 q 182 98 168 87 q 214 183 214 123 l 214 870 q 167 945 214 929 q 139 954 153 950 q 111 961 124 958 q 87 970 98 965 q 64 1003 64 982 q 75 1043 64 1031 q 100 1040 87 1040 l 793 1040 q 871 1028 856 1040 q 900 939 900 1008 q 889 830 900 872 q 873 780 878 788 q 846 768 866 768 q 807 775 818 768 q 796 785 797 782 q 766 909 787 882 q 714 946 744 936 q 637 956 685 956 l 486 956 q 398 941 414 956 q 378 908 382 927 q 374 861 374 890 l 374 572 l 414 571 q 692 597 564 571 q 709 571 702 593 q 717 527 717 549 q 705 463 717 490 q 602 459 660 459 q 374 478 543 459 l 374 172 q 401 104 374 121 q 484 89 425 89 l 587 92 q 780 133 735 97 q 813 186 805 153 q 821 253 821 220 q 820 302 821 287 z "},"F":{"ha":891,"x_min":60,"x_max":886,"o":"m 580 -5 q 513 0 564 0 l 138 0 q 81 11 102 0 q 60 52 60 22 q 71 87 60 73 q 119 80 95 80 q 159 85 143 80 q 186 103 174 90 q 214 193 214 132 l 214 870 q 167 945 214 929 q 139 954 153 950 q 111 961 124 958 q 87 970 98 965 q 64 1003 64 982 q 75 1043 64 1031 q 99 1040 87 1040 l 785 1040 q 861 1028 846 1040 q 886 939 886 1009 q 875 830 886 871 q 859 781 864 790 q 833 766 850 766 q 793 776 805 766 q 781 789 781 785 q 746 919 774 886 q 623 956 715 956 l 493 956 q 402 943 420 956 q 380 914 385 930 q 374 871 375 897 l 374 559 l 406 559 q 692 585 570 559 q 717 511 717 574 q 705 450 717 479 q 610 446 661 446 q 500 452 559 446 l 374 466 l 374 160 q 466 91 374 102 q 561 72 542 81 q 585 55 579 63 q 590 34 590 46 q 580 -5 590 9 z "},"G":{"ha":1115,"x_min":81,"x_max":1072,"o":"m 1063 494 q 1072 454 1072 471 q 1066 430 1072 437 q 1053 420 1061 423 q 1034 414 1045 416 q 1008 404 1023 412 q 978 314 978 387 l 978 156 q 941 109 969 138 q 863 52 912 79 q 601 -14 744 -14 q 365 23 458 -14 q 208 127 271 60 q 81 483 81 260 q 125 726 81 620 q 243 905 169 833 q 626 1053 396 1053 q 901 986 810 1053 q 972 852 972 933 q 943 772 972 802 q 871 743 916 743 q 815 753 831 743 q 819 806 819 774 q 805 868 819 838 q 764 916 791 899 q 623 947 717 947 q 461 923 528 947 q 349 848 395 899 q 253 540 253 743 q 634 93 253 93 q 789 121 724 93 q 822 140 810 130 l 821 334 q 758 401 821 383 q 726 409 742 406 q 693 416 709 412 q 667 426 677 420 q 645 462 645 437 q 655 499 645 488 q 722 494 671 494 l 1063 494 z "},"H":{"ha":1283,"x_min":69,"x_max":1217,"o":"m 496 -5 q 429 0 481 0 l 146 0 q 90 11 111 0 q 69 52 69 22 q 79 87 69 74 q 130 80 106 80 q 166 85 153 80 q 190 103 180 90 q 210 193 210 130 l 210 887 q 179 947 208 935 q 155 955 170 951 l 122 962 q 81 982 89 970 q 74 1006 74 994 q 84 1045 74 1031 q 151 1040 100 1040 l 427 1040 q 484 1028 463 1040 q 505 987 505 1017 q 494 953 505 965 q 438 960 469 960 q 370 852 372 960 l 370 553 l 913 553 l 913 887 q 882 947 911 935 q 857 955 873 951 l 825 962 q 784 982 791 970 q 777 1006 777 994 q 787 1045 777 1033 q 854 1040 802 1040 l 1130 1040 q 1186 1028 1165 1040 q 1208 987 1208 1017 q 1197 953 1208 965 q 1141 960 1171 960 q 1073 852 1075 960 l 1073 160 q 1084 110 1073 122 q 1126 86 1101 92 q 1168 78 1152 81 q 1195 68 1184 74 q 1217 32 1217 58 q 1206 -5 1217 8 q 1139 0 1190 0 l 856 0 q 800 11 821 0 q 779 52 779 22 q 789 87 779 74 q 837 80 814 80 q 871 85 859 80 q 892 102 884 90 q 913 186 911 127 l 913 459 l 370 459 l 370 160 q 400 92 370 106 q 426 85 410 88 q 458 78 442 81 q 485 68 474 74 q 507 32 507 57 q 496 -5 507 8 z "},"I":{"ha":582,"x_min":70,"x_max":508,"o":"m 497 -5 q 430 0 481 0 l 147 0 q 91 11 112 0 q 70 52 70 22 q 80 87 70 74 q 130 80 107 80 q 166 85 153 80 q 189 102 179 90 q 211 186 210 127 l 211 880 q 181 947 211 933 q 155 955 172 951 q 123 962 139 958 q 96 971 107 966 q 75 1008 75 982 q 85 1045 75 1033 q 152 1040 100 1040 l 428 1040 q 485 1028 463 1040 q 506 987 506 1017 q 495 953 506 965 q 439 960 469 960 q 371 852 373 960 l 371 160 q 401 92 371 106 q 427 85 410 88 q 459 78 443 81 q 486 68 475 74 q 508 32 508 57 q 497 -5 508 8 z "},"J":{"ha":772,"x_min":10,"x_max":746,"o":"m 679 960 q 611 843 611 960 l 611 298 q 437 9 611 76 q 302 -13 377 -13 q 174 3 227 -13 q 84 47 121 20 q 10 182 10 102 q 38 276 10 241 q 115 311 66 311 q 169 292 155 311 q 161 229 161 260 q 304 90 161 90 q 413 131 375 90 q 451 248 451 172 l 451 880 q 437 928 450 916 q 393 950 418 945 q 350 959 367 955 q 320 969 332 963 q 297 1008 297 981 q 308 1045 297 1033 q 375 1040 323 1040 l 669 1040 q 746 987 746 1040 q 735 953 746 965 q 679 960 711 960 z "},"K":{"ha":1097,"x_min":77,"x_max":1106,"o":"m 507 -5 q 440 0 492 0 l 157 0 q 101 11 122 0 q 79 52 79 22 q 90 87 79 73 q 138 80 116 80 q 173 85 161 80 q 194 102 185 90 q 214 186 213 127 l 214 887 q 183 947 212 935 q 159 955 174 951 l 126 962 q 85 982 92 970 q 77 1006 77 994 q 88 1045 77 1031 q 155 1040 104 1040 l 438 1040 q 494 1028 473 1040 q 515 987 515 1017 q 505 953 515 964 q 456 960 479 960 q 419 955 433 960 q 396 937 406 949 q 374 852 376 911 l 374 152 q 387 107 376 119 q 429 86 404 92 q 469 78 453 81 q 496 68 485 74 q 517 32 517 58 q 507 -5 517 7 m 1069 955 q 1033 960 1053 960 q 1002 953 1013 960 q 977 933 990 946 q 947 903 963 921 l 589 532 q 804 366 713 498 q 852 292 829 328 l 893 221 q 1017 109 960 105 q 1061 115 1045 109 q 1084 122 1077 122 q 1098 112 1090 122 q 1106 87 1106 101 q 1095 55 1106 74 q 1062 22 1083 37 q 957 -13 1015 -13 q 866 2 900 -13 q 803 49 831 17 q 751 121 775 81 q 706 203 728 161 l 663 285 q 499 456 588 428 q 475 459 486 460 q 450 455 464 457 q 437 474 441 458 q 433 502 433 491 q 441 519 433 512 l 785 901 q 802 930 802 919 q 726 965 802 955 q 685 980 692 969 q 678 1004 678 990 q 689 1043 678 1029 q 712 1040 701 1040 l 976 1040 q 1070 1020 1049 1040 q 1080 998 1080 1011 q 1069 955 1080 967 z "},"L":{"ha":972,"x_min":60,"x_max":921,"o":"m 921 211 q 880 0 921 58 l 140 0 q 66 27 87 0 q 60 48 60 37 q 71 87 60 74 q 131 81 94 81 q 214 183 214 81 l 214 880 q 175 943 214 926 q 146 953 163 948 l 113 962 q 72 982 80 970 q 64 1006 64 994 q 75 1045 64 1031 q 142 1040 91 1040 l 438 1040 q 494 1028 473 1040 q 515 987 515 1017 q 505 953 515 964 q 456 960 479 960 q 419 955 433 960 q 396 937 406 949 q 374 852 376 911 l 374 167 q 402 103 376 119 q 484 89 425 89 l 535 90 l 593 90 q 787 156 741 90 q 817 238 809 189 q 831 352 825 287 q 860 359 842 359 q 907 351 895 359 q 921 211 921 295 z "},"M":{"ha":1447,"x_min":41,"x_max":1424,"o":"m 132 0 q 41 50 41 0 q 52 86 41 73 q 92 81 72 81 q 127 82 113 81 q 153 94 141 83 q 184 196 178 117 l 254 916 q 243 943 256 933 q 211 956 230 952 q 178 963 192 960 q 154 971 164 966 q 133 1006 133 981 q 142 1043 133 1031 q 165 1040 155 1040 l 366 1040 q 490 990 467 1040 l 743 398 l 1003 994 q 1042 1031 1016 1023 q 1107 1040 1067 1040 l 1239 1040 q 1331 991 1331 1040 q 1320 954 1331 966 q 1276 962 1293 962 q 1245 959 1259 962 q 1223 949 1232 956 q 1211 892 1206 935 l 1284 150 q 1335 90 1289 102 q 1362 82 1348 87 l 1388 73 q 1419 52 1413 65 q 1424 26 1424 39 q 1414 -3 1424 9 q 1382 0 1398 0 l 1073 0 q 990 50 990 0 q 995 70 990 58 q 1002 86 1000 83 q 1040 81 1023 81 q 1076 83 1057 81 q 1107 96 1095 86 q 1131 184 1135 119 l 1087 766 l 1081 879 l 769 188 q 742 182 760 182 q 704 196 724 182 q 669 229 685 209 q 621 310 644 260 l 369 901 l 314 163 q 325 111 311 124 q 370 86 342 94 q 413 75 397 79 q 440 65 429 71 q 465 24 465 53 q 454 -3 465 10 q 431 0 442 0 l 132 0 z "},"N":{"ha":1217,"x_min":55,"x_max":1199,"o":"m 146 0 q 55 52 55 0 q 66 85 55 76 q 107 80 85 80 q 144 85 128 80 q 172 101 160 91 q 197 160 197 122 l 197 899 q 185 939 195 926 q 155 959 175 953 q 121 967 134 964 q 97 974 108 970 q 73 999 73 984 q 83 1043 73 1030 q 127 1040 98 1040 l 259 1040 q 366 979 319 1040 l 937 256 l 937 889 q 925 935 936 916 q 890 959 915 953 q 846 968 865 965 q 812 977 827 971 q 781 1012 781 987 q 791 1043 781 1032 q 835 1040 806 1040 l 1108 1040 q 1199 1001 1199 1040 q 1189 957 1199 968 q 1150 962 1172 962 q 1112 961 1128 962 q 1082 952 1095 960 q 1053 888 1054 937 l 1053 19 q 1042 -5 1053 -1 q 1002 -9 1031 -9 q 899 62 954 -9 l 313 800 l 313 151 q 368 79 316 92 q 407 72 387 75 q 441 65 426 69 q 475 34 475 56 q 465 -3 475 9 q 422 0 451 0 l 146 0 z "},"O":{"ha":1151,"x_min":74,"x_max":1078,"o":"m 211 121 q 179 153 211 121 q 110 276 146 185 q 74 470 74 368 q 94 650 74 572 q 151 791 115 728 q 236 903 186 854 q 344 985 286 952 q 600 1053 462 1053 q 940 920 808 1053 q 1078 555 1078 781 q 1001 250 1078 385 q 808 56 931 126 q 571 -13 690 -13 q 363 22 451 -13 q 211 121 275 57 m 325 830 q 305 802 325 830 q 266 694 285 774 q 247 522 247 614 q 264 354 247 430 q 321 220 282 277 q 570 94 405 94 q 823 203 737 94 q 906 507 906 310 q 727 911 906 808 q 576 947 663 947 q 427 917 488 947 q 325 830 365 886 z "},"P":{"ha":972,"x_min":64,"x_max":939,"o":"m 566 -5 q 499 0 551 0 l 151 0 q 94 11 115 0 q 73 52 73 22 q 83 87 73 74 q 133 80 109 80 q 170 85 157 80 q 194 103 184 90 q 214 193 214 130 l 214 874 q 140 953 214 937 q 79 975 93 962 q 64 1001 64 987 q 75 1043 64 1032 q 98 1040 87 1040 l 266 1040 l 507 1046 q 909 873 825 1046 q 939 749 939 811 q 930 642 939 686 q 900 556 922 598 q 844 478 879 515 q 755 413 808 441 q 463 353 641 353 l 437 353 q 418 378 418 353 q 447 438 418 431 q 755 590 702 433 q 772 696 772 640 q 760 799 772 752 q 715 883 747 846 q 482 963 645 963 q 395 935 416 963 q 374 833 374 909 l 374 155 q 458 91 378 102 q 549 72 531 81 q 572 55 566 63 q 577 34 577 46 q 566 -5 577 8 z "},"Q":{"ha":1160,"x_min":75,"x_max":1109,"o":"m 301 -208 q 241 -149 241 -208 q 352 -58 241 -89 q 774 142 648 24 q 913 501 913 273 q 890 695 913 625 q 842 808 867 766 q 779 882 817 850 q 578 947 700 947 q 273 706 342 947 q 250 511 250 624 q 387 164 250 247 q 465 137 420 144 q 486 117 479 133 q 490 81 498 90 q 421 64 473 62 q 322 81 368 66 q 237 125 276 97 q 169 190 199 153 q 118 273 139 227 q 75 470 75 365 q 97 657 75 575 q 158 803 119 739 q 248 914 196 867 q 359 991 300 961 q 593 1053 477 1053 q 797 1018 710 1053 q 947 920 883 984 q 1085 552 1085 781 q 838 46 1085 220 q 595 -68 736 -25 l 659 -94 q 848 -141 782 -141 q 1063 -65 1003 -141 q 1098 -80 1086 -64 q 1109 -124 1109 -97 q 1091 -182 1109 -151 q 1040 -236 1073 -213 q 861 -287 968 -287 q 728 -262 793 -287 q 625 -220 663 -237 l 552 -188 q 436 -153 471 -153 q 380 -158 400 -153 q 345 -170 359 -163 q 301 -208 327 -180 z "},"R":{"ha":1075,"x_min":73,"x_max":1074,"o":"m 494 -5 q 427 0 478 0 l 151 0 q 94 11 115 0 q 73 52 73 22 q 83 87 73 74 q 133 80 109 80 q 170 85 157 80 q 194 103 184 90 q 214 193 214 130 l 214 887 q 183 947 212 935 q 159 955 174 951 q 129 962 144 958 q 104 971 115 966 q 84 1000 84 982 q 95 1045 84 1031 q 162 1040 111 1040 l 250 1040 l 488 1046 l 517 1047 q 830 973 726 1047 q 934 764 934 899 q 868 578 934 663 q 666 450 795 484 q 746 361 701 426 l 818 256 q 985 109 919 109 q 1023 113 1010 109 l 1040 120 q 1053 122 1046 122 q 1067 112 1059 122 q 1074 87 1074 101 q 1063 55 1074 74 q 1030 22 1051 37 q 926 -13 983 -13 q 834 6 870 -13 q 767 56 798 25 q 712 126 737 87 q 666 207 688 165 l 626 288 q 558 401 583 376 q 511 427 532 427 l 443 427 q 426 451 426 427 q 452 504 426 485 q 505 511 460 510 q 604 530 549 512 q 695 578 659 547 q 765 747 765 638 q 704 897 765 839 q 511 964 635 963 q 403 940 430 964 q 374 852 376 917 l 374 160 q 404 92 374 106 q 429 85 414 88 q 459 78 445 81 q 484 68 474 74 q 505 39 505 58 q 494 -5 505 8 z "},"S":{"ha":897,"x_min":85,"x_max":810,"o":"m 659 753 q 548 948 659 909 q 459 962 510 962 q 372 950 408 962 q 311 919 335 939 q 261 813 261 879 q 408 643 261 713 l 492 603 q 611 545 554 574 q 713 477 669 515 q 810 273 810 395 q 696 62 810 142 q 429 -13 589 -13 q 203 27 301 -13 q 101 108 132 56 q 85 172 85 134 q 123 314 85 248 q 159 330 136 330 q 209 304 202 330 q 281 133 218 186 q 458 79 345 79 q 634 165 589 79 q 650 235 650 195 q 628 307 650 275 q 570 366 606 339 q 425 445 515 407 q 284 511 334 483 q 195 578 233 540 q 111 782 111 661 q 217 981 111 906 q 481 1053 319 1053 q 750 968 687 1053 q 773 888 773 937 q 764 802 773 838 q 746 754 755 765 q 695 736 731 736 q 659 753 659 736 z "},"T":{"ha":1034,"x_min":52,"x_max":994,"o":"m 789 -5 q 722 0 773 0 l 334 0 q 277 11 298 0 q 256 52 256 22 q 267 87 256 73 q 315 80 292 80 q 359 85 338 80 q 397 102 379 90 q 444 186 441 130 l 444 941 l 355 941 q 227 931 257 941 q 181 908 197 922 q 157 869 166 894 q 130 724 140 827 q 103 721 115 721 q 68 735 76 721 q 58 765 61 749 q 54 798 56 780 q 52 876 52 835 q 69 1020 52 989 q 140 1053 87 1053 q 170 1050 150 1053 q 227 1046 189 1048 q 469 1040 328 1040 l 583 1040 q 846 1046 780 1040 q 929 1053 913 1053 q 959 1048 945 1053 q 981 1034 972 1043 q 994 997 994 1019 q 991 943 994 963 q 987 895 989 922 q 981 837 985 867 q 957 740 971 766 q 924 721 943 721 q 890 724 905 721 l 890 767 q 884 862 890 827 q 855 915 877 897 q 793 936 833 932 q 684 941 752 941 l 603 941 l 603 160 q 681 92 603 111 q 717 85 700 88 q 751 78 734 81 q 778 68 767 74 q 800 32 800 58 q 789 -5 800 8 z "},"U":{"ha":1107,"x_min":18,"x_max":1095,"o":"m 1028 960 q 975 853 977 960 l 975 446 q 864 104 975 222 q 554 -13 755 -13 q 274 73 383 -13 q 136 431 136 181 l 136 898 q 129 939 135 927 q 103 954 123 950 q 67 962 83 958 q 40 971 51 966 q 18 1008 18 982 q 29 1045 18 1031 q 96 1040 45 1040 l 359 1040 q 437 987 437 1040 q 427 953 437 964 q 379 960 401 960 q 344 955 357 960 q 320 937 331 949 q 296 846 296 907 l 296 479 q 380 178 296 269 q 560 108 445 108 q 852 471 852 108 l 852 880 q 822 947 852 933 q 796 955 812 951 q 763 962 779 958 q 736 971 747 966 q 715 1008 715 982 q 726 1045 715 1033 q 793 1040 741 1040 l 1018 1040 q 1074 1029 1053 1040 q 1095 988 1095 1018 q 1085 954 1095 965 q 1028 960 1058 960 z "},"V":{"ha":1053,"x_min":-5,"x_max":1059,"o":"m 1048 953 q 1008 960 1034 960 q 971 949 983 960 q 947 920 958 939 q 926 874 937 901 l 646 114 q 495 -13 601 -13 q 454 6 462 -13 l 120 857 q 110 887 115 871 q 99 918 105 903 q 58 960 84 952 q 30 969 42 966 q 11 978 18 973 q -5 1004 -5 988 q 6 1045 -5 1028 q 60 1040 22 1040 l 340 1040 q 402 1034 386 1040 q 433 987 433 1021 q 423 953 433 964 q 364 960 408 960 q 284 893 284 960 q 289 869 284 885 l 297 846 q 303 830 300 837 l 547 160 l 798 880 q 802 906 802 895 q 797 927 802 918 q 783 941 791 935 q 749 953 773 948 q 708 962 724 958 q 682 972 692 966 q 659 1013 660 985 q 665 1045 659 1032 q 732 1040 681 1040 l 968 1040 q 1059 987 1059 1040 q 1048 953 1059 965 z "},"W":{"ha":1567,"x_min":1,"x_max":1600,"o":"m 1590 953 q 1545 960 1564 960 q 1513 946 1527 960 q 1488 913 1500 933 q 1451 817 1469 879 l 1369 555 l 1222 114 q 1152 18 1202 54 q 1069 -13 1107 -13 q 1029 -9 1041 -13 l 812 552 l 791 620 q 596 119 611 156 q 562 58 581 82 q 521 19 543 35 q 440 -13 477 -13 q 399 -9 407 -13 l 123 857 q 113 889 118 872 q 102 920 109 905 q 72 958 88 954 q 43 965 56 962 q 22 973 31 968 q 1 1001 1 983 q 11 1045 1 1031 q 78 1040 27 1040 l 361 1040 q 439 987 439 1040 q 428 953 439 965 q 372 960 404 960 q 290 893 290 960 q 296 847 290 871 l 496 158 q 577 370 549 294 l 743 844 q 787 890 752 873 q 857 904 817 905 l 1120 158 q 1228 505 1205 424 l 1301 766 q 1330 897 1330 873 q 1315 935 1330 921 q 1278 954 1299 949 q 1241 962 1257 958 q 1214 971 1225 966 q 1192 1008 1192 982 q 1202 1045 1192 1031 q 1270 1040 1218 1040 l 1523 1040 q 1600 987 1600 1040 q 1590 953 1600 965 z "},"X":{"ha":1074,"x_min":0,"x_max":1085,"o":"m 85 0 q 0 56 0 0 q 11 88 0 77 q 52 82 26 82 q 97 88 79 82 q 134 106 115 94 q 212 187 169 130 l 462 498 l 172 869 q 151 893 161 880 q 129 918 140 906 q 83 951 102 945 q 49 960 64 956 q 23 970 34 964 q 1 1010 1 981 q 11 1044 1 1029 q 78 1040 28 1040 l 370 1040 q 454 1016 437 1040 q 462 993 462 1006 q 451 953 462 964 q 385 960 418 960 q 332 932 332 960 q 358 882 332 917 l 561 601 l 746 866 q 766 910 766 897 q 761 931 766 924 q 746 944 755 939 q 726 951 737 949 q 702 957 715 954 q 675 963 688 960 q 653 972 662 966 q 635 1001 635 983 q 646 1044 635 1029 q 713 1040 660 1040 l 976 1040 q 1061 1016 1043 1040 q 1068 993 1068 1006 q 1059 953 1068 963 q 1019 959 1044 959 q 974 947 994 959 q 933 916 954 935 q 854 828 892 879 l 623 520 l 905 171 l 926 146 q 994 90 969 97 q 1034 79 1018 83 q 1061 71 1050 76 q 1085 30 1085 58 q 1075 -4 1085 12 q 1008 0 1061 0 l 712 0 q 635 26 650 0 q 628 50 628 37 q 639 88 628 76 l 653 85 q 700 80 677 80 q 734 83 723 81 q 745 98 745 86 q 715 158 745 118 l 523 416 l 334 155 q 316 118 316 134 q 332 95 316 102 q 366 84 348 88 l 399 77 q 441 59 432 71 q 450 34 450 46 q 440 -4 450 12 q 373 0 427 0 l 85 0 z "},"Y":{"ha":1009,"x_min":-7,"x_max":1021,"o":"m 349 0 q 271 51 271 0 q 281 87 271 74 q 333 80 307 80 q 375 83 358 80 q 404 98 391 87 q 432 186 431 122 l 432 357 l 105 899 q 60 952 78 943 q 31 965 41 962 q 12 974 20 968 q -7 1004 -7 985 q 4 1045 -7 1031 q 71 1040 20 1040 l 316 1040 q 400 1018 382 1040 q 409 987 409 1008 q 396 952 409 966 q 345 959 373 959 q 288 916 288 959 q 316 840 288 884 l 534 464 q 655 672 617 603 l 719 791 q 766 891 763 877 q 770 915 770 906 q 765 930 770 924 q 751 942 760 937 q 733 948 743 946 q 709 954 723 951 q 678 961 694 958 q 650 970 662 964 q 623 1008 623 981 q 633 1045 623 1035 q 700 1040 648 1040 l 935 1040 q 1013 1017 996 1040 q 1021 993 1021 1007 q 1008 952 1021 966 q 969 959 985 959 q 940 949 953 959 q 915 921 927 939 q 891 880 903 903 q 831 767 853 806 q 609 388 616 401 l 592 359 l 592 160 q 656 91 592 102 q 748 70 734 79 q 772 31 772 56 q 762 -5 772 8 q 694 0 746 0 l 349 0 z "},"Z":{"ha":958,"x_min":52,"x_max":886,"o":"m 62 90 q 409 566 62 90 q 578 810 534 742 l 662 943 l 380 933 q 302 926 332 931 q 255 906 272 921 q 218 789 226 881 q 186 768 218 776 q 165 766 178 766 q 145 779 152 766 q 132 812 138 791 q 123 857 126 833 q 116 936 116 903 q 119 990 116 970 q 129 1021 121 1010 q 184 1040 142 1040 l 804 1040 q 856 1008 829 1040 q 874 960 882 978 l 269 99 l 621 113 q 746 156 713 117 q 783 289 774 190 q 798 302 784 296 q 830 308 812 308 q 855 295 848 308 q 868 258 862 282 q 878 207 873 233 q 886 116 886 154 q 876 55 886 77 q 845 20 865 33 q 726 0 811 0 l 127 0 q 76 38 100 0 q 62 90 52 75 z "},"[":{"ha":588,"x_min":98,"x_max":489,"o":"m 481 -176 q 489 -217 489 -193 q 479 -258 489 -240 q 451 -277 469 -277 l 129 -277 q 100 -254 106 -277 q 98 -244 98 -248 l 98 1277 q 110 1302 98 1295 q 129 1310 121 1310 l 451 1310 q 479 1291 469 1310 q 489 1250 489 1273 q 481 1208 489 1226 l 239 1208 l 239 -176 l 481 -176 z "},"\\":{"ha":625,"x_min":-3,"x_max":627,"o":"m 1 0 m 128 1230 q 85 1239 108 1239 q 48 1237 63 1239 q 22 1229 33 1234 q 1 1198 -3 1218 l 497 -112 q 539 -119 517 -119 q 577 -117 562 -119 q 603 -110 591 -115 q 624 -81 627 -98 l 128 1230 z "},"]":{"ha":588,"x_min":98,"x_max":490,"o":"m 98 0 m 107 -176 q 99 -217 99 -193 q 109 -258 99 -240 q 137 -277 119 -277 l 459 -277 q 488 -254 482 -277 q 490 -244 490 -248 l 490 1277 q 478 1302 490 1295 q 459 1310 467 1310 l 137 1310 q 109 1291 119 1310 q 99 1250 99 1273 q 107 1208 99 1226 l 349 1208 l 349 -176 l 107 -176 z "},"^":{"ha":1123,"x_min":182,"x_max":945,"o":"m 269 258 q 182 303 182 258 q 189 327 182 310 l 478 994 q 561 1040 499 1040 q 618 1028 592 1040 q 653 994 644 1015 q 941 312 938 319 q 945 297 945 304 q 846 258 945 258 q 810 292 827 258 l 568 888 l 313 296 q 269 258 290 258 z "},"_":{"ha":936,"x_min":-76,"x_max":1013,"o":"m -68 -224 q -76 -181 -76 -206 q -66 -138 -76 -157 q -38 -119 -56 -119 l 1004 -119 q 1013 -160 1013 -134 q 990 -218 1013 -202 q 972 -224 983 -224 l -68 -224 z "},"`":{"ha":395,"x_min":0,"x_max":375,"o":"m 14 1063 q 0 1085 0 1070 q 11 1121 0 1101 q 39 1158 22 1141 q 119 1200 81 1200 q 154 1185 139 1200 l 370 968 q 375 957 375 964 q 371 943 375 950 q 359 929 367 936 q 323 913 342 913 l 14 1063 z "},"a":{"ha":846,"x_min":74,"x_max":828,"o":"m 553 86 q 313 -13 454 -13 q 140 50 205 -13 q 74 213 74 113 q 185 400 74 338 q 468 457 286 457 l 553 457 q 553 507 553 483 l 553 558 q 527 686 553 649 q 425 728 497 728 q 256 610 260 728 q 256 580 255 592 q 211 569 243 569 q 164 576 178 569 q 138 597 149 584 q 115 664 115 623 q 139 736 115 705 q 205 787 163 767 q 395 827 286 827 q 561 805 505 827 q 648 749 616 784 q 706 581 706 686 l 699 256 q 708 143 699 167 q 728 111 716 119 q 757 103 740 103 q 785 109 774 103 l 804 117 q 821 110 814 121 q 828 90 828 98 q 821 68 828 81 q 794 39 814 54 q 751 12 775 24 q 567 42 616 -52 q 553 86 557 60 m 551 175 q 552 369 551 273 q 360 351 411 363 q 288 327 310 338 q 252 300 265 315 q 231 222 231 274 q 268 139 231 170 q 373 109 304 109 q 551 175 470 109 z "},"b":{"ha":901,"x_min":-3,"x_max":829,"o":"m 281 732 q 509 827 383 827 q 734 731 647 827 q 829 444 829 628 q 699 107 829 236 q 408 -13 576 -13 q 191 37 299 -13 q 130 73 155 52 l 130 1000 q 121 1061 130 1047 q 71 1082 106 1082 q 40 1079 54 1082 q 20 1079 26 1076 q 11 1088 15 1082 q 45 1145 -3 1109 q 192 1200 119 1200 q 279 1116 269 1200 q 281 1063 281 1091 l 281 732 m 281 624 l 281 149 q 434 96 345 96 q 605 174 539 96 q 675 401 675 256 q 613 629 675 553 q 459 699 558 699 q 281 624 361 699 z "},"c":{"ha":769,"x_min":77,"x_max":711,"o":"m 560 579 l 561 604 q 555 647 561 616 q 516 698 549 678 q 432 718 483 718 q 343 692 382 718 q 279 624 304 667 q 233 406 233 543 q 296 197 233 277 q 464 114 359 114 q 646 166 559 114 q 678 189 667 179 q 694 178 685 189 q 711 146 711 158 q 701 119 711 134 q 674 86 692 104 q 631 52 656 69 q 574 20 606 34 q 429 -13 503 -13 q 289 13 354 -13 q 178 87 224 38 q 77 376 77 193 q 205 712 77 585 q 473 827 321 827 q 639 784 572 827 q 709 666 709 739 q 691 606 709 626 q 620 570 661 570 q 560 579 580 570 z "},"d":{"ha":935,"x_min":71,"x_max":907,"o":"m 623 85 q 392 -14 518 -14 q 165 81 253 -14 q 71 370 71 186 q 202 706 71 576 q 492 827 325 827 q 621 804 559 827 l 621 1000 q 612 1061 621 1048 q 561 1082 596 1082 q 531 1079 546 1082 q 511 1079 517 1076 q 502 1088 505 1082 q 536 1145 488 1110 q 683 1200 610 1200 q 770 1116 760 1200 q 773 1063 773 1091 l 773 276 q 781 146 773 172 q 801 112 789 120 q 829 104 812 104 q 857 110 846 104 l 877 119 q 892 111 886 121 q 897 73 907 90 q 866 40 886 56 q 821 13 846 24 q 656 11 711 -37 q 623 85 630 34 m 621 667 q 467 718 555 718 q 295 640 361 718 q 224 412 224 556 q 355 130 224 184 q 434 114 395 114 q 498 120 472 114 q 546 136 524 126 q 621 186 591 157 l 621 667 z "},"e":{"ha":820,"x_min":73,"x_max":743,"o":"m 73 365 q 90 511 73 447 q 136 625 107 574 q 204 713 165 675 q 288 777 243 751 q 461 827 376 827 q 598 797 547 827 q 682 716 650 766 q 743 462 743 621 q 693 401 743 403 l 220 391 q 296 174 224 244 q 454 114 357 114 q 688 174 598 114 q 703 164 694 174 q 720 129 720 144 q 639 45 720 96 q 420 -13 545 -13 q 165 91 258 -13 q 73 365 73 193 m 224 479 q 581 504 419 488 q 432 720 589 720 q 289 652 345 720 q 224 479 238 589 z "},"f":{"ha":584,"x_min":58,"x_max":630,"o":"m 179 0 q 75 47 75 0 q 85 85 75 73 q 116 80 102 80 q 177 160 178 80 l 177 696 l 164 696 q 69 694 91 696 q 58 744 58 721 q 75 782 58 767 q 121 796 93 796 l 177 796 l 177 821 q 352 1165 177 1074 q 492 1200 418 1200 q 597 1166 565 1200 q 630 1078 630 1133 q 587 983 630 1017 q 548 974 574 974 q 522 987 522 974 q 448 1086 522 1086 q 374 1063 398 1086 q 327 926 327 1018 q 328 895 327 911 l 328 796 l 543 796 q 552 756 552 781 q 547 720 552 732 q 528 699 542 709 q 447 677 496 677 q 328 686 397 677 l 328 141 q 395 81 328 89 q 465 66 453 75 q 482 34 482 54 q 471 -3 482 10 q 428 0 458 0 l 179 0 z "},"g":{"ha":847,"x_min":66,"x_max":813,"o":"m 334 271 q 309 220 309 245 q 323 183 309 196 q 360 164 337 171 q 438 155 395 155 l 496 155 q 787 49 718 155 q 813 -47 813 9 q 794 -146 813 -104 q 743 -222 775 -189 q 669 -279 711 -255 q 581 -317 627 -302 q 410 -348 489 -348 q 271 -335 330 -348 q 165 -296 212 -323 q 66 -131 66 -239 q 157 33 66 -39 q 216 72 185 55 q 180 154 180 102 q 260 290 180 235 q 106 450 142 334 q 94 534 94 488 q 109 623 94 581 q 149 696 123 664 q 208 753 174 729 q 281 794 242 778 q 440 827 357 827 q 660 758 578 827 q 669 827 669 791 q 653 886 669 863 q 732 917 680 917 q 779 901 762 917 q 813 843 813 871 q 804 792 813 814 q 781 752 795 771 q 716 688 756 717 q 743 571 743 637 q 714 447 743 504 q 635 349 684 389 q 384 267 533 267 q 334 271 363 267 m 301 415 q 313 403 301 415 q 357 380 326 391 q 424 368 388 368 q 491 378 459 368 q 545 408 522 389 q 595 528 595 450 q 551 670 595 613 q 410 733 500 733 q 261 640 295 733 q 250 561 250 608 q 263 477 250 514 q 301 415 277 439 m 302 32 q 213 -105 213 -28 q 290 -206 213 -172 q 442 -235 352 -235 q 594 -208 524 -235 q 686 -90 686 -172 q 509 19 686 19 l 448 18 q 302 32 356 18 z "},"h":{"ha":991,"x_min":41,"x_max":958,"o":"m 427 -3 q 384 0 414 0 l 168 0 q 84 23 102 0 q 77 43 77 32 q 87 85 77 72 q 125 80 104 80 q 156 97 146 80 q 165 160 166 114 l 165 1000 q 156 1061 165 1047 q 106 1082 142 1082 l 92 1082 q 78 1081 86 1082 q 65 1082 71 1079 q 56 1090 60 1085 q 88 1147 41 1112 q 228 1200 157 1200 q 315 1116 305 1200 q 317 1063 317 1091 l 317 694 q 536 814 420 780 q 623 827 579 827 q 706 815 667 827 q 774 778 746 804 q 837 608 837 722 l 837 153 q 875 84 837 97 q 901 77 886 80 q 927 71 916 75 q 946 62 939 67 q 958 34 958 54 q 947 -3 958 9 q 904 0 933 0 l 688 0 q 604 23 623 0 q 597 43 597 32 q 607 85 597 73 q 644 80 624 80 q 674 94 663 80 q 686 146 684 109 l 686 560 q 617 689 686 675 q 565 693 596 693 q 495 684 533 693 q 425 659 458 674 q 317 588 359 629 l 317 153 q 355 84 317 97 q 381 77 366 80 q 408 71 396 75 q 427 62 420 67 q 438 34 438 54 q 427 -3 438 10 z "},"i":{"ha":486,"x_min":55,"x_max":455,"o":"m 227 953 q 184 960 203 953 q 151 981 165 967 q 121 1057 121 1009 q 156 1135 121 1103 q 237 1167 190 1167 q 313 1139 285 1167 q 342 1061 342 1110 q 308 983 342 1015 q 227 953 275 953 m 185 0 q 81 47 81 0 q 92 85 81 72 q 121 80 108 80 q 183 160 184 80 l 183 614 q 170 681 183 662 q 123 699 157 699 q 77 693 98 699 q 60 712 65 692 q 65 744 55 730 q 97 773 75 758 q 144 800 118 789 q 237 827 199 827 q 292 816 274 827 q 319 787 310 805 q 334 690 334 757 l 334 149 q 373 83 336 95 q 398 77 383 80 q 425 71 413 75 q 444 62 437 67 q 455 34 455 54 q 445 -3 455 9 q 401 0 431 0 l 185 0 z "},"j":{"ha":486,"x_min":-92,"x_max":341,"o":"m 227 953 q 203 953 227 953 q 150 981 180 953 q 121 1057 121 1008 q 156 1135 121 1103 q 237 1167 190 1167 q 313 1139 284 1167 q 341 1061 341 1110 q 307 983 341 1015 q 227 953 274 953 m 7 -170 q 25 -208 9 -191 q 71 -225 41 -225 q 120 -219 100 -225 q 155 -197 140 -213 q 183 -73 183 -162 l 183 614 q 170 681 183 662 q 123 699 157 699 q 91 693 105 699 q 73 712 78 692 q 78 744 68 730 q 108 773 88 758 q 151 800 127 789 q 238 827 202 827 q 292 816 274 827 q 319 787 310 805 q 334 690 334 757 l 334 25 q 250 -255 334 -153 q 58 -349 172 -349 q -83 -288 -49 -349 q -92 -239 -92 -269 q -69 -188 -92 -209 q -24 -168 -45 -168 q 7 -170 -3 -168 z "},"k":{"ha":899,"x_min":49,"x_max":899,"o":"m 414 -3 q 371 0 401 0 l 168 0 q 84 23 102 0 q 77 43 77 32 q 87 85 77 72 q 125 80 104 80 q 156 97 146 80 q 165 160 166 114 l 165 1000 q 156 1061 165 1047 q 106 1082 142 1082 q 84 1080 95 1082 q 67 1081 73 1078 q 58 1089 61 1084 q 59 1117 49 1103 q 90 1146 70 1131 q 133 1173 109 1162 q 221 1200 184 1200 q 276 1189 258 1200 q 302 1160 294 1178 q 317 1063 317 1130 l 317 153 q 351 84 317 97 q 374 77 361 80 q 398 71 387 75 q 415 62 409 67 q 425 34 425 54 q 414 -3 425 10 m 701 827 q 807 762 807 827 q 642 535 807 680 q 514 439 578 479 q 603 335 557 399 l 674 235 q 809 106 764 106 q 858 114 846 106 q 876 122 870 121 q 890 117 881 123 q 899 99 899 112 q 888 67 899 86 q 859 30 878 47 q 759 -13 812 -13 q 669 13 705 -13 q 600 78 632 38 q 540 168 568 119 l 484 264 q 366 418 415 382 q 347 443 338 437 l 367 454 l 476 532 q 572 614 546 584 q 624 710 624 671 q 570 741 624 737 q 563 764 563 752 q 576 788 563 777 q 610 808 589 800 q 701 827 653 827 z "},"l":{"ha":485,"x_min":43,"x_max":449,"o":"m 178 0 q 75 47 75 0 q 85 85 75 73 q 115 80 101 80 q 176 151 174 80 l 176 1000 q 167 1061 176 1048 q 117 1082 151 1082 q 86 1079 101 1082 q 66 1079 72 1076 q 57 1088 60 1082 q 91 1145 43 1110 q 238 1200 165 1200 q 325 1116 315 1200 q 328 1063 328 1091 l 328 149 q 366 83 330 96 q 392 77 377 80 q 418 71 406 75 q 437 62 431 67 q 449 34 449 54 q 438 -3 449 10 q 395 0 425 0 l 178 0 z "},"m":{"ha":1485,"x_min":60,"x_max":1456,"o":"m 438 -3 q 395 0 425 0 l 178 0 q 95 23 113 0 q 87 43 87 32 q 98 85 87 72 q 135 80 115 80 q 166 97 156 80 q 176 160 177 114 l 176 604 q 153 683 176 667 q 127 689 143 689 q 103 684 112 689 q 88 677 94 680 q 78 678 82 675 q 70 685 74 680 q 60 708 60 696 q 68 733 60 720 q 96 763 77 746 q 139 795 115 781 q 249 827 194 827 q 321 750 309 827 q 327 703 326 727 q 540 815 429 783 q 618 827 581 827 q 823 699 780 827 q 1038 815 928 783 q 1122 827 1079 827 q 1204 815 1164 827 q 1272 778 1244 804 q 1335 608 1335 722 l 1335 153 q 1373 84 1335 98 q 1398 77 1383 80 q 1426 71 1413 75 q 1444 62 1438 67 q 1456 34 1456 54 q 1445 -3 1456 10 q 1402 0 1432 0 l 1185 0 q 1102 23 1120 0 q 1095 43 1095 32 q 1105 85 1095 72 q 1141 80 1122 80 q 1172 93 1161 80 q 1183 142 1182 106 l 1183 560 q 1115 689 1183 675 q 1065 693 1094 693 q 1003 686 1036 693 q 939 667 969 679 q 836 606 880 643 l 836 153 q 873 84 836 97 q 899 77 884 80 q 926 71 914 75 q 945 62 938 67 q 956 34 956 54 q 946 -3 956 9 q 903 0 932 0 l 686 0 q 603 23 621 0 q 595 43 595 32 q 606 85 595 73 q 642 80 623 80 q 672 94 662 80 q 684 146 683 109 l 684 560 q 616 689 684 675 q 565 693 595 693 q 500 685 535 693 q 433 663 465 677 q 328 600 372 638 l 328 153 q 366 84 328 98 q 391 77 376 80 q 418 71 406 75 q 437 62 431 67 q 449 34 449 54 q 438 -3 449 10 z "},"n":{"ha":998,"x_min":60,"x_max":969,"o":"m 438 -3 q 395 0 425 0 l 178 0 q 95 23 113 0 q 87 43 87 32 q 98 85 87 72 q 135 80 115 80 q 166 97 156 80 q 176 160 177 114 l 176 604 q 153 683 176 667 q 127 689 143 689 q 103 684 112 689 q 88 677 94 680 q 78 678 82 675 q 70 685 74 680 q 60 708 60 696 q 68 733 60 720 q 96 763 77 746 q 139 795 115 781 q 249 827 194 827 q 323 743 312 827 q 328 693 327 719 q 547 814 429 778 q 634 827 590 827 q 717 815 677 827 q 786 778 757 804 q 848 608 848 724 l 848 149 q 887 83 850 96 q 912 77 897 80 q 939 71 927 75 q 958 62 951 67 q 969 34 969 54 q 958 -3 969 10 q 915 0 945 0 l 699 0 q 615 23 633 0 q 608 43 608 32 q 618 85 608 72 q 649 80 635 80 q 672 84 663 80 q 687 96 682 87 q 696 160 696 113 l 696 560 q 628 689 696 675 q 575 693 607 693 q 506 684 544 693 q 435 659 468 674 q 328 587 371 631 l 328 149 q 366 83 330 96 q 392 77 377 80 q 418 71 406 75 q 437 62 431 67 q 449 34 449 54 q 438 -3 449 10 z "},"o":{"ha":861,"x_min":67,"x_max":794,"o":"m 67 374 q 83 523 67 457 q 128 639 100 589 q 195 725 157 689 q 278 783 234 760 q 467 827 364 827 q 692 730 600 827 q 794 451 794 625 q 670 96 794 223 q 412 -13 562 -13 q 159 98 254 -13 q 67 374 67 204 m 452 98 q 533 119 497 98 q 594 178 569 140 q 644 378 644 255 q 591 609 644 514 q 420 718 532 718 q 275 649 330 718 q 218 444 218 576 q 290 184 218 279 q 452 98 355 98 z "},"p":{"ha":928,"x_min":37,"x_max":857,"o":"m 420 -254 q 429 -283 429 -265 q 414 -313 429 -300 q 376 -334 398 -326 q 294 -349 333 -349 q 229 -343 254 -349 q 186 -324 203 -338 q 153 -233 153 -297 l 153 604 q 130 683 153 667 q 104 689 120 689 q 80 684 89 689 q 65 677 71 680 q 55 678 59 675 q 47 685 51 680 q 37 708 37 697 q 45 733 37 720 q 73 763 54 746 q 116 795 92 781 q 226 827 171 827 q 302 727 292 827 q 534 827 409 827 q 761 731 673 827 q 857 444 857 628 q 794 197 857 306 q 637 42 737 98 q 434 -13 542 -13 q 304 6 374 -13 l 304 -88 q 317 -223 304 -198 q 343 -254 330 -249 q 373 -258 356 -258 q 420 -254 391 -258 m 304 621 l 304 151 q 460 96 369 96 q 632 174 566 96 q 703 401 703 257 q 640 629 703 552 q 486 699 585 699 q 304 621 387 699 z "},"q":{"ha":918,"x_min":73,"x_max":901,"o":"m 630 90 q 394 -14 524 -14 q 168 81 255 -14 q 73 370 73 186 q 203 705 73 576 q 339 795 263 764 q 496 826 414 826 q 655 799 578 826 q 722 828 683 828 q 766 803 753 828 q 781 707 781 775 l 781 -88 q 789 -194 781 -172 q 807 -224 796 -216 q 832 -232 818 -232 q 866 -227 853 -232 q 884 -223 880 -222 q 891 -226 888 -223 q 901 -245 901 -233 q 894 -272 901 -258 q 869 -301 886 -286 q 829 -326 852 -315 q 734 -349 781 -349 q 659 -317 688 -349 q 630 -219 630 -286 l 630 90 m 630 656 q 469 718 563 718 q 297 640 363 718 q 227 412 227 556 q 288 183 227 260 q 445 114 344 114 q 630 198 546 114 l 630 656 z "},"r":{"ha":713,"x_min":56,"x_max":689,"o":"m 448 -3 q 405 0 434 0 l 175 0 q 92 23 110 0 q 84 43 84 32 q 95 85 84 72 q 125 80 111 80 q 149 84 139 80 q 163 96 158 87 q 173 160 173 113 l 173 604 q 149 683 173 667 q 124 689 140 689 q 99 684 109 689 q 84 677 90 680 q 75 678 79 675 q 66 685 71 680 q 56 708 56 697 q 65 733 56 720 q 92 763 73 746 q 136 795 111 781 q 245 827 191 827 q 319 745 308 827 q 323 696 323 722 q 528 816 422 783 q 592 827 563 827 q 639 819 621 827 q 669 796 658 810 q 689 725 689 768 q 685 656 689 682 q 675 610 681 630 q 652 559 663 570 q 601 540 633 540 q 568 559 568 540 q 562 652 568 631 q 519 689 551 689 q 461 682 487 689 q 411 663 435 675 q 324 600 361 638 l 324 149 q 371 83 326 95 q 400 77 384 80 q 428 71 416 75 q 447 62 440 67 q 458 34 458 54 q 448 -3 458 9 z "},"s":{"ha":755,"x_min":79,"x_max":683,"o":"m 538 586 q 452 724 538 690 q 392 735 424 735 q 332 730 359 735 q 283 713 304 724 q 236 639 236 687 q 275 559 236 593 q 437 470 319 523 q 619 356 555 418 q 683 213 683 294 q 608 60 683 122 q 366 -13 521 -13 q 104 68 177 -13 q 79 140 79 96 q 132 264 79 247 q 156 269 144 269 q 191 249 188 269 q 380 79 205 79 q 521 138 486 79 q 532 184 532 157 q 515 234 532 212 q 467 276 498 256 q 395 313 437 295 l 304 354 q 97 606 97 449 q 187 769 97 708 q 408 827 273 827 q 635 747 591 827 q 647 703 647 727 q 644 659 647 678 q 637 624 642 640 q 622 582 631 594 q 571 569 604 569 q 538 586 538 569 z "},"t":{"ha":602,"x_min":39,"x_max":564,"o":"m 307 463 l 306 284 q 317 150 306 172 q 345 122 329 127 q 385 118 360 118 q 429 122 409 118 q 467 132 449 125 q 500 145 484 138 l 534 159 q 559 136 545 163 q 564 118 564 128 q 555 93 564 109 q 524 57 547 77 q 469 22 500 37 q 348 -13 401 -13 q 260 -7 294 -13 q 202 18 226 -1 q 153 157 153 56 l 153 690 l 86 690 q 56 704 65 690 q 39 739 39 725 q 51 766 39 763 q 203 926 159 784 q 224 1027 216 968 q 273 1032 256 1032 q 302 1015 290 1032 q 314 976 314 998 q 313 934 313 954 q 311 891 312 914 l 309 796 l 543 796 q 552 763 552 781 l 552 742 q 522 695 552 713 q 454 677 491 677 q 401 679 417 677 q 370 681 385 680 l 340 685 q 307 688 325 686 l 307 680 l 307 463 z "},"u":{"ha":929,"x_min":41,"x_max":913,"o":"m 131 604 q 125 666 131 642 q 102 689 119 689 q 81 686 89 689 l 65 680 q 54 685 60 678 q 41 711 41 699 q 48 736 41 723 q 72 766 56 749 q 109 796 88 783 q 192 827 155 827 q 245 814 229 827 q 269 780 260 801 q 282 677 282 746 l 282 253 q 351 125 282 138 q 401 121 372 121 q 463 128 430 121 q 526 148 496 136 q 627 208 583 172 l 627 604 q 604 683 627 668 q 579 689 595 689 q 554 684 564 689 q 539 677 545 680 q 530 678 534 675 q 521 685 526 680 q 511 708 511 696 q 519 733 511 720 q 547 763 528 746 q 590 795 566 781 q 700 827 645 827 q 776 732 766 827 q 779 677 779 706 l 779 276 q 787 146 779 172 q 806 112 795 120 q 835 104 818 104 q 863 110 852 104 l 883 119 q 899 111 892 121 q 903 73 913 90 q 871 40 892 56 q 823 13 850 24 q 656 15 706 -39 q 627 103 631 43 q 423 -3 528 26 q 343 -13 385 -13 q 262 -1 302 -13 q 193 36 222 10 q 131 205 131 91 l 131 604 z "},"v":{"ha":835,"x_min":1,"x_max":783,"o":"m 323 33 q 90 644 97 625 q 76 680 83 663 q 45 718 59 718 q 26 715 37 718 q 8 723 15 713 q 1 747 1 732 q 15 776 1 761 q 47 802 28 791 q 115 827 90 827 q 155 825 140 827 q 183 815 170 824 q 229 739 210 798 l 427 146 q 498 293 475 242 l 540 392 q 616 655 616 579 l 616 664 q 601 718 616 698 q 547 741 585 737 q 540 764 540 752 q 553 788 540 776 q 587 808 566 800 q 679 827 629 827 q 756 811 728 827 q 783 751 783 796 q 654 374 783 656 l 593 244 q 496 69 529 115 q 394 -13 438 -13 q 337 12 362 -13 q 323 33 328 21 z "},"w":{"ha":1267,"x_min":-1,"x_max":1220,"o":"m 302 33 l 85 648 q 42 718 60 718 q 23 715 34 718 q 5 723 12 713 q -1 747 -1 732 q 10 776 -1 761 q 39 802 22 791 q 108 827 79 827 q 152 825 138 827 q 179 816 166 824 q 222 739 205 799 l 397 149 q 480 400 461 339 q 570 735 547 627 q 614 777 574 760 q 667 789 646 789 q 696 786 689 789 q 707 775 703 783 q 719 736 715 759 l 899 144 q 968 319 950 269 l 1004 418 q 1060 671 1060 580 q 998 743 1060 735 q 991 765 991 753 q 1002 789 991 777 q 1032 810 1014 801 q 1106 827 1069 827 q 1164 823 1144 827 q 1197 808 1185 819 q 1220 748 1220 788 q 1211 666 1220 707 q 1187 576 1202 625 q 1153 474 1173 528 q 1045 204 1079 277 l 996 101 q 972 58 981 71 l 956 31 q 888 -13 927 -13 q 819 9 846 -13 q 804 33 808 19 l 635 519 q 549 253 568 307 q 482 74 494 97 q 462 36 471 50 q 442 11 453 21 q 389 -13 418 -13 q 319 11 348 -13 q 302 33 308 20 z "},"x":{"ha":846,"x_min":32,"x_max":833,"o":"m 63 64 q 86 126 63 89 q 148 210 109 164 q 240 309 187 256 l 351 422 l 212 625 q 119 701 162 701 q 87 695 100 701 q 66 689 74 689 q 54 692 58 689 q 45 701 49 696 q 49 747 32 722 q 87 788 66 772 q 197 827 136 827 q 256 815 237 827 q 315 749 290 795 l 459 481 q 595 652 549 573 q 611 704 611 683 q 542 748 611 740 q 536 770 536 758 q 549 792 536 781 q 582 811 562 804 q 670 827 621 827 q 748 805 719 827 q 777 755 777 783 q 764 701 777 728 q 731 643 752 673 q 683 580 710 612 q 626 515 656 547 q 509 399 545 432 l 653 191 q 702 130 680 153 q 746 106 724 106 q 781 112 768 106 q 819 113 811 124 q 819 66 833 92 q 785 24 804 41 q 691 -13 742 -13 q 547 73 590 -13 l 399 339 q 250 132 281 212 q 243 102 243 117 q 263 76 243 87 q 313 62 283 66 q 319 42 319 56 q 307 18 319 28 q 276 1 295 8 q 145 -9 215 -20 q 63 64 63 3 z "},"y":{"ha":816,"x_min":3,"x_max":786,"o":"m 41 718 l 26 715 q 5 735 12 715 q 3 751 3 741 q 15 776 3 761 q 45 802 26 791 q 131 827 85 827 q 182 817 167 827 q 230 739 213 798 l 437 139 q 524 340 500 281 l 566 445 q 623 647 623 600 q 607 715 623 694 q 551 741 591 737 q 543 763 543 749 q 556 789 543 777 q 589 810 568 801 q 674 827 630 827 q 736 822 718 827 q 765 808 754 818 q 786 737 786 789 q 713 494 786 691 q 612 238 646 317 q 424 -151 487 -40 q 304 -306 361 -262 q 186 -349 248 -349 q 92 -322 123 -349 q 60 -248 60 -295 q 77 -195 60 -213 q 148 -170 111 -162 q 209 -220 154 -220 q 298 -156 258 -220 q 334 -85 316 -125 l 373 3 l 387 31 q 320 69 347 36 q 302 102 309 82 l 113 600 l 96 640 q 41 718 65 718 z "},"z":{"ha":795,"x_min":76,"x_max":738,"o":"m 637 234 q 677 249 638 249 q 701 242 696 249 q 713 219 707 235 q 726 182 720 203 q 738 88 738 134 q 714 21 738 42 q 637 0 690 0 l 165 0 q 98 36 122 0 q 76 96 76 58 q 85 126 76 117 q 402 520 349 450 q 483 632 455 590 q 524 690 511 674 l 550 724 l 330 717 q 239 689 269 714 q 210 606 210 664 q 174 591 209 591 q 150 598 155 591 q 137 617 144 606 q 122 646 129 629 q 106 727 106 682 q 129 793 106 772 q 204 814 151 814 l 669 814 q 715 749 700 814 q 719 721 719 732 q 713 702 719 709 l 607 560 l 387 278 q 304 168 332 208 q 266 114 276 127 l 246 89 l 517 99 q 608 139 578 102 q 637 234 637 176 z "},"{":{"ha":696,"x_min":66,"x_max":633,"o":"m 282 -192 q 267 -174 282 -192 q 235 -112 252 -157 q 217 -18 217 -66 q 222 71 217 31 q 233 149 227 111 q 248 286 248 247 q 239 348 248 325 q 215 390 230 372 q 180 421 199 408 q 142 444 161 435 q 71 467 106 460 q 66 500 66 475 q 71 534 66 526 q 228 631 180 556 q 248 702 248 662 q 243 778 248 741 q 233 853 239 814 q 217 1009 217 951 q 235 1113 217 1067 q 282 1193 252 1158 q 349 1254 311 1228 q 426 1295 386 1279 q 572 1328 503 1328 q 620 1302 604 1328 q 629 1261 633 1281 q 450 1196 518 1261 q 377 1003 377 1126 q 389 878 377 948 q 410 708 410 747 q 391 633 410 669 q 342 572 372 597 q 212 503 290 526 l 212 498 q 391 367 341 459 q 410 296 410 331 q 405 227 410 260 q 393 154 400 193 q 377 -5 377 54 q 396 -113 377 -65 q 450 -194 416 -161 q 629 -260 519 -260 q 623 -295 633 -279 q 573 -327 604 -327 q 504 -319 542 -327 q 426 -295 465 -311 q 349 -253 386 -278 q 282 -192 311 -227 z "},"|":{"ha":559,"x_min":216,"x_max":343,"o":"m 216 1261 q 254 1270 231 1270 q 292 1268 277 1270 q 317 1260 306 1265 q 343 1230 343 1249 l 343 -142 q 302 -150 323 -150 q 268 -148 282 -150 q 241 -140 253 -145 q 216 -112 216 -129 l 216 1261 z "},"}":{"ha":696,"x_min":63,"x_max":630,"o":"m 66 0 m 414 -192 q 429 -174 414 -192 q 461 -112 444 -157 q 479 -18 479 -66 q 474 71 479 31 q 463 149 469 111 q 448 286 448 247 q 457 348 448 325 q 481 390 466 372 q 515 421 496 408 q 554 444 534 435 q 625 467 589 460 q 630 500 630 475 q 625 534 630 526 q 468 631 516 556 q 448 702 448 662 q 452 778 448 741 q 463 853 457 814 q 479 1009 479 951 q 461 1113 479 1067 q 414 1193 444 1158 q 347 1254 385 1228 q 270 1295 310 1279 q 123 1328 193 1328 q 76 1302 92 1328 q 66 1261 63 1281 q 246 1196 178 1261 q 319 1003 319 1126 q 307 878 319 948 q 286 708 286 747 q 305 633 286 669 q 354 572 324 597 q 484 503 406 526 l 484 498 q 305 367 355 459 q 286 296 286 331 q 291 227 286 260 q 302 154 296 193 q 319 -5 319 54 q 299 -113 319 -65 q 246 -194 280 -161 q 66 -260 176 -260 q 73 -295 63 -279 q 123 -327 92 -327 q 192 -319 154 -327 q 270 -295 231 -311 q 347 -253 310 -278 q 414 -192 385 -227 z "},"~":{"ha":808,"x_min":83,"x_max":726,"o":"m 256 698 q 124 612 179 698 q 83 663 83 623 q 144 766 83 704 q 289 835 212 835 q 368 817 334 835 q 420 786 401 799 q 460 763 439 774 q 556 738 508 738 q 684 825 625 738 q 722 792 710 825 q 726 768 726 783 q 708 724 726 753 q 662 668 690 695 q 519 603 593 603 q 440 621 474 603 q 388 650 407 638 q 349 673 369 663 q 256 698 300 698 z "},"":{"ha":461,"x_min":0,"x_max":0,"o":"z "},"":{"ha":450,"x_min":112,"x_max":339,"o":"m 112 0 m 275 748 q 224 762 273 762 q 175 746 175 762 q 172 692 175 730 q 159 496 164 562 l 134 132 q 127 -9 127 20 q 243 -54 127 -29 q 311 -62 286 -62 q 335 -56 335 -62 q 332 -18 335 -49 l 281 671 q 275 748 277 719 m 112 1005 q 144 924 112 956 q 224 892 176 892 q 330 960 301 892 q 339 1005 339 981 q 307 1086 339 1053 q 224 1118 274 1118 q 144 1085 176 1118 q 112 1005 112 1053 z "},"":{"ha":789,"x_min":77,"x_max":724,"o":"m 587 579 l 587 601 q 552 688 587 663 q 493 713 528 706 l 461 115 q 469 114 465 114 l 477 114 q 658 165 571 114 q 691 187 680 178 q 720 159 705 187 q 724 140 724 151 q 703 104 724 129 q 647 54 683 79 q 454 -12 558 -9 l 450 -108 q 421 -113 435 -113 q 396 -110 408 -113 q 374 -99 384 -106 q 355 -64 355 -84 l 357 -5 q 155 117 229 20 q 77 376 77 218 q 176 677 77 555 q 401 817 263 786 l 407 928 q 433 934 419 934 q 459 930 447 934 q 480 920 471 926 q 502 883 502 905 l 498 827 q 656 781 593 824 q 722 666 722 737 q 704 605 722 625 q 638 570 673 570 q 587 579 602 570 m 395 710 q 271 601 313 688 q 233 419 233 524 q 366 141 233 214 l 395 710 z "},"":{"ha":1119,"x_min":84,"x_max":990,"o":"m 770 123 q 925 199 872 123 q 987 172 975 195 q 990 138 990 158 q 980 90 990 117 q 945 39 970 62 q 783 -13 890 -13 q 551 31 684 -13 q 454 62 501 48 q 368 76 406 76 q 309 74 329 76 q 273 66 290 71 q 241 54 256 61 q 208 37 226 46 l 168 14 q 117 -13 146 1 q 94 12 104 -5 q 84 44 84 29 q 87 68 84 60 l 115 95 q 249 168 169 147 q 329 412 329 267 q 327 450 329 430 l 171 450 q 165 479 165 465 q 169 506 165 493 q 180 529 173 519 q 214 551 195 551 l 310 551 q 291 700 291 644 q 307 806 291 756 q 351 895 323 855 q 415 964 378 934 q 492 1013 452 994 q 656 1053 572 1053 q 871 974 812 1053 q 892 913 892 946 q 884 859 892 880 q 864 819 876 837 q 810 770 840 786 q 770 783 785 768 q 770 793 770 789 l 770 802 q 728 906 770 869 q 621 940 688 940 q 497 897 540 940 q 444 720 444 844 q 454 644 444 686 q 471 551 464 602 l 710 551 q 716 524 716 538 q 712 497 716 510 q 703 473 709 484 q 665 450 688 450 l 479 450 q 382 186 476 283 q 401 186 391 186 l 424 186 q 559 165 477 186 q 684 133 640 143 q 770 123 728 123 z "},"":{"ha":895,"x_min":31,"x_max":866,"o":"m 629 208 q 448 153 547 153 q 266 209 349 153 l 118 56 q 31 144 60 79 l 184 290 q 127 475 127 372 q 186 661 127 578 l 33 810 q 119 897 63 862 l 269 741 q 448 796 350 796 q 629 741 545 796 l 779 897 q 852 835 820 882 q 866 810 861 822 l 711 660 q 770 474 770 578 q 711 288 770 370 l 865 138 q 779 51 836 87 l 629 208 m 448 268 q 527 284 490 268 q 591 328 564 300 q 650 474 650 389 q 591 620 650 559 q 448 680 532 680 q 306 620 364 680 q 247 474 247 558 q 306 328 247 390 q 448 268 364 268 z "},"":{"ha":1117,"x_min":75,"x_max":1104,"o":"m 436 83 q 511 153 511 83 l 511 241 l 256 239 q 251 269 251 254 q 255 296 251 283 q 265 319 258 309 q 300 340 280 340 l 511 338 l 511 457 l 262 455 q 256 484 256 470 q 260 511 256 498 q 271 534 264 524 q 305 557 286 557 l 485 555 l 205 888 q 132 951 160 941 q 90 972 104 962 q 75 1002 75 983 q 85 1044 75 1031 q 153 1039 101 1039 l 410 1039 q 472 1033 456 1039 q 504 987 504 1021 q 491 952 504 966 q 447 959 467 959 q 419 956 428 959 q 401 947 410 954 q 381 913 381 933 q 418 840 381 884 l 604 603 q 715 730 679 686 q 835 889 833 877 q 838 915 838 901 q 785 954 838 941 l 749 962 q 709 982 716 968 q 701 1015 701 996 q 712 1044 701 1034 q 772 1039 728 1039 l 1007 1039 q 1070 1033 1054 1039 q 1104 986 1104 1021 q 1091 952 1104 966 q 1055 958 1070 958 q 1020 941 1039 958 q 979 899 1000 924 l 938 846 q 898 796 917 819 l 694 554 l 921 557 q 927 530 927 545 q 923 503 927 515 q 913 479 920 490 q 876 455 899 455 l 669 457 l 669 338 l 916 340 q 922 314 922 328 q 918 287 922 300 q 907 263 914 274 q 871 239 893 239 l 669 241 l 669 153 q 708 96 669 111 q 745 86 726 90 q 783 79 765 83 q 822 34 822 66 q 812 -5 822 10 q 745 0 796 0 l 460 0 q 376 25 393 0 q 369 49 369 36 q 380 90 369 76 q 436 83 403 83 z "},"":{"ha":559,"x_min":216,"x_max":343,"o":"m 216 1261 q 254 1270 231 1270 q 292 1268 277 1270 q 317 1260 306 1265 q 343 1230 343 1249 l 343 646 q 302 638 323 638 q 267 641 281 638 q 241 648 253 643 q 216 676 216 659 l 216 1261 m 216 471 q 254 480 231 480 q 292 478 277 480 q 317 471 306 475 q 343 440 343 459 l 343 -142 q 302 -150 323 -150 q 268 -148 282 -150 q 241 -140 253 -145 q 216 -112 216 -129 l 216 471 z "},"":{"ha":1008,"x_min":136,"x_max":860,"o":"m 712 983 q 507 1195 712 1195 q 363 1152 417 1195 q 311 1049 311 1111 q 466 870 311 952 q 609 792 570 812 q 683 751 648 772 q 749 705 718 730 q 806 650 781 680 q 860 501 860 585 q 736 282 860 355 q 654 247 699 260 q 786 151 747 195 q 842 67 825 107 q 860 -36 860 26 q 829 -151 860 -98 q 746 -237 798 -203 q 487 -302 646 -302 q 193 -224 284 -302 q 136 -102 136 -176 q 174 25 136 -32 q 205 38 184 38 q 256 15 250 38 q 267 -63 260 -28 q 295 -125 275 -98 q 345 -172 315 -153 q 505 -213 408 -213 q 684 -123 637 -213 q 700 -52 700 -93 q 677 21 700 -11 q 616 79 654 52 q 530 130 578 106 l 434 178 q 264 283 318 233 q 183 383 211 333 q 156 487 156 433 q 171 580 156 542 q 212 648 185 618 q 361 735 266 707 q 156 1021 156 857 q 262 1217 156 1146 q 526 1282 361 1282 q 799 1188 734 1282 q 823 1117 823 1154 q 818 1060 823 1080 q 807 1024 814 1040 q 785 983 795 993 q 741 966 770 966 q 712 983 712 966 m 323 576 q 311 517 311 551 q 333 452 311 483 q 390 397 355 422 q 466 350 424 372 l 549 305 l 552 303 q 688 411 654 326 q 700 475 700 440 q 681 538 700 510 q 631 590 663 566 q 559 635 600 614 l 475 677 q 323 576 361 663 z "},"":{"ha":713,"x_min":72,"x_max":637,"o":"m 522 950 q 479 957 498 950 q 446 978 460 964 q 416 1055 416 1006 q 450 1133 416 1101 q 532 1164 485 1164 q 608 1136 580 1164 q 637 1059 637 1107 q 602 981 637 1013 q 522 950 569 950 m 178 950 q 135 957 155 950 q 102 978 116 964 q 72 1055 72 1006 q 107 1133 72 1101 q 189 1164 141 1164 q 264 1136 236 1164 q 293 1059 293 1107 q 259 981 293 1013 q 178 950 225 950 z "},"":{"ha":1773,"x_min":132,"x_max":1641,"o":"m 132 420 q 235 801 132 625 q 505 1072 334 972 q 886 1175 682 1175 q 1267 1072 1091 1175 q 1538 801 1438 972 q 1641 420 1641 624 q 1538 38 1641 214 q 1267 -232 1437 -133 q 886 -334 1091 -334 q 505 -232 682 -334 q 235 38 335 -133 q 132 420 132 214 m 241 418 q 328 85 241 239 q 557 -152 412 -65 q 886 -243 708 -243 q 1215 -152 1065 -243 q 1444 85 1360 -65 q 1531 418 1531 238 q 1444 752 1531 598 q 1215 991 1360 904 q 886 1083 1064 1083 q 557 991 709 1083 q 328 752 413 904 q 241 418 241 597 m 1057 600 l 1058 622 q 1041 690 1058 671 q 1008 719 1025 709 q 915 739 972 739 q 812 713 857 739 q 739 644 767 688 q 684 427 684 563 q 755 218 684 298 q 947 135 828 135 q 1140 186 1048 135 q 1175 208 1162 199 q 1203 180 1189 208 q 1207 161 1207 172 q 1185 124 1207 150 q 1124 72 1163 98 q 928 8 1027 8 q 759 34 830 8 q 637 109 688 59 q 528 397 528 214 q 665 733 528 607 q 956 848 788 848 q 1131 806 1061 848 q 1205 687 1205 760 q 1187 626 1205 646 q 1117 591 1157 591 q 1057 600 1077 591 z "},"":{"ha":677,"x_min":75,"x_max":647,"o":"m 427 622 q 267 551 353 551 q 128 595 180 551 q 75 713 75 641 q 330 884 75 884 l 427 884 l 427 948 q 325 1058 427 1058 q 260 1043 286 1058 q 229 1006 235 1028 q 225 973 223 992 q 176 965 205 965 q 128 981 146 965 q 109 1026 109 998 q 127 1078 109 1054 q 174 1118 144 1103 q 326 1149 232 1149 q 537 1063 479 1149 q 560 976 560 1029 l 557 758 q 563 680 557 694 q 601 655 572 655 q 622 659 614 655 q 634 660 631 663 q 640 652 637 657 q 647 628 647 637 q 641 609 647 618 q 622 588 635 599 q 591 569 608 577 q 523 551 555 551 q 463 569 491 551 q 427 622 435 586 m 205 736 q 301 648 205 648 q 425 694 367 648 q 427 810 425 753 l 352 806 q 216 768 242 799 q 205 736 205 755 z "},"":{"ha":1510,"x_min":121,"x_max":1351,"o":"m 121 0 m 698 793 q 736 694 736 793 q 704 651 736 672 l 315 393 l 699 128 q 737 77 737 102 q 725 13 737 37 q 697 -10 713 -10 q 669 -3 682 -10 l 168 300 q 121 389 121 329 q 135 448 121 420 q 168 488 148 476 l 669 783 q 698 793 686 793 m 1312 793 q 1350 694 1350 793 q 1318 651 1350 672 l 929 393 l 1312 128 q 1351 77 1351 102 q 1339 13 1351 37 q 1311 -10 1327 -10 q 1282 -3 1295 -10 l 782 300 q 735 389 735 329 q 748 448 735 420 q 782 488 762 476 l 1282 783 q 1312 793 1299 793 z "},"":{"ha":945,"x_min":95,"x_max":850,"o":"m 102 448 q 95 489 95 469 q 97 524 95 509 q 104 550 100 538 q 133 576 116 576 l 722 576 q 813 571 793 576 q 850 534 850 562 l 850 211 q 809 203 829 203 q 774 206 789 203 q 748 213 760 208 q 722 241 722 224 l 722 448 l 102 448 z "},"":{"ha":1123,"x_min":0,"x_max":0,"o":""},"":{"ha":1371,"x_min":62,"x_max":1308,"o":"m 62 682 q 146 999 62 852 q 370 1225 228 1141 q 686 1310 514 1310 q 1001 1225 857 1310 q 1223 999 1142 1141 q 1308 682 1308 852 q 1223 365 1308 511 q 1001 140 1142 223 q 686 55 856 55 q 370 140 515 55 q 146 365 228 224 q 62 682 62 511 m 163 681 q 233 411 163 535 q 545 164 338 223 q 686 144 612 144 q 952 218 829 144 q 1138 411 1069 288 q 1208 681 1208 535 q 1138 951 1208 826 q 827 1200 1033 1141 q 686 1219 760 1219 q 419 1145 541 1219 q 233 951 302 1074 q 163 681 163 826 m 448 427 q 398 471 398 427 q 405 491 398 484 q 434 487 413 487 q 469 496 455 487 q 484 531 482 505 l 484 885 q 437 933 484 923 q 399 946 408 940 q 390 963 390 953 q 396 996 390 987 q 422 994 407 994 l 505 994 l 660 998 l 680 998 q 926 909 884 998 q 939 852 939 881 q 931 800 939 823 q 906 755 923 777 q 804 686 870 709 q 849 636 823 671 l 890 582 q 983 509 944 509 q 1016 515 998 509 q 1037 486 1037 515 q 1013 453 1037 471 q 931 418 968 418 q 867 436 894 418 q 818 481 840 454 q 777 540 795 508 l 742 598 q 675 661 702 661 l 602 661 l 602 530 q 614 501 602 509 q 649 489 627 493 q 686 479 671 485 q 701 453 701 473 q 694 424 701 433 q 654 427 686 427 l 448 427 m 665 935 q 602 923 618 935 l 602 720 q 618 719 610 719 q 633 719 625 719 q 764 747 719 719 q 809 828 809 775 q 665 935 809 934 z "},"":{"ha":708,"x_min":58,"x_max":609,"o":"m 64 987 q 58 1017 58 1002 q 62 1046 58 1032 q 73 1071 66 1060 q 107 1095 88 1095 l 603 1095 q 609 1068 609 1083 q 605 1039 609 1053 q 595 1013 602 1025 q 558 987 580 987 l 64 987 z "},"":{"ha":779,"x_min":128,"x_max":651,"o":"m 372 680 q 272 696 318 680 q 194 743 226 713 q 128 905 128 806 q 220 1112 128 1041 q 416 1171 296 1171 q 578 1116 513 1171 q 651 951 651 1054 q 562 743 651 818 q 372 680 486 680 m 301 816 q 311 805 301 816 q 348 784 321 795 q 402 774 374 774 q 454 784 431 774 q 492 812 477 794 q 523 910 523 850 q 448 1063 523 1022 q 388 1078 421 1078 q 332 1070 355 1078 q 292 1046 309 1062 q 256 955 256 1010 q 269 869 256 901 q 301 816 281 837 z "},"":{"ha":785,"x_min":95,"x_max":690,"o":"m 114 142 q 106 181 106 160 q 109 217 106 203 q 116 243 111 231 q 144 267 126 267 l 330 267 l 330 450 l 102 450 q 95 491 95 471 q 97 525 95 511 q 104 551 100 539 q 133 576 117 576 l 330 576 l 330 816 q 369 825 347 825 q 405 822 390 825 q 431 815 419 820 q 457 784 457 803 l 457 576 l 681 576 q 690 536 690 558 q 687 501 690 515 q 680 476 685 487 q 649 450 668 450 l 457 450 l 457 267 l 666 267 q 675 229 675 250 q 672 194 675 208 q 665 168 670 180 q 634 142 654 142 l 114 142 z "},"":{"ha":717,"x_min":113,"x_max":604,"o":"m 532 774 l 547 775 q 589 767 585 775 q 597 743 594 759 q 601 710 600 728 q 604 663 604 686 q 600 628 604 640 q 588 606 596 616 q 534 587 570 587 l 136 587 q 121 611 126 593 q 116 635 117 628 q 121 674 113 669 l 248 777 q 412 959 369 878 q 436 1046 436 1002 q 335 1153 436 1153 q 271 1119 298 1153 q 245 1014 241 1080 q 209 1005 227 1005 q 175 1008 191 1005 q 146 1020 159 1012 q 117 1072 117 1039 q 133 1133 117 1105 q 178 1184 149 1162 q 345 1233 243 1233 q 522 1177 460 1233 q 578 1051 578 1127 q 382 762 578 917 q 262 677 326 718 l 350 677 q 476 691 447 677 q 518 724 506 705 q 532 774 530 743 z "},"":{"ha":717,"x_min":125,"x_max":605,"o":"m 580 1077 q 483 925 580 984 q 596 823 569 897 q 605 763 605 800 q 585 691 605 727 q 530 631 565 656 q 342 582 458 582 q 194 620 258 582 q 125 723 125 661 q 173 792 125 779 q 195 794 181 794 q 237 790 227 794 q 251 715 237 738 q 343 669 278 669 q 470 780 470 669 q 401 860 470 838 q 345 868 374 868 q 293 865 315 868 q 273 894 280 865 q 270 947 258 947 q 400 985 351 947 q 445 1064 445 1019 q 420 1130 445 1109 q 356 1152 395 1152 q 301 1145 317 1152 q 277 1127 286 1138 q 260 1075 260 1107 q 221 1067 241 1067 q 189 1072 201 1067 q 168 1085 177 1076 q 146 1129 146 1105 q 160 1171 146 1153 q 202 1203 174 1190 q 358 1232 261 1232 q 562 1146 510 1232 q 580 1077 580 1117 z "},"":{"ha":395,"x_min":97,"x_max":471,"o":"m 149 913 q 117 925 130 913 q 97 950 97 943 q 101 968 97 963 l 318 1185 q 353 1200 333 1200 q 394 1188 373 1200 q 433 1158 415 1176 q 471 1086 471 1118 q 458 1063 471 1070 l 149 913 z "},"":{"ha":948,"x_min":43,"x_max":930,"o":"m 168 -302 q 121 -285 140 -302 l 146 204 l 146 604 q 139 665 146 642 q 113 689 132 689 q 86 684 95 689 q 71 677 77 680 q 61 678 65 675 q 53 685 57 680 q 43 708 43 696 q 51 733 43 720 q 76 763 59 746 q 115 795 94 781 q 218 827 164 827 q 294 732 285 827 q 297 677 297 706 l 297 253 q 366 125 297 138 q 415 121 387 121 q 478 128 444 121 q 541 148 511 136 q 645 209 600 172 l 646 604 q 622 683 646 667 q 597 689 612 689 q 572 684 581 689 q 557 677 563 680 q 547 678 551 675 q 539 685 543 680 q 529 708 529 696 q 537 733 529 721 q 564 763 545 746 q 608 795 583 781 q 718 827 663 827 q 794 732 785 827 q 797 677 797 706 l 797 276 q 805 146 797 172 q 824 112 813 120 q 852 104 836 104 q 880 110 869 104 l 901 119 q 916 111 909 121 q 920 73 930 90 q 890 40 910 56 q 844 13 869 24 q 676 15 730 -39 q 645 103 648 43 q 438 -3 546 27 q 353 -13 399 -13 q 264 3 306 -13 q 286 -246 271 -122 q 168 -302 262 -302 z "},"":{"ha":1238,"x_min":150,"x_max":1005,"o":"m 625 -197 q 585 -200 608 -200 q 547 -192 562 -200 l 547 355 q 178 543 263 363 q 150 686 150 604 q 180 836 150 769 q 268 948 211 903 q 592 1042 385 1042 q 688 1033 677 1042 l 688 -147 q 625 -197 688 -186 m 942 -197 q 902 -200 925 -200 q 865 -192 880 -200 l 865 994 q 930 1040 865 1028 q 968 1044 947 1044 q 1005 1037 989 1044 l 1005 -147 q 942 -197 1005 -186 z "},"":{"ha":450,"x_min":112,"x_max":339,"o":"m 224 445 q 180 453 200 445 q 144 477 159 462 q 112 558 112 509 q 144 638 112 606 q 224 671 176 671 q 330 603 301 671 q 339 558 339 583 q 307 477 339 510 q 224 445 274 445 z "},"":{"ha":395,"x_min":78,"x_max":379,"o":"m 223 -75 q 379 -182 379 -79 q 203 -327 379 -288 q 91 -340 140 -341 q 78 -305 78 -332 q 97 -274 78 -277 q 140 -267 117 -271 q 184 -254 164 -262 q 234 -201 234 -234 q 140 -152 234 -155 q 129 -137 133 -152 q 124 -121 124 -123 l 154 10 l 237 10 l 223 -75 z "},"":{"ha":691,"x_min":158,"x_max":562,"o":"m 553 584 q 497 587 540 587 l 235 587 q 189 603 207 587 q 170 645 170 620 q 180 667 170 659 q 235 663 200 663 q 282 668 270 663 q 300 682 294 673 q 307 736 307 695 l 307 1038 q 265 1086 307 1086 l 243 1086 q 188 1082 220 1086 q 171 1105 178 1082 q 167 1153 158 1149 q 385 1227 289 1181 q 393 1228 387 1228 q 408 1224 399 1228 q 423 1215 416 1221 q 439 1194 439 1204 l 439 724 q 456 670 439 677 q 478 666 463 667 q 508 661 492 664 q 536 653 524 658 q 562 623 562 643 q 553 584 562 593 z "},"":{"ha":677,"x_min":63,"x_max":613,"o":"m 315 551 q 210 574 258 551 q 130 635 163 596 q 63 836 63 713 q 156 1080 63 997 q 358 1149 235 1149 q 546 1065 475 1149 q 613 865 613 985 q 519 621 613 703 q 315 551 441 551 m 239 690 q 248 677 239 690 q 283 653 257 663 q 340 642 309 642 q 395 655 371 642 q 437 690 419 667 q 474 815 474 739 q 465 937 474 892 q 437 1009 455 983 q 333 1059 405 1058 q 239 1010 275 1059 q 201 884 201 960 q 211 763 201 808 q 239 690 220 717 z "},"":{"ha":1510,"x_min":159,"x_max":1389,"o":"m 159 0 m 812 -5 q 774 94 774 -5 q 806 137 774 116 l 1195 395 l 812 660 q 773 711 773 686 q 785 775 773 751 q 813 798 797 798 q 842 791 829 798 l 1342 488 q 1389 399 1389 459 q 1376 340 1389 368 q 1342 300 1362 312 l 842 5 q 812 -5 825 -5 m 199 -5 q 160 94 160 -5 q 193 137 160 116 l 581 395 l 198 660 q 159 711 159 686 q 171 775 159 751 q 199 798 183 798 q 228 791 215 798 l 728 488 q 775 399 775 459 q 762 340 775 368 q 728 300 749 312 l 228 5 q 199 -5 211 -5 z "},"":{"ha":1480,"x_min":110,"x_max":1365,"o":"m 1125 -111 q 1095 -100 1095 -111 l 1095 69 l 825 69 q 793 97 808 69 q 787 134 779 125 q 859 247 821 179 l 921 359 q 1022 592 996 503 q 1076 579 1044 592 q 1138 538 1133 555 q 1069 370 1149 503 l 1020 293 q 920 157 973 222 l 1095 157 l 1095 252 q 1157 296 1095 273 q 1206 307 1193 309 q 1220 300 1220 306 l 1220 157 l 1350 157 q 1354 113 1365 157 q 1328 69 1343 69 l 1220 69 l 1220 -87 q 1125 -111 1220 -111 m 505 515 q 449 517 492 517 l 187 517 q 140 534 159 517 q 122 576 122 551 q 132 597 122 590 q 187 593 152 593 q 234 598 222 593 q 252 613 246 604 q 259 667 259 626 l 259 968 q 217 1017 259 1017 l 195 1017 q 140 1013 172 1017 q 123 1036 130 1013 q 119 1084 110 1080 q 336 1158 241 1112 q 345 1159 338 1159 q 359 1155 351 1159 q 374 1146 368 1152 q 391 1125 391 1135 l 391 655 q 408 601 391 608 q 430 596 415 598 q 460 592 444 595 q 488 584 476 589 q 514 553 514 574 q 505 515 514 524 m 935 977 q 992 962 968 981 q 1023 905 1038 928 l 437 -3 q 378 16 400 -1 q 349 69 336 47 l 935 977 z "},"":{"ha":1480,"x_min":111,"x_max":1377,"o":"m 119 0 m 506 515 q 450 518 492 518 l 188 518 q 141 535 159 518 q 123 576 123 551 q 132 598 123 591 q 188 594 153 594 q 235 599 222 594 q 252 614 247 604 q 260 667 260 627 l 260 969 q 218 1018 260 1018 l 195 1018 q 140 1013 172 1018 q 123 1036 130 1013 q 119 1084 111 1080 q 337 1158 241 1113 q 346 1160 339 1160 q 360 1156 352 1160 q 376 1147 368 1152 q 392 1126 392 1135 l 392 656 q 409 602 392 608 q 430 597 416 599 q 461 592 445 595 q 488 585 477 589 q 515 554 515 574 q 506 515 515 524 m 1305 75 l 1320 77 q 1362 68 1358 77 q 1370 45 1367 60 q 1374 12 1373 29 q 1377 -36 1377 -13 q 1373 -71 1377 -59 q 1361 -92 1369 -83 q 1307 -112 1343 -112 l 909 -112 q 895 -88 899 -105 q 889 -63 890 -71 q 894 -24 886 -30 l 1021 79 q 1185 260 1142 180 q 1209 347 1209 303 q 1108 454 1209 454 q 1044 420 1072 454 q 1018 315 1014 381 q 982 307 1000 307 q 948 310 964 307 q 920 321 932 313 q 890 373 890 340 q 906 435 890 406 q 951 486 922 463 q 1118 534 1016 534 q 1295 479 1233 534 q 1351 353 1351 429 q 1156 64 1351 218 q 1036 -21 1099 19 l 1123 -21 q 1250 -7 1220 -21 q 1291 26 1279 7 q 1305 75 1303 45 m 935 978 q 992 963 968 981 q 1023 906 1038 929 l 437 -2 q 378 17 400 -1 q 349 70 336 48 l 935 978 z "},"":{"ha":1480,"x_min":92,"x_max":1365,"o":"m 1125 -111 q 1095 -100 1095 -111 l 1095 69 l 825 69 q 793 97 808 69 q 787 134 779 125 q 859 247 821 179 l 921 359 q 1022 592 996 503 q 1076 579 1044 592 q 1138 538 1133 555 q 1069 370 1149 503 l 1020 293 q 920 157 973 222 l 1095 157 l 1095 252 q 1157 296 1095 273 q 1206 307 1193 309 q 1220 300 1220 306 l 1220 157 l 1350 157 q 1354 113 1365 157 q 1328 69 1343 69 l 1220 69 l 1220 -87 q 1125 -111 1220 -111 m 935 977 q 992 962 968 981 q 1023 905 1038 928 l 437 -3 q 378 16 400 -1 q 349 69 336 47 l 935 977 m 547 998 q 450 846 547 905 q 563 745 536 819 q 572 685 572 721 q 552 613 572 648 q 496 553 532 577 q 309 503 425 503 q 161 541 225 503 q 92 644 92 583 q 140 713 92 700 q 161 715 148 715 q 204 711 194 715 q 217 637 204 659 q 310 590 245 590 q 437 701 437 590 q 368 781 437 759 q 311 789 341 789 q 260 787 281 789 q 239 815 247 787 q 237 869 225 869 q 368 906 317 869 q 412 985 412 940 q 387 1052 412 1030 q 323 1073 362 1073 q 268 1066 283 1073 q 243 1048 252 1059 q 227 996 227 1029 q 188 988 208 988 q 156 993 168 988 q 134 1006 144 998 q 113 1050 113 1027 q 127 1093 113 1074 q 168 1124 141 1111 q 325 1154 228 1154 q 529 1067 477 1154 q 547 998 547 1038 z "},"":{"ha":860,"x_min":43,"x_max":778,"o":"m 43 0 m 433 737 l 433 762 q 408 781 429 773 q 380 790 386 789 q 369 790 374 790 q 357 789 363 790 q 336 774 344 785 q 304 714 318 745 q 290 647 290 684 q 304 583 290 610 q 342 536 319 557 q 395 497 365 515 l 455 463 q 563 386 534 418 q 620 241 620 322 q 561 96 620 155 q 408 36 500 36 q 209 170 237 36 q 197 241 197 224 l 197 263 q 199 292 197 284 q 138 309 164 309 q 95 300 111 309 q 66 275 78 290 q 43 200 43 243 q 59 122 43 157 q 103 58 75 87 q 169 7 132 29 q 249 -30 207 -16 q 417 -62 336 -62 q 563 -48 498 -62 q 675 1 627 -34 q 778 236 778 74 q 652 473 778 378 q 585 519 618 498 l 524 555 q 461 607 475 584 q 442 649 448 631 q 433 737 433 682 m 282 1005 q 314 924 282 957 q 393 892 345 892 q 500 960 471 892 q 509 1005 509 981 q 476 1086 509 1053 q 393 1118 444 1118 q 314 1086 345 1118 q 282 1005 282 1053 z "},"":{"ha":1124,"x_min":-11,"x_max":1136,"o":"m 0 0 m 719 80 q 762 75 747 75 q 790 78 776 75 q 814 88 804 81 q 839 135 839 103 q 823 194 839 161 l 759 352 l 330 352 l 254 159 q 243 121 243 133 q 247 103 243 109 q 258 94 250 98 q 277 87 266 90 l 305 79 q 363 66 350 72 q 389 28 389 53 q 379 -3 389 9 q 355 0 366 0 l 79 0 q -11 50 -11 0 q -1 87 -11 73 q 42 80 24 80 q 71 85 59 80 q 94 104 83 91 q 136 193 112 126 l 471 1004 q 552 1049 486 1037 q 591 1053 570 1053 q 642 1030 632 1053 l 709 861 q 936 321 905 398 l 997 161 q 1027 96 1015 109 q 1054 79 1040 84 q 1083 72 1068 75 q 1110 64 1099 68 q 1136 28 1136 52 q 1126 -3 1136 10 q 1103 1 1113 1 l 779 1 q 725 9 745 1 q 706 35 706 18 q 719 80 706 66 m 720 448 l 542 888 l 368 448 l 720 448 m 378 1197 q 359 1224 359 1204 q 366 1262 359 1244 q 385 1297 373 1280 q 446 1333 414 1333 q 476 1322 461 1333 l 711 1178 q 715 1167 715 1173 q 712 1153 715 1160 q 705 1138 709 1145 q 680 1121 693 1121 l 378 1197 z "},"":{"ha":1124,"x_min":-11,"x_max":1136,"o":"m 0 0 m 719 80 q 762 75 747 75 q 790 78 776 75 q 814 88 804 81 q 839 135 839 103 q 823 194 839 161 l 759 352 l 330 352 l 254 159 q 243 121 243 133 q 247 103 243 109 q 258 94 250 98 q 277 87 266 90 l 305 79 q 363 66 350 72 q 389 28 389 53 q 379 -3 389 9 q 355 0 366 0 l 79 0 q -11 50 -11 0 q -1 87 -11 73 q 42 80 24 80 q 71 85 59 80 q 94 104 83 91 q 136 193 112 126 l 471 1004 q 552 1049 486 1037 q 591 1053 570 1053 q 642 1030 632 1053 l 709 861 q 936 321 905 398 l 997 161 q 1027 96 1015 109 q 1054 79 1040 84 q 1083 72 1068 75 q 1110 64 1099 68 q 1136 28 1136 52 q 1126 -3 1136 10 q 1103 1 1113 1 l 779 1 q 725 9 745 1 q 706 35 706 18 q 719 80 706 66 m 720 448 l 542 888 l 368 448 l 720 448 m 490 1121 q 456 1153 470 1121 q 454 1164 454 1160 q 458 1178 454 1173 l 694 1322 q 725 1333 709 1333 q 757 1323 741 1333 q 785 1297 772 1312 q 811 1229 811 1262 q 791 1197 811 1204 l 490 1121 z "},"":{"ha":1124,"x_min":-11,"x_max":1136,"o":"m 0 0 m 719 80 q 762 75 747 75 q 790 78 776 75 q 814 88 804 81 q 839 135 839 103 q 823 194 839 161 l 759 352 l 330 352 l 254 159 q 243 121 243 133 q 247 103 243 109 q 258 94 250 98 q 277 87 266 90 l 305 79 q 363 66 350 72 q 389 28 389 53 q 379 -3 389 9 q 355 0 366 0 l 79 0 q -11 50 -11 0 q -1 87 -11 73 q 42 80 24 80 q 71 85 59 80 q 94 104 83 91 q 136 193 112 126 l 471 1004 q 552 1049 486 1037 q 591 1053 570 1053 q 642 1030 632 1053 l 709 861 q 936 321 905 398 l 997 161 q 1027 96 1015 109 q 1054 79 1040 84 q 1083 72 1068 75 q 1110 64 1099 68 q 1136 28 1136 52 q 1126 -3 1136 10 q 1103 1 1113 1 l 779 1 q 725 9 745 1 q 706 35 706 18 q 719 80 706 66 m 720 448 l 542 888 l 368 448 l 720 448 m 395 1100 q 388 1096 395 1100 q 370 1091 380 1091 q 353 1096 359 1091 q 342 1108 347 1101 q 331 1131 331 1124 q 336 1149 331 1144 l 505 1305 q 563 1335 534 1335 q 638 1305 608 1335 l 808 1149 q 812 1137 812 1144 q 809 1123 812 1131 q 802 1108 806 1116 q 775 1091 789 1091 q 747 1100 762 1091 l 571 1198 q 395 1100 410 1109 z "},"":{"ha":1124,"x_min":-11,"x_max":1136,"o":"m 0 0 m 719 80 q 762 75 747 75 q 790 78 776 75 q 814 88 804 81 q 839 135 839 103 q 823 194 839 161 l 759 352 l 330 352 l 254 159 q 243 121 243 133 q 247 103 243 109 q 258 94 250 98 q 277 87 266 90 l 305 79 q 363 66 350 72 q 389 28 389 53 q 379 -3 389 9 q 355 0 366 0 l 79 0 q -11 50 -11 0 q -1 87 -11 73 q 42 80 24 80 q 71 85 59 80 q 94 104 83 91 q 136 193 112 126 l 471 1004 q 552 1049 486 1037 q 591 1053 570 1053 q 642 1030 632 1053 l 709 861 q 936 321 905 398 l 997 161 q 1027 96 1015 109 q 1054 79 1040 84 q 1083 72 1068 75 q 1110 64 1099 68 q 1136 28 1136 52 q 1126 -3 1136 10 q 1103 1 1113 1 l 779 1 q 725 9 745 1 q 706 35 706 18 q 719 80 706 66 m 720 448 l 542 888 l 368 448 l 720 448 m 459 1205 q 334 1141 380 1205 q 290 1177 305 1149 q 285 1200 285 1187 q 299 1235 285 1213 q 338 1280 313 1258 q 480 1335 401 1335 q 536 1321 509 1335 q 589 1289 564 1306 q 640 1257 615 1272 q 691 1242 665 1242 q 811 1304 751 1242 q 859 1267 840 1304 q 863 1244 863 1257 q 849 1208 863 1230 q 810 1165 835 1185 q 680 1116 751 1116 q 591 1147 643 1116 q 511 1191 538 1177 q 459 1205 484 1205 z "},"":{"ha":1124,"x_min":-11,"x_max":1136,"o":"m 0 0 m 719 80 q 762 75 747 75 q 790 78 776 75 q 814 88 804 81 q 839 135 839 103 q 823 194 839 161 l 759 352 l 330 352 l 254 159 q 243 121 243 133 q 247 103 243 109 q 258 94 250 98 q 277 87 266 90 l 305 79 q 363 66 350 72 q 389 28 389 53 q 379 -3 389 9 q 355 0 366 0 l 79 0 q -11 50 -11 0 q -1 87 -11 73 q 42 80 24 80 q 71 85 59 80 q 94 104 83 91 q 136 193 112 126 l 471 1004 q 552 1049 486 1037 q 591 1053 570 1053 q 642 1030 632 1053 l 709 861 q 936 321 905 398 l 997 161 q 1027 96 1015 109 q 1054 79 1040 84 q 1083 72 1068 75 q 1110 64 1099 68 q 1136 28 1136 52 q 1126 -3 1136 10 q 1103 1 1113 1 l 779 1 q 725 9 745 1 q 706 35 706 18 q 719 80 706 66 m 720 448 l 542 888 l 368 448 l 720 448 m 748 1114 q 706 1121 725 1114 q 672 1141 686 1128 q 642 1218 642 1170 q 677 1297 642 1264 q 758 1328 711 1328 q 834 1299 806 1328 q 863 1222 863 1271 q 829 1145 863 1176 q 748 1114 795 1114 m 397 1114 q 355 1121 374 1114 q 321 1141 336 1128 q 292 1218 292 1170 q 326 1297 292 1264 q 408 1328 360 1328 q 484 1299 455 1328 q 512 1222 512 1271 q 478 1145 512 1176 q 397 1114 445 1114 z "},"":{"ha":1124,"x_min":-11,"x_max":1136,"o":"m 0 0 m 719 80 q 762 75 747 75 q 790 78 776 75 q 814 88 804 81 q 839 135 839 103 q 823 194 839 161 l 759 352 l 330 352 l 254 159 q 243 121 243 133 q 247 103 243 109 q 258 94 250 98 q 277 87 266 90 l 305 79 q 363 66 350 72 q 389 28 389 53 q 379 -3 389 9 q 355 0 366 0 l 79 0 q -11 50 -11 0 q -1 87 -11 73 q 42 80 24 80 q 71 85 59 80 q 94 104 83 91 q 136 193 112 126 l 471 1004 q 552 1049 486 1037 q 591 1053 570 1053 q 642 1030 632 1053 l 709 861 q 936 321 905 398 l 997 161 q 1027 96 1015 109 q 1054 79 1040 84 q 1083 72 1068 75 q 1110 64 1099 68 q 1136 28 1136 52 q 1126 -3 1136 10 q 1103 1 1113 1 l 779 1 q 725 9 745 1 q 706 35 706 18 q 719 80 706 66 m 720 448 l 542 888 l 368 448 l 720 448 m 702 1054 q 688 1043 702 1054 q 637 1019 674 1032 q 555 1006 600 1006 q 473 1018 511 1006 q 409 1051 435 1030 q 355 1169 355 1095 q 414 1283 355 1237 q 559 1329 472 1329 q 750 1236 709 1329 q 763 1172 763 1206 q 747 1106 763 1137 q 702 1054 730 1076 m 473 1170 q 562 1083 473 1083 q 623 1103 599 1083 q 648 1170 648 1124 q 624 1237 648 1215 q 571 1259 600 1259 q 526 1254 542 1259 q 498 1238 510 1249 q 473 1170 473 1215 z "},"":{"ha":1546,"x_min":23,"x_max":1489,"o":"m 629 87 q 678 81 653 81 q 721 84 703 81 q 751 98 738 87 q 782 183 782 123 l 782 399 l 440 399 l 300 172 q 283 127 283 145 q 288 103 283 109 q 302 93 293 97 q 341 81 314 87 q 383 72 369 75 q 408 62 397 68 q 429 33 429 50 q 419 -3 429 9 q 399 0 407 0 l 104 0 q 41 15 60 0 q 23 51 23 31 q 33 87 23 72 l 50 83 q 70 81 59 81 q 96 89 81 81 q 125 112 111 96 q 191 205 150 137 l 664 966 q 632 1003 632 978 q 643 1043 632 1031 q 667 1040 655 1040 l 1361 1040 q 1439 1028 1423 1040 q 1468 939 1468 1008 q 1457 830 1468 871 q 1440 781 1446 790 q 1419 766 1432 766 q 1399 768 1407 766 q 1383 774 1390 770 q 1366 789 1366 782 q 1335 913 1357 888 q 1284 947 1314 939 q 1207 956 1255 956 l 1054 956 q 966 941 982 956 q 946 908 950 927 q 942 861 942 890 l 942 496 l 981 496 q 1277 522 1162 496 q 1301 449 1301 512 q 1289 388 1301 414 q 1199 385 1256 385 q 1076 391 1143 385 l 942 406 l 942 172 q 969 104 942 121 q 1052 89 992 89 l 1157 92 q 1350 132 1306 97 q 1383 185 1375 152 q 1392 251 1392 218 q 1390 300 1392 285 q 1426 311 1406 311 q 1462 307 1455 311 q 1489 134 1489 255 q 1469 11 1489 49 q 1457 0 1463 0 l 701 0 q 642 12 666 0 q 618 42 618 24 q 629 87 618 75 m 782 496 l 782 870 q 765 926 782 907 l 499 496 l 782 496 z "},"":{"ha":988,"x_min":80,"x_max":922,"o":"m 561 -75 q 717 -182 717 -79 q 541 -327 717 -288 q 429 -340 478 -341 q 416 -305 416 -332 q 435 -274 416 -277 q 478 -267 454 -271 q 522 -254 502 -262 q 572 -201 572 -234 q 478 -152 572 -155 q 466 -137 471 -152 q 462 -121 462 -123 l 487 -10 q 189 141 297 12 q 80 470 80 269 q 123 712 80 604 q 239 896 165 820 q 412 1012 313 971 q 604 1053 511 1053 q 753 1037 697 1053 q 847 994 810 1021 q 922 846 922 939 q 869 747 922 776 q 831 736 852 736 q 772 746 789 736 q 774 802 774 765 q 760 868 774 838 q 722 916 746 899 q 593 945 679 945 q 442 914 507 945 q 332 827 376 883 q 243 523 243 715 q 334 232 243 340 q 587 119 427 119 q 831 187 743 119 q 879 231 857 208 q 912 195 899 225 q 916 172 916 185 q 906 140 916 159 q 875 100 895 121 q 825 60 854 80 q 757 24 795 40 q 570 -14 669 -12 l 561 -75 z "},"":{"ha":979,"x_min":60,"x_max":921,"o":"m 60 0 m 820 302 q 859 317 838 317 q 895 309 890 317 q 921 134 921 256 q 902 11 921 49 q 889 0 896 0 l 140 0 q 60 48 60 0 q 71 87 60 74 q 115 81 94 81 q 153 84 137 81 q 182 98 168 87 q 214 183 214 123 l 214 870 q 167 945 214 929 q 139 954 153 950 q 111 961 124 958 q 87 970 98 965 q 64 1003 64 982 q 75 1043 64 1031 q 100 1040 87 1040 l 793 1040 q 871 1028 856 1040 q 900 939 900 1008 q 889 830 900 872 q 873 780 878 788 q 846 768 866 768 q 807 775 818 768 q 796 785 797 782 q 766 909 787 882 q 714 946 744 936 q 637 956 685 956 l 486 956 q 398 941 414 956 q 378 908 382 927 q 374 861 374 890 l 374 572 l 414 571 q 692 597 564 571 q 709 571 702 593 q 717 527 717 549 q 705 463 717 490 q 602 459 660 459 q 374 478 543 459 l 374 172 q 401 104 374 121 q 484 89 425 89 l 587 92 q 780 133 735 97 q 813 186 805 153 q 821 253 821 220 q 820 302 821 287 m 334 1197 q 315 1224 315 1204 q 322 1262 315 1244 q 341 1297 329 1280 q 401 1333 370 1333 q 432 1322 417 1333 l 667 1178 q 671 1167 671 1173 q 668 1153 671 1160 q 661 1138 665 1145 q 635 1121 649 1121 l 334 1197 z "},"":{"ha":979,"x_min":60,"x_max":921,"o":"m 60 0 m 820 302 q 859 317 838 317 q 895 309 890 317 q 921 134 921 256 q 902 11 921 49 q 889 0 896 0 l 140 0 q 60 48 60 0 q 71 87 60 74 q 115 81 94 81 q 153 84 137 81 q 182 98 168 87 q 214 183 214 123 l 214 870 q 167 945 214 929 q 139 954 153 950 q 111 961 124 958 q 87 970 98 965 q 64 1003 64 982 q 75 1043 64 1031 q 100 1040 87 1040 l 793 1040 q 871 1028 856 1040 q 900 939 900 1008 q 889 830 900 872 q 873 780 878 788 q 846 768 866 768 q 807 775 818 768 q 796 785 797 782 q 766 909 787 882 q 714 946 744 936 q 637 956 685 956 l 486 956 q 398 941 414 956 q 378 908 382 927 q 374 861 374 890 l 374 572 l 414 571 q 692 597 564 571 q 709 571 702 593 q 717 527 717 549 q 705 463 717 490 q 602 459 660 459 q 374 478 543 459 l 374 172 q 401 104 374 121 q 484 89 425 89 l 587 92 q 780 133 735 97 q 813 186 805 153 q 821 253 821 220 q 820 302 821 287 m 446 1121 q 412 1153 426 1121 q 410 1164 410 1160 q 414 1178 410 1173 l 650 1322 q 681 1333 665 1333 q 713 1323 697 1333 q 741 1297 728 1312 q 767 1229 767 1262 q 747 1197 767 1204 l 446 1121 z "},"":{"ha":979,"x_min":60,"x_max":921,"o":"m 60 0 m 820 302 q 859 317 838 317 q 895 309 890 317 q 921 134 921 256 q 902 11 921 49 q 889 0 896 0 l 140 0 q 60 48 60 0 q 71 87 60 74 q 115 81 94 81 q 153 84 137 81 q 182 98 168 87 q 214 183 214 123 l 214 870 q 167 945 214 929 q 139 954 153 950 q 111 961 124 958 q 87 970 98 965 q 64 1003 64 982 q 75 1043 64 1031 q 100 1040 87 1040 l 793 1040 q 871 1028 856 1040 q 900 939 900 1008 q 889 830 900 872 q 873 780 878 788 q 846 768 866 768 q 807 775 818 768 q 796 785 797 782 q 766 909 787 882 q 714 946 744 936 q 637 956 685 956 l 486 956 q 398 941 414 956 q 378 908 382 927 q 374 861 374 890 l 374 572 l 414 571 q 692 597 564 571 q 709 571 702 593 q 717 527 717 549 q 705 463 717 490 q 602 459 660 459 q 374 478 543 459 l 374 172 q 401 104 374 121 q 484 89 425 89 l 587 92 q 780 133 735 97 q 813 186 805 153 q 821 253 821 220 q 820 302 821 287 m 351 1100 q 344 1096 351 1100 q 326 1091 336 1091 q 309 1096 315 1091 q 298 1108 302 1101 q 287 1131 287 1124 q 292 1149 287 1144 l 461 1305 q 519 1335 490 1335 q 594 1305 564 1335 l 764 1149 q 768 1137 768 1144 q 765 1123 768 1131 q 758 1108 762 1116 q 731 1091 745 1091 q 703 1100 718 1091 l 527 1198 q 351 1100 366 1109 z "},"":{"ha":979,"x_min":60,"x_max":921,"o":"m 60 0 m 820 302 q 859 317 838 317 q 895 309 890 317 q 921 134 921 256 q 902 11 921 49 q 889 0 896 0 l 140 0 q 60 48 60 0 q 71 87 60 74 q 115 81 94 81 q 153 84 137 81 q 182 98 168 87 q 214 183 214 123 l 214 870 q 167 945 214 929 q 139 954 153 950 q 111 961 124 958 q 87 970 98 965 q 64 1003 64 982 q 75 1043 64 1031 q 100 1040 87 1040 l 793 1040 q 871 1028 856 1040 q 900 939 900 1008 q 889 830 900 872 q 873 780 878 788 q 846 768 866 768 q 807 775 818 768 q 796 785 797 782 q 766 909 787 882 q 714 946 744 936 q 637 956 685 956 l 486 956 q 398 941 414 956 q 378 908 382 927 q 374 861 374 890 l 374 572 l 414 571 q 692 597 564 571 q 709 571 702 593 q 717 527 717 549 q 705 463 717 490 q 602 459 660 459 q 374 478 543 459 l 374 172 q 401 104 374 121 q 484 89 425 89 l 587 92 q 780 133 735 97 q 813 186 805 153 q 821 253 821 220 q 820 302 821 287 m 704 1114 q 662 1121 681 1114 q 628 1141 642 1128 q 598 1218 598 1170 q 633 1297 598 1264 q 714 1328 667 1328 q 790 1299 762 1328 q 819 1222 819 1271 q 785 1145 819 1176 q 704 1114 751 1114 m 353 1114 q 311 1121 330 1114 q 277 1141 292 1128 q 248 1218 248 1170 q 282 1297 248 1264 q 363 1328 316 1328 q 439 1299 411 1328 q 468 1222 468 1271 q 434 1145 468 1176 q 353 1114 401 1114 z "},"":{"ha":582,"x_min":68,"x_max":508,"o":"m 68 0 m 497 -5 q 430 0 481 0 l 147 0 q 91 11 112 0 q 70 52 70 22 q 80 87 70 74 q 130 80 107 80 q 166 85 153 80 q 189 102 179 90 q 211 186 210 127 l 211 880 q 181 947 211 933 q 155 955 172 951 q 123 962 139 958 q 96 971 107 966 q 75 1008 75 982 q 85 1045 75 1033 q 152 1040 100 1040 l 428 1040 q 485 1028 463 1040 q 506 987 506 1017 q 495 953 506 965 q 439 960 469 960 q 371 852 373 960 l 371 160 q 401 92 371 106 q 427 85 410 88 q 459 78 443 81 q 486 68 475 74 q 508 32 508 57 q 497 -5 508 8 m 88 1197 q 68 1224 68 1204 q 76 1262 68 1244 q 95 1297 83 1280 q 155 1333 123 1333 q 186 1322 171 1333 l 421 1178 q 425 1167 425 1173 q 422 1153 425 1160 q 414 1138 419 1145 q 389 1121 403 1121 l 88 1197 z "},"":{"ha":582,"x_min":70,"x_max":521,"o":"m 70 0 m 497 -5 q 430 0 481 0 l 147 0 q 91 11 112 0 q 70 52 70 22 q 80 87 70 74 q 130 80 107 80 q 166 85 153 80 q 189 102 179 90 q 211 186 210 127 l 211 880 q 181 947 211 933 q 155 955 172 951 q 123 962 139 958 q 96 971 107 966 q 75 1008 75 982 q 85 1045 75 1033 q 152 1040 100 1040 l 428 1040 q 485 1028 463 1040 q 506 987 506 1017 q 495 953 506 965 q 439 960 469 960 q 371 852 373 960 l 371 160 q 401 92 371 106 q 427 85 410 88 q 459 78 443 81 q 486 68 475 74 q 508 32 508 57 q 497 -5 508 8 m 200 1121 q 166 1153 180 1121 q 163 1164 163 1160 q 168 1178 163 1173 l 404 1322 q 435 1333 418 1333 q 467 1323 451 1333 q 494 1297 482 1312 q 521 1229 521 1262 q 501 1197 521 1204 l 200 1121 z "},"":{"ha":582,"x_min":41,"x_max":523,"o":"m 41 0 m 497 -5 q 430 0 481 0 l 147 0 q 91 11 112 0 q 70 52 70 22 q 80 87 70 74 q 130 80 107 80 q 166 85 153 80 q 189 102 179 90 q 211 186 210 127 l 211 880 q 181 947 211 933 q 155 955 172 951 q 123 962 139 958 q 96 971 107 966 q 75 1008 75 982 q 85 1045 75 1033 q 152 1040 100 1040 l 428 1040 q 485 1028 463 1040 q 506 987 506 1017 q 495 953 506 965 q 439 960 469 960 q 371 852 373 960 l 371 160 q 401 92 371 106 q 427 85 410 88 q 459 78 443 81 q 486 68 475 74 q 508 32 508 57 q 497 -5 508 8 m 106 1100 q 98 1096 106 1100 q 80 1091 91 1091 q 63 1096 70 1091 q 52 1108 57 1101 q 41 1131 41 1124 q 46 1149 41 1144 l 216 1305 q 273 1335 245 1335 q 349 1305 318 1335 l 518 1149 q 523 1137 523 1144 q 520 1123 523 1131 q 512 1108 517 1116 q 486 1091 499 1091 q 457 1100 473 1091 l 281 1198 q 106 1100 121 1109 z "},"":{"ha":582,"x_min":2,"x_max":574,"o":"m 2 0 m 497 -5 q 430 0 481 0 l 147 0 q 91 11 112 0 q 70 52 70 22 q 80 87 70 74 q 130 80 107 80 q 166 85 153 80 q 189 102 179 90 q 211 186 210 127 l 211 880 q 181 947 211 933 q 155 955 172 951 q 123 962 139 958 q 96 971 107 966 q 75 1008 75 982 q 85 1045 75 1033 q 152 1040 100 1040 l 428 1040 q 485 1028 463 1040 q 506 987 506 1017 q 495 953 506 965 q 439 960 469 960 q 371 852 373 960 l 371 160 q 401 92 371 106 q 427 85 410 88 q 459 78 443 81 q 486 68 475 74 q 508 32 508 57 q 497 -5 508 8 m 458 1114 q 416 1121 435 1114 q 382 1141 397 1128 q 353 1218 353 1170 q 388 1297 353 1264 q 469 1328 421 1328 q 545 1299 516 1328 q 574 1222 574 1271 q 540 1145 574 1176 q 458 1114 506 1114 m 108 1114 q 65 1121 85 1114 q 32 1141 46 1128 q 2 1218 2 1170 q 37 1297 2 1264 q 118 1328 71 1328 q 194 1299 165 1328 q 222 1222 222 1271 q 189 1145 222 1176 q 108 1114 155 1114 z "},"":{"ha":1170,"x_min":50,"x_max":1101,"o":"m 501 -7 l 308 1 l 133 1 q 74 13 98 1 q 50 42 50 24 q 60 87 50 75 q 110 81 85 81 q 152 84 135 81 q 183 98 170 87 q 214 183 214 123 l 214 471 l 90 471 q 83 507 83 488 q 85 538 83 526 q 92 560 87 551 q 121 581 104 581 l 214 581 l 214 874 q 136 953 214 937 q 72 975 87 963 q 58 1001 58 987 q 68 1043 58 1032 q 91 1040 81 1040 l 296 1040 q 338 1041 312 1040 l 395 1044 q 569 1048 480 1048 q 743 1027 659 1048 q 888 969 827 1006 q 990 884 949 932 q 1057 781 1031 836 q 1101 557 1101 682 q 985 183 1101 332 q 715 18 893 66 q 501 -7 623 -7 m 583 581 q 591 538 591 566 q 569 476 591 494 q 551 471 562 471 l 374 471 l 374 163 q 406 98 374 113 q 536 85 433 85 q 719 119 639 85 q 846 211 799 153 q 932 503 932 315 q 703 926 932 827 q 499 962 621 962 q 401 946 418 962 q 379 906 383 930 q 374 844 374 883 l 374 581 l 583 581 z "},"":{"ha":1217,"x_min":55,"x_max":1199,"o":"m 55 0 m 146 0 q 55 52 55 0 q 66 85 55 76 q 107 80 85 80 q 144 85 128 80 q 172 101 160 91 q 197 160 197 122 l 197 899 q 185 939 195 926 q 155 959 175 953 q 121 967 134 964 q 97 974 108 970 q 73 999 73 984 q 83 1043 73 1030 q 127 1040 98 1040 l 259 1040 q 366 979 319 1040 l 937 256 l 937 889 q 925 935 936 916 q 890 959 915 953 q 846 968 865 965 q 812 977 827 971 q 781 1012 781 987 q 791 1043 781 1032 q 835 1040 806 1040 l 1108 1040 q 1199 1001 1199 1040 q 1189 957 1199 968 q 1150 962 1172 962 q 1112 961 1128 962 q 1082 952 1095 960 q 1053 888 1054 937 l 1053 19 q 1042 -5 1053 -1 q 1002 -9 1031 -9 q 899 62 954 -9 l 313 800 l 313 151 q 368 79 316 92 q 407 72 387 75 q 441 65 426 69 q 475 34 475 56 q 465 -3 475 9 q 422 0 451 0 l 146 0 m 507 1205 q 382 1141 428 1205 q 338 1177 353 1149 q 333 1200 333 1187 q 347 1235 333 1213 q 387 1280 361 1258 q 528 1335 450 1335 q 585 1321 557 1335 q 637 1289 612 1306 q 688 1257 663 1272 q 739 1242 713 1242 q 859 1304 799 1242 q 907 1267 888 1304 q 911 1244 911 1257 q 897 1208 911 1230 q 858 1165 883 1185 q 728 1116 799 1116 q 639 1147 691 1116 q 559 1191 587 1177 q 507 1205 532 1205 z "},"":{"ha":1151,"x_min":74,"x_max":1078,"o":"m 74 0 m 211 121 q 179 153 211 121 q 110 276 146 185 q 74 470 74 368 q 94 650 74 572 q 151 791 115 728 q 236 903 186 854 q 344 985 286 952 q 600 1053 462 1053 q 940 920 808 1053 q 1078 555 1078 781 q 1001 250 1078 385 q 808 56 931 126 q 571 -13 690 -13 q 363 22 451 -13 q 211 121 275 57 m 325 830 q 305 802 325 830 q 266 694 285 774 q 247 522 247 614 q 264 354 247 430 q 321 220 282 277 q 570 94 405 94 q 823 203 737 94 q 906 507 906 310 q 727 911 906 808 q 576 947 663 947 q 427 917 488 947 q 325 830 365 886 m 388 1197 q 368 1224 368 1204 q 375 1262 368 1244 q 395 1297 382 1280 q 455 1333 423 1333 q 486 1322 471 1333 l 721 1178 q 725 1167 725 1173 q 722 1153 725 1160 q 714 1138 719 1145 q 689 1121 703 1121 l 388 1197 z "},"":{"ha":1151,"x_min":74,"x_max":1078,"o":"m 74 0 m 211 121 q 179 153 211 121 q 110 276 146 185 q 74 470 74 368 q 94 650 74 572 q 151 791 115 728 q 236 903 186 854 q 344 985 286 952 q 600 1053 462 1053 q 940 920 808 1053 q 1078 555 1078 781 q 1001 250 1078 385 q 808 56 931 126 q 571 -13 690 -13 q 363 22 451 -13 q 211 121 275 57 m 325 830 q 305 802 325 830 q 266 694 285 774 q 247 522 247 614 q 264 354 247 430 q 321 220 282 277 q 570 94 405 94 q 823 203 737 94 q 906 507 906 310 q 727 911 906 808 q 576 947 663 947 q 427 917 488 947 q 325 830 365 886 m 499 1121 q 465 1153 479 1121 q 463 1164 463 1160 q 467 1178 463 1173 l 703 1322 q 734 1333 718 1333 q 766 1323 750 1333 q 793 1297 781 1312 q 820 1229 820 1262 q 800 1197 820 1204 l 499 1121 z "},"":{"ha":1151,"x_min":74,"x_max":1078,"o":"m 74 0 m 211 121 q 179 153 211 121 q 110 276 146 185 q 74 470 74 368 q 94 650 74 572 q 151 791 115 728 q 236 903 186 854 q 344 985 286 952 q 600 1053 462 1053 q 940 920 808 1053 q 1078 555 1078 781 q 1001 250 1078 385 q 808 56 931 126 q 571 -13 690 -13 q 363 22 451 -13 q 211 121 275 57 m 325 830 q 305 802 325 830 q 266 694 285 774 q 247 522 247 614 q 264 354 247 430 q 321 220 282 277 q 570 94 405 94 q 823 203 737 94 q 906 507 906 310 q 727 911 906 808 q 576 947 663 947 q 427 917 488 947 q 325 830 365 886 m 405 1100 q 397 1096 405 1100 q 379 1091 390 1091 q 362 1096 369 1091 q 351 1108 356 1101 q 340 1131 340 1124 q 345 1149 340 1144 l 515 1305 q 572 1335 544 1335 q 648 1305 617 1335 l 817 1149 q 822 1137 822 1144 q 819 1123 822 1131 q 811 1108 816 1116 q 785 1091 798 1091 q 756 1100 772 1091 l 581 1198 q 405 1100 420 1109 z "},"":{"ha":1151,"x_min":74,"x_max":1078,"o":"m 74 0 m 211 121 q 179 153 211 121 q 110 276 146 185 q 74 470 74 368 q 94 650 74 572 q 151 791 115 728 q 236 903 186 854 q 344 985 286 952 q 600 1053 462 1053 q 940 920 808 1053 q 1078 555 1078 781 q 1001 250 1078 385 q 808 56 931 126 q 571 -13 690 -13 q 363 22 451 -13 q 211 121 275 57 m 325 830 q 305 802 325 830 q 266 694 285 774 q 247 522 247 614 q 264 354 247 430 q 321 220 282 277 q 570 94 405 94 q 823 203 737 94 q 906 507 906 310 q 727 911 906 808 q 576 947 663 947 q 427 917 488 947 q 325 830 365 886 m 469 1205 q 343 1141 389 1205 q 300 1177 315 1149 q 294 1200 294 1187 q 308 1235 294 1213 q 348 1280 322 1258 q 490 1335 411 1335 q 546 1321 519 1335 q 599 1289 573 1306 q 650 1257 625 1272 q 701 1242 675 1242 q 821 1304 760 1242 q 868 1267 849 1304 q 873 1244 873 1257 q 859 1208 873 1230 q 819 1165 844 1185 q 689 1116 760 1116 q 600 1147 652 1116 q 520 1191 548 1177 q 469 1205 493 1205 z "},"":{"ha":1151,"x_min":74,"x_max":1078,"o":"m 74 0 m 211 121 q 179 153 211 121 q 110 276 146 185 q 74 470 74 368 q 94 650 74 572 q 151 791 115 728 q 236 903 186 854 q 344 985 286 952 q 600 1053 462 1053 q 940 920 808 1053 q 1078 555 1078 781 q 1001 250 1078 385 q 808 56 931 126 q 571 -13 690 -13 q 363 22 451 -13 q 211 121 275 57 m 325 830 q 305 802 325 830 q 266 694 285 774 q 247 522 247 614 q 264 354 247 430 q 321 220 282 277 q 570 94 405 94 q 823 203 737 94 q 906 507 906 310 q 727 911 906 808 q 576 947 663 947 q 427 917 488 947 q 325 830 365 886 m 758 1114 q 715 1121 734 1114 q 682 1141 696 1128 q 652 1218 652 1170 q 687 1297 652 1264 q 768 1328 720 1328 q 844 1299 815 1328 q 873 1222 873 1271 q 839 1145 873 1176 q 758 1114 805 1114 m 407 1114 q 365 1121 384 1114 q 331 1141 345 1128 q 301 1218 301 1170 q 336 1297 301 1264 q 417 1328 370 1328 q 493 1299 465 1328 q 522 1222 522 1271 q 488 1145 522 1176 q 407 1114 454 1114 z "},"":{"ha":747,"x_min":94,"x_max":652,"o":"m 181 228 q 121 279 147 241 q 112 336 94 319 l 285 510 l 115 681 q 108 701 108 690 q 116 727 108 712 q 134 754 123 741 q 184 790 159 783 l 373 600 l 563 790 q 606 762 587 783 q 639 707 639 724 q 631 681 639 690 l 462 510 l 635 336 q 625 279 652 318 q 566 228 600 241 l 373 421 l 181 228 z "},"":{"ha":1151,"x_min":74,"x_max":1078,"o":"m 825 1002 l 881 1094 q 914 1112 893 1112 q 977 1081 955 1112 l 901 954 q 1030 789 983 890 q 1078 577 1078 688 q 1057 390 1078 467 q 1001 250 1037 313 q 916 138 965 186 q 808 56 866 89 q 565 -13 690 -13 q 342 31 439 -13 l 288 -60 q 252 -78 274 -78 q 191 -47 208 -78 l 264 75 q 87 353 126 175 q 74 492 74 413 q 94 650 74 572 q 151 791 115 728 q 236 903 186 854 q 344 985 286 952 q 592 1053 462 1053 q 825 1002 722 1053 m 758 891 q 584 947 680 947 q 427 917 488 947 q 325 830 365 886 q 247 515 247 720 q 338 197 247 308 l 758 891 m 407 136 q 565 94 475 94 q 718 122 655 94 q 823 203 781 151 q 906 507 906 310 q 823 825 906 708 l 407 136 z "},"":{"ha":1107,"x_min":18,"x_max":1095,"o":"m 18 0 m 1028 960 q 975 853 977 960 l 975 446 q 864 104 975 222 q 554 -13 755 -13 q 274 73 383 -13 q 136 431 136 181 l 136 898 q 129 939 135 927 q 103 954 123 950 q 67 962 83 958 q 40 971 51 966 q 18 1008 18 982 q 29 1045 18 1031 q 96 1040 45 1040 l 359 1040 q 437 987 437 1040 q 427 953 437 964 q 379 960 401 960 q 344 955 357 960 q 320 937 331 949 q 296 846 296 907 l 296 479 q 380 178 296 269 q 560 108 445 108 q 852 471 852 108 l 852 880 q 822 947 852 933 q 796 955 812 951 q 763 962 779 958 q 736 971 747 966 q 715 1008 715 982 q 726 1045 715 1033 q 793 1040 741 1040 l 1018 1040 q 1074 1029 1053 1040 q 1095 988 1095 1018 q 1085 954 1095 965 q 1028 960 1058 960 m 379 1197 q 359 1224 359 1204 q 367 1262 359 1244 q 386 1297 374 1280 q 446 1333 414 1333 q 477 1322 462 1333 l 712 1178 q 716 1167 716 1173 q 713 1153 716 1160 q 705 1138 710 1145 q 680 1121 694 1121 l 379 1197 z "},"":{"ha":1107,"x_min":18,"x_max":1095,"o":"m 18 0 m 1028 960 q 975 853 977 960 l 975 446 q 864 104 975 222 q 554 -13 755 -13 q 274 73 383 -13 q 136 431 136 181 l 136 898 q 129 939 135 927 q 103 954 123 950 q 67 962 83 958 q 40 971 51 966 q 18 1008 18 982 q 29 1045 18 1031 q 96 1040 45 1040 l 359 1040 q 437 987 437 1040 q 427 953 437 964 q 379 960 401 960 q 344 955 357 960 q 320 937 331 949 q 296 846 296 907 l 296 479 q 380 178 296 269 q 560 108 445 108 q 852 471 852 108 l 852 880 q 822 947 852 933 q 796 955 812 951 q 763 962 779 958 q 736 971 747 966 q 715 1008 715 982 q 726 1045 715 1033 q 793 1040 741 1040 l 1018 1040 q 1074 1029 1053 1040 q 1095 988 1095 1018 q 1085 954 1095 965 q 1028 960 1058 960 m 491 1121 q 457 1153 471 1121 q 454 1164 454 1160 q 459 1178 454 1173 l 694 1322 q 726 1333 709 1333 q 758 1323 742 1333 q 785 1297 773 1312 q 812 1229 812 1262 q 792 1197 812 1204 l 491 1121 z "},"":{"ha":1107,"x_min":18,"x_max":1095,"o":"m 18 0 m 1028 960 q 975 853 977 960 l 975 446 q 864 104 975 222 q 554 -13 755 -13 q 274 73 383 -13 q 136 431 136 181 l 136 898 q 129 939 135 927 q 103 954 123 950 q 67 962 83 958 q 40 971 51 966 q 18 1008 18 982 q 29 1045 18 1031 q 96 1040 45 1040 l 359 1040 q 437 987 437 1040 q 427 953 437 964 q 379 960 401 960 q 344 955 357 960 q 320 937 331 949 q 296 846 296 907 l 296 479 q 380 178 296 269 q 560 108 445 108 q 852 471 852 108 l 852 880 q 822 947 852 933 q 796 955 812 951 q 763 962 779 958 q 736 971 747 966 q 715 1008 715 982 q 726 1045 715 1033 q 793 1040 741 1040 l 1018 1040 q 1074 1029 1053 1040 q 1095 988 1095 1018 q 1085 954 1095 965 q 1028 960 1058 960 m 396 1100 q 389 1096 396 1100 q 371 1091 381 1091 q 354 1096 360 1091 q 342 1108 347 1101 q 332 1131 332 1124 q 336 1149 332 1144 l 506 1305 q 564 1335 535 1335 q 639 1305 608 1335 l 808 1149 q 813 1137 813 1144 q 810 1123 813 1131 q 802 1108 807 1116 q 776 1091 789 1091 q 747 1100 763 1091 l 572 1198 q 396 1100 411 1109 z "},"":{"ha":1107,"x_min":18,"x_max":1095,"o":"m 18 0 m 1028 960 q 975 853 977 960 l 975 446 q 864 104 975 222 q 554 -13 755 -13 q 274 73 383 -13 q 136 431 136 181 l 136 898 q 129 939 135 927 q 103 954 123 950 q 67 962 83 958 q 40 971 51 966 q 18 1008 18 982 q 29 1045 18 1031 q 96 1040 45 1040 l 359 1040 q 437 987 437 1040 q 427 953 437 964 q 379 960 401 960 q 344 955 357 960 q 320 937 331 949 q 296 846 296 907 l 296 479 q 380 178 296 269 q 560 108 445 108 q 852 471 852 108 l 852 880 q 822 947 852 933 q 796 955 812 951 q 763 962 779 958 q 736 971 747 966 q 715 1008 715 982 q 726 1045 715 1033 q 793 1040 741 1040 l 1018 1040 q 1074 1029 1053 1040 q 1095 988 1095 1018 q 1085 954 1095 965 q 1028 960 1058 960 m 749 1114 q 706 1121 726 1114 q 673 1141 687 1128 q 643 1218 643 1170 q 678 1297 643 1264 q 759 1328 711 1328 q 835 1299 806 1328 q 864 1222 864 1271 q 830 1145 864 1176 q 749 1114 796 1114 m 398 1114 q 356 1121 375 1114 q 322 1141 336 1128 q 292 1218 292 1170 q 327 1297 292 1264 q 408 1328 361 1328 q 484 1299 456 1328 q 513 1222 513 1271 q 479 1145 513 1176 q 398 1114 446 1114 z "},"":{"ha":1009,"x_min":-7,"x_max":1021,"o":"m 0 0 m 349 0 q 271 51 271 0 q 281 87 271 74 q 333 80 307 80 q 375 83 358 80 q 404 98 391 87 q 432 186 431 122 l 432 357 l 105 899 q 60 952 78 943 q 31 965 41 962 q 12 974 20 968 q -7 1004 -7 985 q 4 1045 -7 1031 q 71 1040 20 1040 l 316 1040 q 400 1018 382 1040 q 409 987 409 1008 q 396 952 409 966 q 345 959 373 959 q 288 916 288 959 q 316 840 288 884 l 534 464 q 655 672 617 603 l 719 791 q 766 891 763 877 q 770 915 770 906 q 765 930 770 924 q 751 942 760 937 q 733 948 743 946 q 709 954 723 951 q 678 961 694 958 q 650 970 662 964 q 623 1008 623 981 q 633 1045 623 1035 q 700 1040 648 1040 l 935 1040 q 1013 1017 996 1040 q 1021 993 1021 1007 q 1008 952 1021 966 q 969 959 985 959 q 940 949 953 959 q 915 921 927 939 q 891 880 903 903 q 831 767 853 806 q 609 388 616 401 l 592 359 l 592 160 q 656 91 592 102 q 748 70 734 79 q 772 31 772 56 q 762 -5 772 8 q 694 0 746 0 l 349 0 m 433 1121 q 399 1153 413 1121 q 397 1164 397 1160 q 401 1178 397 1173 l 637 1322 q 668 1333 652 1333 q 700 1323 684 1333 q 728 1297 715 1312 q 754 1229 754 1262 q 734 1197 754 1204 l 433 1121 z "},"":{"ha":969,"x_min":64,"x_max":936,"o":"m 496 -5 q 429 0 480 0 l 153 0 q 96 11 117 0 q 75 52 75 22 q 85 87 75 74 q 135 80 111 80 q 172 85 159 80 q 195 103 186 90 q 216 193 216 130 l 216 880 q 202 930 216 917 q 157 954 182 949 l 115 963 q 73 982 81 970 q 64 1006 64 994 q 75 1043 64 1029 q 111 1039 85 1039 l 142 1040 l 427 1040 q 505 987 505 1040 q 494 953 505 965 q 445 960 468 960 q 411 955 422 960 q 392 939 399 950 q 376 859 378 916 l 376 836 l 530 837 q 913 663 836 837 q 936 555 936 610 q 925 461 936 500 q 890 388 914 423 q 828 322 866 353 q 734 269 789 292 q 438 220 616 220 l 376 220 l 376 160 q 384 109 376 120 q 418 86 395 91 q 458 78 442 81 q 485 68 474 74 q 507 32 507 58 q 496 -5 507 8 m 444 308 q 751 431 691 308 q 770 505 770 469 q 765 568 770 541 q 747 621 760 595 q 714 671 734 647 q 665 713 694 695 q 498 753 597 753 l 376 753 l 376 308 l 444 308 z "},"":{"ha":901,"x_min":105,"x_max":874,"o":"m 315 31 q 209 -13 269 -13 q 127 18 149 -13 q 105 117 105 49 l 105 738 q 232 1093 105 972 q 497 1194 339 1194 q 777 1057 707 1194 q 800 956 800 1012 q 782 861 800 900 q 736 792 764 822 q 677 739 709 762 l 618 696 q 573 655 591 675 q 555 613 555 635 q 561 576 555 592 q 581 544 566 559 q 670 476 607 514 q 770 411 732 439 q 830 355 807 383 q 874 238 874 303 q 847 127 874 173 q 776 50 819 81 q 566 -13 687 -13 q 406 30 452 -13 q 385 71 385 48 q 390 109 385 94 q 404 137 395 123 q 440 175 421 164 q 597 90 522 90 q 689 118 652 90 q 727 192 727 148 q 690 266 727 232 q 593 335 660 294 q 494 405 526 376 q 442 462 461 434 q 410 564 410 511 q 427 652 410 618 q 469 714 444 686 q 524 767 494 743 q 578 818 553 791 q 637 945 637 880 q 481 1084 637 1084 q 321 994 379 1084 q 263 752 263 905 l 263 293 q 299 64 263 158 q 315 31 308 41 z "},"":{"ha":846,"x_min":74,"x_max":828,"o":"m 74 0 m 553 86 q 313 -13 454 -13 q 140 50 205 -13 q 74 213 74 113 q 185 400 74 338 q 468 457 286 457 l 553 457 q 553 507 553 483 l 553 558 q 527 686 553 649 q 425 728 497 728 q 256 610 260 728 q 256 580 255 592 q 211 569 243 569 q 164 576 178 569 q 138 597 149 584 q 115 664 115 623 q 139 736 115 705 q 205 787 163 767 q 395 827 286 827 q 561 805 505 827 q 648 749 616 784 q 706 581 706 686 l 699 256 q 708 143 699 167 q 728 111 716 119 q 757 103 740 103 q 785 109 774 103 l 804 117 q 821 110 814 121 q 828 90 828 98 q 821 68 828 81 q 794 39 814 54 q 751 12 775 24 q 567 42 616 -52 q 553 86 557 60 m 551 175 q 552 369 551 273 q 360 351 411 363 q 288 327 310 338 q 252 300 265 315 q 231 222 231 274 q 268 139 231 170 q 373 109 304 109 q 551 175 470 109 m 130 1063 q 116 1085 116 1070 q 127 1121 116 1101 q 155 1158 138 1141 q 235 1200 197 1200 q 270 1185 255 1200 l 486 968 q 491 957 491 964 q 487 943 491 950 q 475 929 483 936 q 439 913 458 913 l 130 1063 z "},"":{"ha":846,"x_min":74,"x_max":828,"o":"m 74 0 m 553 86 q 313 -13 454 -13 q 140 50 205 -13 q 74 213 74 113 q 185 400 74 338 q 468 457 286 457 l 553 457 q 553 507 553 483 l 553 558 q 527 686 553 649 q 425 728 497 728 q 256 610 260 728 q 256 580 255 592 q 211 569 243 569 q 164 576 178 569 q 138 597 149 584 q 115 664 115 623 q 139 736 115 705 q 205 787 163 767 q 395 827 286 827 q 561 805 505 827 q 648 749 616 784 q 706 581 706 686 l 699 256 q 708 143 699 167 q 728 111 716 119 q 757 103 740 103 q 785 109 774 103 l 804 117 q 821 110 814 121 q 828 90 828 98 q 821 68 828 81 q 794 39 814 54 q 751 12 775 24 q 567 42 616 -52 q 553 86 557 60 m 551 175 q 552 369 551 273 q 360 351 411 363 q 288 327 310 338 q 252 300 265 315 q 231 222 231 274 q 268 139 231 170 q 373 109 304 109 q 551 175 470 109 m 385 913 q 353 925 366 913 q 333 950 333 943 q 337 968 333 963 l 554 1185 q 589 1200 569 1200 q 630 1188 609 1200 q 669 1158 651 1176 q 707 1086 707 1118 q 694 1063 707 1070 l 385 913 z "},"":{"ha":846,"x_min":74,"x_max":828,"o":"m 74 0 m 553 86 q 313 -13 454 -13 q 140 50 205 -13 q 74 213 74 113 q 185 400 74 338 q 468 457 286 457 l 553 457 q 553 507 553 483 l 553 558 q 527 686 553 649 q 425 728 497 728 q 256 610 260 728 q 256 580 255 592 q 211 569 243 569 q 164 576 178 569 q 138 597 149 584 q 115 664 115 623 q 139 736 115 705 q 205 787 163 767 q 395 827 286 827 q 561 805 505 827 q 648 749 616 784 q 706 581 706 686 l 699 256 q 708 143 699 167 q 728 111 716 119 q 757 103 740 103 q 785 109 774 103 l 804 117 q 821 110 814 121 q 828 90 828 98 q 821 68 828 81 q 794 39 814 54 q 751 12 775 24 q 567 42 616 -52 q 553 86 557 60 m 551 175 q 552 369 551 273 q 360 351 411 363 q 288 327 310 338 q 252 300 265 315 q 231 222 231 274 q 268 139 231 170 q 373 109 304 109 q 551 175 470 109 m 281 942 q 229 916 248 916 q 198 928 210 916 q 186 945 186 939 q 191 962 186 958 l 348 1169 q 414 1200 365 1200 q 486 1169 463 1200 l 642 962 q 647 948 647 957 q 635 928 647 939 q 607 916 623 916 q 577 924 590 916 q 552 942 565 932 l 416 1050 l 281 942 z "},"":{"ha":846,"x_min":74,"x_max":828,"o":"m 74 0 m 553 86 q 313 -13 454 -13 q 140 50 205 -13 q 74 213 74 113 q 185 400 74 338 q 468 457 286 457 l 553 457 q 553 507 553 483 l 553 558 q 527 686 553 649 q 425 728 497 728 q 256 610 260 728 q 256 580 255 592 q 211 569 243 569 q 164 576 178 569 q 138 597 149 584 q 115 664 115 623 q 139 736 115 705 q 205 787 163 767 q 395 827 286 827 q 561 805 505 827 q 648 749 616 784 q 706 581 706 686 l 699 256 q 708 143 699 167 q 728 111 716 119 q 757 103 740 103 q 785 109 774 103 l 804 117 q 821 110 814 121 q 828 90 828 98 q 821 68 828 81 q 794 39 814 54 q 751 12 775 24 q 567 42 616 -52 q 553 86 557 60 m 551 175 q 552 369 551 273 q 360 351 411 363 q 288 327 310 338 q 252 300 265 315 q 231 222 231 274 q 268 139 231 170 q 373 109 304 109 q 551 175 470 109 m 273 1036 q 140 950 195 1036 q 99 1000 99 962 q 160 1104 99 1043 q 305 1173 229 1173 q 376 1155 346 1173 q 424 1125 406 1137 q 459 1101 441 1112 q 546 1076 501 1076 q 674 1164 616 1076 q 712 1131 700 1164 q 715 1109 715 1121 q 707 1080 715 1098 q 685 1044 699 1063 q 652 1006 671 1025 q 609 972 632 987 q 522 941 559 941 q 465 948 486 941 q 426 965 444 955 q 391 988 408 976 q 355 1012 374 1001 q 273 1036 313 1036 z "},"":{"ha":846,"x_min":74,"x_max":828,"o":"m 74 0 m 553 86 q 313 -13 454 -13 q 140 50 205 -13 q 74 213 74 113 q 185 400 74 338 q 468 457 286 457 l 553 457 q 553 507 553 483 l 553 558 q 527 686 553 649 q 425 728 497 728 q 256 610 260 728 q 256 580 255 592 q 211 569 243 569 q 164 576 178 569 q 138 597 149 584 q 115 664 115 623 q 139 736 115 705 q 205 787 163 767 q 395 827 286 827 q 561 805 505 827 q 648 749 616 784 q 706 581 706 686 l 699 256 q 708 143 699 167 q 728 111 716 119 q 757 103 740 103 q 785 109 774 103 l 804 117 q 821 110 814 121 q 828 90 828 98 q 821 68 828 81 q 794 39 814 54 q 751 12 775 24 q 567 42 616 -52 q 553 86 557 60 m 551 175 q 552 369 551 273 q 360 351 411 363 q 288 327 310 338 q 252 300 265 315 q 231 222 231 274 q 268 139 231 170 q 373 109 304 109 q 551 175 470 109 m 576 950 q 534 957 553 950 q 500 978 515 964 q 471 1055 471 1006 q 505 1133 471 1101 q 587 1164 540 1164 q 663 1136 635 1164 q 692 1059 692 1107 q 657 981 692 1013 q 576 950 624 950 m 233 950 q 190 957 210 950 q 157 978 171 964 q 127 1055 127 1006 q 162 1133 127 1101 q 243 1164 196 1164 q 319 1136 291 1164 q 348 1059 348 1107 q 314 981 348 1013 q 233 950 280 950 z "},"":{"ha":846,"x_min":74,"x_max":828,"o":"m 74 0 m 553 86 q 313 -13 454 -13 q 140 50 205 -13 q 74 213 74 113 q 185 400 74 338 q 468 457 286 457 l 553 457 q 553 507 553 483 l 553 558 q 527 686 553 649 q 425 728 497 728 q 256 610 260 728 q 256 580 255 592 q 211 569 243 569 q 164 576 178 569 q 138 597 149 584 q 115 664 115 623 q 139 736 115 705 q 205 787 163 767 q 395 827 286 827 q 561 805 505 827 q 648 749 616 784 q 706 581 706 686 l 699 256 q 708 143 699 167 q 728 111 716 119 q 757 103 740 103 q 785 109 774 103 l 804 117 q 821 110 814 121 q 828 90 828 98 q 821 68 828 81 q 794 39 814 54 q 751 12 775 24 q 567 42 616 -52 q 553 86 557 60 m 551 175 q 552 369 551 273 q 360 351 411 363 q 288 327 310 338 q 252 300 265 315 q 231 222 231 274 q 268 139 231 170 q 373 109 304 109 q 551 175 470 109 m 406 909 q 359 909 406 909 q 260 956 312 909 q 209 1084 209 1002 q 267 1207 209 1157 q 413 1257 325 1257 q 604 1156 563 1257 q 616 1086 616 1124 q 557 959 616 1009 q 406 909 499 909 m 326 1085 q 416 985 326 985 q 501 1086 501 985 q 477 1162 501 1137 q 424 1187 453 1187 q 379 1181 395 1187 q 352 1163 363 1175 q 326 1085 326 1137 z "},"":{"ha":1302,"x_min":74,"x_max":1223,"o":"m 621 121 q 313 -13 495 -13 q 140 50 205 -13 q 74 213 74 113 q 179 400 74 338 q 454 457 275 457 l 553 457 l 553 562 q 522 694 553 657 q 418 728 492 728 q 278 677 319 728 q 256 580 250 641 q 211 569 243 569 q 164 576 178 569 q 138 597 149 584 q 115 665 115 623 q 139 738 115 707 q 203 788 163 768 q 414 827 283 827 q 678 707 615 827 q 809 797 737 767 q 955 827 882 827 q 1079 797 1027 827 q 1162 716 1131 766 q 1223 462 1223 620 q 1173 401 1223 403 l 701 391 l 701 373 q 780 170 708 237 q 934 114 840 114 q 1168 174 1078 114 q 1183 164 1175 174 q 1200 129 1200 144 q 1119 45 1200 96 q 901 -13 1026 -13 q 621 121 713 -13 m 704 479 q 1061 504 899 488 q 912 720 1069 720 q 769 652 825 720 q 704 479 718 589 m 555 160 l 554 347 q 553 358 553 353 l 553 368 q 288 328 355 362 q 242 286 254 311 q 231 217 231 262 q 268 141 231 173 q 386 109 304 109 q 555 160 467 109 z "},"":{"ha":769,"x_min":77,"x_max":711,"o":"m 444 -75 q 600 -181 600 -78 q 425 -327 600 -288 q 312 -339 361 -340 q 299 -304 299 -331 q 318 -273 299 -276 q 361 -266 338 -271 q 406 -253 385 -261 q 455 -200 455 -233 q 361 -151 455 -155 q 350 -137 354 -151 q 345 -120 345 -122 l 370 -9 q 159 109 238 9 q 77 376 77 212 q 205 712 77 585 q 473 827 321 827 q 639 784 572 827 q 709 666 709 739 q 691 606 709 626 q 620 570 661 570 q 560 579 580 570 l 561 604 q 555 647 561 616 q 516 698 549 678 q 432 718 483 718 q 343 692 382 718 q 279 624 304 667 q 233 406 233 543 q 296 197 233 277 q 464 114 359 114 q 646 166 559 114 q 678 189 667 179 q 694 178 685 189 q 711 146 711 158 q 702 120 711 134 q 677 90 693 106 q 638 57 661 74 q 587 26 615 40 q 454 -12 522 -7 l 444 -75 z "},"":{"ha":820,"x_min":73,"x_max":743,"o":"m 73 0 m 73 365 q 90 511 73 447 q 136 625 107 574 q 204 713 165 675 q 288 777 243 751 q 461 827 376 827 q 598 797 547 827 q 682 716 650 766 q 743 462 743 621 q 693 401 743 403 l 220 391 q 296 174 224 244 q 454 114 357 114 q 688 174 598 114 q 703 164 694 174 q 720 129 720 144 q 639 45 720 96 q 420 -13 545 -13 q 165 91 258 -13 q 73 365 73 193 m 224 479 q 581 504 419 488 q 432 720 589 720 q 289 652 345 720 q 224 479 238 589 m 158 1063 q 144 1085 144 1070 q 156 1121 144 1101 q 184 1158 167 1141 q 263 1200 226 1200 q 298 1185 283 1200 l 515 968 q 519 957 519 964 q 515 943 519 950 q 504 929 511 936 q 467 913 487 913 l 158 1063 z "},"":{"ha":820,"x_min":73,"x_max":743,"o":"m 73 0 m 73 365 q 90 511 73 447 q 136 625 107 574 q 204 713 165 675 q 288 777 243 751 q 461 827 376 827 q 598 797 547 827 q 682 716 650 766 q 743 462 743 621 q 693 401 743 403 l 220 391 q 296 174 224 244 q 454 114 357 114 q 688 174 598 114 q 703 164 694 174 q 720 129 720 144 q 639 45 720 96 q 420 -13 545 -13 q 165 91 258 -13 q 73 365 73 193 m 224 479 q 581 504 419 488 q 432 720 589 720 q 289 652 345 720 q 224 479 238 589 m 414 913 q 382 925 395 913 q 362 950 362 943 q 366 968 362 963 l 583 1185 q 618 1200 598 1200 q 659 1188 638 1200 q 698 1158 680 1176 q 736 1086 736 1118 q 723 1063 736 1070 l 414 913 z "},"":{"ha":820,"x_min":73,"x_max":743,"o":"m 73 0 m 73 365 q 90 511 73 447 q 136 625 107 574 q 204 713 165 675 q 288 777 243 751 q 461 827 376 827 q 598 797 547 827 q 682 716 650 766 q 743 462 743 621 q 693 401 743 403 l 220 391 q 296 174 224 244 q 454 114 357 114 q 688 174 598 114 q 703 164 694 174 q 720 129 720 144 q 639 45 720 96 q 420 -13 545 -13 q 165 91 258 -13 q 73 365 73 193 m 224 479 q 581 504 419 488 q 432 720 589 720 q 289 652 345 720 q 224 479 238 589 m 311 942 q 258 916 277 916 q 228 928 239 916 q 216 945 216 939 q 220 962 216 958 l 377 1169 q 444 1200 394 1200 q 515 1169 492 1200 l 671 962 q 676 948 676 957 q 664 928 676 939 q 636 916 652 916 q 607 924 619 916 q 581 942 594 932 l 446 1050 l 311 942 z "},"":{"ha":820,"x_min":73,"x_max":743,"o":"m 73 0 m 73 365 q 90 511 73 447 q 136 625 107 574 q 204 713 165 675 q 288 777 243 751 q 461 827 376 827 q 598 797 547 827 q 682 716 650 766 q 743 462 743 621 q 693 401 743 403 l 220 391 q 296 174 224 244 q 454 114 357 114 q 688 174 598 114 q 703 164 694 174 q 720 129 720 144 q 639 45 720 96 q 420 -13 545 -13 q 165 91 258 -13 q 73 365 73 193 m 224 479 q 581 504 419 488 q 432 720 589 720 q 289 652 345 720 q 224 479 238 589 m 605 950 q 563 957 582 950 q 529 978 543 964 q 499 1055 499 1006 q 534 1133 499 1101 q 616 1164 568 1164 q 692 1136 663 1164 q 720 1059 720 1107 q 686 981 720 1013 q 605 950 652 950 m 261 950 q 219 957 238 950 q 185 978 199 964 q 155 1055 155 1006 q 191 1133 155 1101 q 272 1164 224 1164 q 348 1136 319 1164 q 376 1059 376 1107 q 342 981 376 1013 q 261 950 309 950 z "},"":{"ha":486,"x_min":-63,"x_max":455,"o":"m 0 0 m 185 0 q 81 47 81 0 q 92 85 81 72 q 128 80 108 80 q 165 95 149 80 q 183 151 182 110 l 183 614 q 170 681 183 662 q 123 699 157 699 q 77 693 98 699 q 60 712 65 692 q 65 744 55 730 q 97 773 75 758 q 144 800 118 789 q 237 827 199 827 q 292 816 274 827 q 319 787 310 805 q 334 690 334 757 l 334 149 q 373 83 336 95 q 398 77 383 80 q 425 71 413 75 q 444 62 437 67 q 455 34 455 54 q 445 -3 455 9 q 401 0 431 0 l 185 0 m -50 1063 q -63 1085 -63 1070 q -52 1121 -63 1101 q -24 1158 -41 1141 q 56 1200 18 1200 q 91 1185 76 1200 l 307 968 q 312 957 312 964 q 308 943 312 950 q 296 929 304 936 q 260 913 279 913 l -50 1063 z "},"":{"ha":486,"x_min":55,"x_max":528,"o":"m 60 0 m 185 0 q 81 47 81 0 q 92 85 81 72 q 128 80 108 80 q 165 95 149 80 q 183 151 182 110 l 183 614 q 170 681 183 662 q 123 699 157 699 q 77 693 98 699 q 60 712 65 692 q 65 744 55 730 q 97 773 75 758 q 144 800 118 789 q 237 827 199 827 q 292 816 274 827 q 319 787 310 805 q 334 690 334 757 l 334 149 q 373 83 336 95 q 398 77 383 80 q 425 71 413 75 q 444 62 437 67 q 455 34 455 54 q 445 -3 455 9 q 401 0 431 0 l 185 0 m 205 913 q 174 925 186 913 q 153 950 153 943 q 157 968 153 963 l 374 1185 q 409 1200 389 1200 q 450 1188 429 1200 q 489 1158 471 1176 q 528 1086 528 1118 q 514 1063 528 1070 l 205 913 z "},"":{"ha":486,"x_min":8,"x_max":469,"o":"m 8 0 m 185 0 q 81 47 81 0 q 92 85 81 72 q 128 80 108 80 q 165 95 149 80 q 183 151 182 110 l 183 614 q 170 681 183 662 q 123 699 157 699 q 77 693 98 699 q 60 712 65 692 q 65 744 55 730 q 97 773 75 758 q 144 800 118 789 q 237 827 199 827 q 292 816 274 827 q 319 787 310 805 q 334 690 334 757 l 334 149 q 373 83 336 95 q 398 77 383 80 q 425 71 413 75 q 444 62 437 67 q 455 34 455 54 q 445 -3 455 9 q 401 0 431 0 l 185 0 m 103 942 q 51 916 70 916 q 20 928 32 916 q 8 945 8 939 q 13 962 8 958 l 170 1169 q 236 1200 186 1200 q 308 1169 284 1200 l 464 962 q 469 948 469 957 q 457 928 469 939 q 428 916 445 916 q 399 924 412 916 q 374 942 387 932 l 238 1050 l 103 942 z "},"":{"ha":486,"x_min":-52,"x_max":513,"o":"m 0 0 m 185 0 q 81 47 81 0 q 92 85 81 72 q 128 80 108 80 q 165 95 149 80 q 183 151 182 110 l 183 614 q 170 681 183 662 q 123 699 157 699 q 77 693 98 699 q 60 712 65 692 q 65 744 55 730 q 97 773 75 758 q 144 800 118 789 q 237 827 199 827 q 292 816 274 827 q 319 787 310 805 q 334 690 334 757 l 334 149 q 373 83 336 95 q 398 77 383 80 q 425 71 413 75 q 444 62 437 67 q 455 34 455 54 q 445 -3 455 9 q 401 0 431 0 l 185 0 m 397 950 q 355 957 374 950 q 321 978 336 964 q 292 1055 292 1006 q 326 1133 292 1101 q 408 1164 361 1164 q 484 1136 456 1164 q 513 1059 513 1107 q 478 981 513 1013 q 397 950 445 950 m 54 950 q 11 957 31 950 q -22 978 -8 964 q -52 1055 -52 1006 q -17 1133 -52 1101 q 64 1164 17 1164 q 140 1136 112 1164 q 169 1059 169 1107 q 135 981 169 1013 q 54 950 101 950 z "},"":{"ha":873,"x_min":60,"x_max":806,"o":"m 217 1240 q 434 1179 319 1240 l 515 1262 q 544 1274 530 1274 q 570 1270 559 1274 q 591 1259 581 1266 q 622 1221 612 1244 l 523 1122 q 783 707 720 970 q 806 489 806 612 q 777 269 806 366 q 694 109 747 172 q 411 -13 590 -13 q 143 110 237 -13 q 60 387 60 218 q 183 720 60 601 q 423 822 288 822 q 619 742 545 822 q 444 1042 575 936 l 356 959 q 325 945 340 945 q 297 950 309 945 q 275 962 286 955 q 250 998 254 979 l 356 1099 q 210 1154 292 1131 l 166 1166 q 159 1179 159 1168 q 165 1204 159 1191 q 217 1240 180 1240 m 427 98 q 524 121 480 98 q 595 191 568 144 q 646 471 646 280 q 640 616 646 547 q 574 681 608 662 q 457 713 515 713 q 359 692 399 713 q 289 629 319 670 q 224 391 224 541 q 279 179 224 262 q 427 98 333 98 z "},"":{"ha":998,"x_min":60,"x_max":969,"o":"m 60 0 m 438 -3 q 395 0 425 0 l 178 0 q 95 23 113 0 q 87 43 87 32 q 98 85 87 72 q 135 80 115 80 q 166 97 156 80 q 176 160 177 114 l 176 604 q 153 683 176 667 q 127 689 143 689 q 103 684 112 689 q 88 677 94 680 q 78 678 82 675 q 70 685 74 680 q 60 708 60 696 q 68 733 60 720 q 96 763 77 746 q 139 795 115 781 q 249 827 194 827 q 323 743 312 827 q 328 693 327 719 q 547 814 429 778 q 634 827 590 827 q 717 815 677 827 q 786 778 757 804 q 848 608 848 724 l 848 149 q 887 83 850 96 q 912 77 897 80 q 939 71 927 75 q 958 62 951 67 q 969 34 969 54 q 958 -3 969 10 q 915 0 945 0 l 699 0 q 615 23 633 0 q 608 43 608 32 q 618 85 608 72 q 649 80 635 80 q 672 84 663 80 q 687 96 682 87 q 696 160 696 113 l 696 560 q 628 689 696 675 q 575 693 607 693 q 506 684 544 693 q 435 659 468 674 q 328 587 371 631 l 328 149 q 366 83 330 96 q 392 77 377 80 q 418 71 406 75 q 437 62 431 67 q 449 34 449 54 q 438 -3 449 10 m 357 1036 q 224 950 279 1036 q 183 1000 183 962 q 244 1104 183 1043 q 389 1173 313 1173 q 460 1155 430 1173 q 508 1125 490 1137 q 543 1101 525 1112 q 630 1076 585 1076 q 758 1164 700 1076 q 796 1131 784 1164 q 800 1109 800 1121 q 791 1080 800 1098 q 769 1044 783 1063 q 736 1006 755 1025 q 693 972 716 987 q 606 941 643 941 q 549 948 570 941 q 510 965 528 955 q 475 988 492 976 q 439 1012 458 1001 q 357 1036 397 1036 z "},"":{"ha":861,"x_min":67,"x_max":794,"o":"m 67 0 m 67 374 q 83 523 67 457 q 128 639 100 589 q 195 725 157 689 q 278 783 234 760 q 467 827 364 827 q 692 730 600 827 q 794 451 794 625 q 670 96 794 223 q 412 -13 562 -13 q 159 98 254 -13 q 67 374 67 204 m 452 98 q 533 119 497 98 q 594 178 569 140 q 644 378 644 255 q 591 609 644 514 q 420 718 532 718 q 275 649 330 718 q 218 444 218 576 q 290 184 218 279 q 452 98 355 98 m 144 1063 q 131 1085 131 1070 q 142 1121 131 1101 q 170 1158 153 1141 q 250 1200 212 1200 q 285 1185 270 1200 l 501 968 q 506 957 506 964 q 502 943 506 950 q 490 929 498 936 q 454 913 473 913 l 144 1063 z "},"":{"ha":861,"x_min":67,"x_max":794,"o":"m 67 0 m 67 374 q 83 523 67 457 q 128 639 100 589 q 195 725 157 689 q 278 783 234 760 q 467 827 364 827 q 692 730 600 827 q 794 451 794 625 q 670 96 794 223 q 412 -13 562 -13 q 159 98 254 -13 q 67 374 67 204 m 452 98 q 533 119 497 98 q 594 178 569 140 q 644 378 644 255 q 591 609 644 514 q 420 718 532 718 q 275 649 330 718 q 218 444 218 576 q 290 184 218 279 q 452 98 355 98 m 400 913 q 369 925 381 913 q 349 950 349 943 q 353 968 349 963 l 570 1185 q 605 1200 585 1200 q 646 1188 625 1200 q 684 1158 667 1176 q 723 1086 723 1118 q 709 1063 723 1070 l 400 913 z "},"":{"ha":861,"x_min":67,"x_max":794,"o":"m 67 0 m 67 374 q 83 523 67 457 q 128 639 100 589 q 195 725 157 689 q 278 783 234 760 q 467 827 364 827 q 692 730 600 827 q 794 451 794 625 q 670 96 794 223 q 412 -13 562 -13 q 159 98 254 -13 q 67 374 67 204 m 452 98 q 533 119 497 98 q 594 178 569 140 q 644 378 644 255 q 591 609 644 514 q 420 718 532 718 q 275 649 330 718 q 218 444 218 576 q 290 184 218 279 q 452 98 355 98 m 297 942 q 245 916 264 916 q 214 928 226 916 q 202 945 202 939 q 207 962 202 958 l 363 1169 q 430 1200 380 1200 q 502 1169 478 1200 l 658 962 q 663 948 663 957 q 651 928 663 939 q 622 916 639 916 q 593 924 606 916 q 568 942 581 932 l 432 1050 l 297 942 z "},"":{"ha":861,"x_min":67,"x_max":794,"o":"m 67 0 m 67 374 q 83 523 67 457 q 128 639 100 589 q 195 725 157 689 q 278 783 234 760 q 467 827 364 827 q 692 730 600 827 q 794 451 794 625 q 670 96 794 223 q 412 -13 562 -13 q 159 98 254 -13 q 67 374 67 204 m 452 98 q 533 119 497 98 q 594 178 569 140 q 644 378 644 255 q 591 609 644 514 q 420 718 532 718 q 275 649 330 718 q 218 444 218 576 q 290 184 218 279 q 452 98 355 98 m 288 1036 q 155 950 210 1036 q 114 1000 114 962 q 175 1104 114 1043 q 320 1173 244 1173 q 391 1155 361 1173 q 438 1125 421 1137 q 474 1101 456 1112 q 561 1076 516 1076 q 689 1164 631 1076 q 727 1131 715 1164 q 730 1109 730 1121 q 722 1080 730 1098 q 700 1044 714 1063 q 667 1006 686 1025 q 624 972 647 987 q 537 941 574 941 q 480 948 500 941 q 441 965 459 955 q 406 988 423 976 q 370 1012 389 1001 q 288 1036 328 1036 z "},"":{"ha":861,"x_min":67,"x_max":794,"o":"m 67 0 m 67 374 q 83 523 67 457 q 128 639 100 589 q 195 725 157 689 q 278 783 234 760 q 467 827 364 827 q 692 730 600 827 q 794 451 794 625 q 670 96 794 223 q 412 -13 562 -13 q 159 98 254 -13 q 67 374 67 204 m 452 98 q 533 119 497 98 q 594 178 569 140 q 644 378 644 255 q 591 609 644 514 q 420 718 532 718 q 275 649 330 718 q 218 444 218 576 q 290 184 218 279 q 452 98 355 98 m 591 950 q 549 957 568 950 q 515 978 530 964 q 486 1055 486 1006 q 520 1133 486 1101 q 602 1164 555 1164 q 678 1136 650 1164 q 707 1059 707 1107 q 672 981 707 1013 q 591 950 639 950 m 248 950 q 205 957 224 950 q 172 978 186 964 q 142 1055 142 1006 q 177 1133 142 1101 q 258 1164 211 1164 q 334 1136 306 1164 q 363 1059 363 1107 q 329 981 363 1013 q 248 950 295 950 z "},"":{"ha":798,"x_min":95,"x_max":703,"o":"m 439 707 q 397 699 420 699 q 355 707 374 699 q 321 729 336 715 q 291 806 291 760 q 321 882 291 852 q 386 913 352 913 q 440 905 420 913 q 475 882 460 897 q 506 806 506 852 q 439 707 506 734 m 694 576 q 703 538 703 562 q 700 502 703 515 q 693 476 698 488 q 663 451 681 451 l 102 451 q 95 491 95 471 q 97 526 95 511 q 104 551 100 540 q 133 576 117 576 l 694 576 m 291 230 q 321 307 291 275 q 397 338 351 338 q 475 307 443 338 q 506 230 506 277 q 439 131 506 158 q 397 123 420 123 q 355 131 374 123 q 321 153 336 139 q 291 230 291 184 z "},"":{"ha":861,"x_min":67,"x_max":794,"o":"m 412 -13 q 233 35 311 -13 l 176 -53 q 146 -71 162 -71 q 98 -40 115 -71 l 176 79 q 67 375 67 188 q 278 783 67 675 q 459 827 364 827 q 634 778 555 827 l 696 872 q 723 890 708 890 q 773 859 751 890 l 690 732 q 794 451 794 625 q 670 96 794 223 q 412 -13 562 -13 m 555 659 q 420 718 500 718 q 275 649 330 718 q 218 444 218 576 q 267 218 218 309 l 555 659 m 313 157 q 452 98 374 98 q 594 178 541 98 q 644 378 644 255 q 600 594 644 503 l 313 157 z "},"":{"ha":929,"x_min":41,"x_max":913,"o":"m 41 0 m 131 604 q 125 666 131 642 q 102 689 119 689 q 81 686 89 689 l 65 680 q 54 685 60 678 q 41 711 41 699 q 48 736 41 723 q 72 766 56 749 q 109 796 88 783 q 192 827 155 827 q 245 814 229 827 q 269 780 260 801 q 282 677 282 746 l 282 253 q 351 125 282 138 q 401 121 372 121 q 463 128 430 121 q 526 148 496 136 q 627 208 583 172 l 627 604 q 604 683 627 668 q 579 689 595 689 q 554 684 564 689 q 539 677 545 680 q 530 678 534 675 q 521 685 526 680 q 511 708 511 696 q 519 733 511 720 q 547 763 528 746 q 590 795 566 781 q 700 827 645 827 q 776 732 766 827 q 779 677 779 706 l 779 276 q 787 146 779 172 q 806 112 795 120 q 835 104 818 104 q 863 110 852 104 l 883 119 q 899 111 892 121 q 903 73 913 90 q 871 40 892 56 q 823 13 850 24 q 656 15 706 -39 q 627 103 631 43 q 423 -3 528 26 q 343 -13 385 -13 q 262 -1 302 -13 q 193 36 222 10 q 131 205 131 91 l 131 604 m 139 1063 q 125 1085 125 1070 q 137 1121 125 1101 q 165 1158 148 1141 q 244 1200 207 1200 q 279 1185 264 1200 l 496 968 q 500 957 500 964 q 496 943 500 950 q 485 929 492 936 q 448 913 468 913 l 139 1063 z "},"":{"ha":929,"x_min":41,"x_max":913,"o":"m 41 0 m 131 604 q 125 666 131 642 q 102 689 119 689 q 81 686 89 689 l 65 680 q 54 685 60 678 q 41 711 41 699 q 48 736 41 723 q 72 766 56 749 q 109 796 88 783 q 192 827 155 827 q 245 814 229 827 q 269 780 260 801 q 282 677 282 746 l 282 253 q 351 125 282 138 q 401 121 372 121 q 463 128 430 121 q 526 148 496 136 q 627 208 583 172 l 627 604 q 604 683 627 668 q 579 689 595 689 q 554 684 564 689 q 539 677 545 680 q 530 678 534 675 q 521 685 526 680 q 511 708 511 696 q 519 733 511 720 q 547 763 528 746 q 590 795 566 781 q 700 827 645 827 q 776 732 766 827 q 779 677 779 706 l 779 276 q 787 146 779 172 q 806 112 795 120 q 835 104 818 104 q 863 110 852 104 l 883 119 q 899 111 892 121 q 903 73 913 90 q 871 40 892 56 q 823 13 850 24 q 656 15 706 -39 q 627 103 631 43 q 423 -3 528 26 q 343 -13 385 -13 q 262 -1 302 -13 q 193 36 222 10 q 131 205 131 91 l 131 604 m 395 913 q 363 925 376 913 q 343 950 343 943 q 347 968 343 963 l 564 1185 q 599 1200 579 1200 q 640 1188 619 1200 q 679 1158 661 1176 q 718 1086 718 1118 q 704 1063 718 1070 l 395 913 z "},"":{"ha":929,"x_min":41,"x_max":913,"o":"m 41 0 m 131 604 q 125 666 131 642 q 102 689 119 689 q 81 686 89 689 l 65 680 q 54 685 60 678 q 41 711 41 699 q 48 736 41 723 q 72 766 56 749 q 109 796 88 783 q 192 827 155 827 q 245 814 229 827 q 269 780 260 801 q 282 677 282 746 l 282 253 q 351 125 282 138 q 401 121 372 121 q 463 128 430 121 q 526 148 496 136 q 627 208 583 172 l 627 604 q 604 683 627 668 q 579 689 595 689 q 554 684 564 689 q 539 677 545 680 q 530 678 534 675 q 521 685 526 680 q 511 708 511 696 q 519 733 511 720 q 547 763 528 746 q 590 795 566 781 q 700 827 645 827 q 776 732 766 827 q 779 677 779 706 l 779 276 q 787 146 779 172 q 806 112 795 120 q 835 104 818 104 q 863 110 852 104 l 883 119 q 899 111 892 121 q 903 73 913 90 q 871 40 892 56 q 823 13 850 24 q 656 15 706 -39 q 627 103 631 43 q 423 -3 528 26 q 343 -13 385 -13 q 262 -1 302 -13 q 193 36 222 10 q 131 205 131 91 l 131 604 m 292 942 q 239 916 258 916 q 209 928 220 916 q 197 945 197 939 q 201 962 197 958 l 358 1169 q 425 1200 375 1200 q 496 1169 473 1200 l 652 962 q 657 948 657 957 q 645 928 657 939 q 617 916 633 916 q 588 924 600 916 q 562 942 575 932 l 427 1050 l 292 942 z "},"":{"ha":929,"x_min":41,"x_max":913,"o":"m 41 0 m 131 604 q 125 666 131 642 q 102 689 119 689 q 81 686 89 689 l 65 680 q 54 685 60 678 q 41 711 41 699 q 48 736 41 723 q 72 766 56 749 q 109 796 88 783 q 192 827 155 827 q 245 814 229 827 q 269 780 260 801 q 282 677 282 746 l 282 253 q 351 125 282 138 q 401 121 372 121 q 463 128 430 121 q 526 148 496 136 q 627 208 583 172 l 627 604 q 604 683 627 668 q 579 689 595 689 q 554 684 564 689 q 539 677 545 680 q 530 678 534 675 q 521 685 526 680 q 511 708 511 696 q 519 733 511 720 q 547 763 528 746 q 590 795 566 781 q 700 827 645 827 q 776 732 766 827 q 779 677 779 706 l 779 276 q 787 146 779 172 q 806 112 795 120 q 835 104 818 104 q 863 110 852 104 l 883 119 q 899 111 892 121 q 903 73 913 90 q 871 40 892 56 q 823 13 850 24 q 656 15 706 -39 q 627 103 631 43 q 423 -3 528 26 q 343 -13 385 -13 q 262 -1 302 -13 q 193 36 222 10 q 131 205 131 91 l 131 604 m 586 950 q 544 957 563 950 q 510 978 524 964 q 480 1055 480 1006 q 515 1133 480 1101 q 597 1164 549 1164 q 673 1136 644 1164 q 701 1059 701 1107 q 667 981 701 1013 q 586 950 633 950 m 242 950 q 200 957 219 950 q 166 978 180 964 q 136 1055 136 1006 q 172 1133 136 1101 q 253 1164 205 1164 q 329 1136 300 1164 q 357 1059 357 1107 q 323 981 357 1013 q 242 950 290 950 z "},"":{"ha":816,"x_min":3,"x_max":786,"o":"m 3 0 m 41 718 l 26 715 q 5 735 12 715 q 3 751 3 741 q 15 776 3 761 q 45 802 26 791 q 131 827 85 827 q 182 817 167 827 q 230 739 213 798 l 437 139 q 524 340 500 281 l 566 445 q 623 647 623 600 q 607 715 623 694 q 551 741 591 737 q 543 763 543 749 q 556 789 543 777 q 589 810 568 801 q 674 827 630 827 q 736 822 718 827 q 765 808 754 818 q 786 737 786 789 q 713 494 786 691 q 612 238 646 317 q 424 -151 487 -40 q 304 -306 361 -262 q 186 -349 248 -349 q 92 -322 123 -349 q 60 -248 60 -295 q 77 -195 60 -213 q 148 -170 111 -162 q 209 -220 154 -220 q 298 -156 258 -220 q 334 -85 316 -125 l 373 3 l 387 31 q 320 69 347 36 q 302 102 309 82 l 113 600 l 96 640 q 41 718 65 718 m 374 913 q 343 925 355 913 q 323 950 323 943 q 327 968 323 963 l 544 1185 q 579 1200 559 1200 q 620 1188 599 1200 q 659 1158 641 1176 q 697 1086 697 1118 q 684 1063 697 1070 l 374 913 z "},"":{"ha":925,"x_min":9,"x_max":844,"o":"m 409 -254 q 418 -283 418 -267 q 403 -313 418 -300 q 365 -334 387 -326 q 264 -349 321 -349 q 175 -318 208 -349 q 142 -219 142 -287 l 142 1000 q 133 1061 142 1048 q 82 1082 117 1082 q 52 1079 66 1082 q 32 1079 38 1076 q 23 1088 26 1082 q 56 1145 9 1110 q 204 1200 131 1200 q 291 1116 281 1200 q 294 1063 294 1091 l 294 730 q 523 827 401 827 q 749 731 662 827 q 844 444 844 627 q 713 107 844 237 q 578 18 654 49 q 434 -13 503 -13 q 294 5 366 -13 l 294 -88 q 307 -219 294 -191 q 333 -253 319 -247 q 362 -258 346 -258 q 409 -254 379 -258 m 294 622 l 294 150 q 449 96 357 96 q 620 174 554 96 q 690 401 690 258 q 629 629 690 553 q 474 699 573 699 q 294 622 375 699 z "},"":{"ha":816,"x_min":3,"x_max":786,"o":"m 3 0 m 41 718 l 26 715 q 5 735 12 715 q 3 751 3 741 q 15 776 3 761 q 45 802 26 791 q 131 827 85 827 q 182 817 167 827 q 230 739 213 798 l 437 139 q 524 340 500 281 l 566 445 q 623 647 623 600 q 607 715 623 694 q 551 741 591 737 q 543 763 543 749 q 556 789 543 777 q 589 810 568 801 q 674 827 630 827 q 736 822 718 827 q 765 808 754 818 q 786 737 786 789 q 713 494 786 691 q 612 238 646 317 q 424 -151 487 -40 q 304 -306 361 -262 q 186 -349 248 -349 q 92 -322 123 -349 q 60 -248 60 -295 q 77 -195 60 -213 q 148 -170 111 -162 q 209 -220 154 -220 q 298 -156 258 -220 q 334 -85 316 -125 l 373 3 l 387 31 q 320 69 347 36 q 302 102 309 82 l 113 600 l 96 640 q 41 718 65 718 m 566 950 q 523 957 543 950 q 490 978 504 964 q 460 1055 460 1006 q 494 1133 460 1101 q 576 1164 529 1164 q 652 1136 624 1164 q 681 1059 681 1107 q 646 981 681 1013 q 566 950 613 950 m 222 950 q 179 957 199 950 q 146 978 160 964 q 116 1055 116 1006 q 151 1133 116 1101 q 233 1164 185 1164 q 309 1136 280 1164 q 337 1059 337 1107 q 303 981 337 1013 q 222 950 269 950 z "},"":{"ha":1124,"x_min":-11,"x_max":1136,"o":"m 0 0 m 719 80 q 762 75 747 75 q 790 78 776 75 q 814 88 804 81 q 839 135 839 103 q 823 194 839 161 l 759 352 l 330 352 l 254 159 q 243 121 243 133 q 247 103 243 109 q 258 94 250 98 q 277 87 266 90 l 305 79 q 363 66 350 72 q 389 28 389 53 q 379 -3 389 9 q 355 0 366 0 l 79 0 q -11 50 -11 0 q -1 87 -11 73 q 42 80 24 80 q 71 85 59 80 q 94 104 83 91 q 136 193 112 126 l 471 1004 q 552 1049 486 1037 q 591 1053 570 1053 q 642 1030 632 1053 l 709 861 q 936 321 905 398 l 997 161 q 1027 96 1015 109 q 1054 79 1040 84 q 1083 72 1068 75 q 1110 64 1099 68 q 1136 28 1136 52 q 1126 -3 1136 10 q 1103 1 1113 1 l 779 1 q 725 9 745 1 q 706 35 706 18 q 719 80 706 66 m 720 448 l 542 888 l 368 448 l 720 448 m 305 1173 q 300 1203 300 1188 q 303 1232 300 1218 q 314 1257 307 1246 q 349 1281 330 1281 l 844 1281 q 850 1253 850 1269 q 847 1224 850 1238 q 837 1199 843 1211 q 800 1173 822 1173 l 305 1173 z "},"":{"ha":846,"x_min":74,"x_max":828,"o":"m 74 0 m 553 86 q 313 -13 454 -13 q 140 50 205 -13 q 74 213 74 113 q 185 400 74 338 q 468 457 286 457 l 553 457 q 553 507 553 483 l 553 558 q 527 686 553 649 q 425 728 497 728 q 256 610 260 728 q 256 580 255 592 q 211 569 243 569 q 164 576 178 569 q 138 597 149 584 q 115 664 115 623 q 139 736 115 705 q 205 787 163 767 q 395 827 286 827 q 561 805 505 827 q 648 749 616 784 q 706 581 706 686 l 699 256 q 708 143 699 167 q 728 111 716 119 q 757 103 740 103 q 785 109 774 103 l 804 117 q 821 110 814 121 q 828 90 828 98 q 821 68 828 81 q 794 39 814 54 q 751 12 775 24 q 567 42 616 -52 q 553 86 557 60 m 551 175 q 552 369 551 273 q 360 351 411 363 q 288 327 310 338 q 252 300 265 315 q 231 222 231 274 q 268 139 231 170 q 373 109 304 109 q 551 175 470 109 m 146 987 q 141 1017 141 1002 q 145 1046 141 1032 q 155 1071 149 1060 q 190 1095 171 1095 l 686 1095 q 692 1068 692 1083 q 688 1039 692 1053 q 678 1013 684 1025 q 641 987 663 987 l 146 987 z "},"":{"ha":1124,"x_min":-11,"x_max":1136,"o":"m 0 0 m 719 80 q 762 75 747 75 q 790 78 776 75 q 814 88 804 81 q 839 135 839 103 q 823 194 839 161 l 759 352 l 330 352 l 254 159 q 243 121 243 133 q 247 103 243 109 q 258 94 250 98 q 277 87 266 90 l 305 79 q 363 66 350 72 q 389 28 389 53 q 379 -3 389 9 q 355 0 366 0 l 79 0 q -11 50 -11 0 q -1 87 -11 73 q 42 80 24 80 q 71 85 59 80 q 94 104 83 91 q 136 193 112 126 l 471 1004 q 552 1049 486 1037 q 591 1053 570 1053 q 642 1030 632 1053 l 709 861 q 936 321 905 398 l 997 161 q 1027 96 1015 109 q 1054 79 1040 84 q 1083 72 1068 75 q 1110 64 1099 68 q 1136 28 1136 52 q 1126 -3 1136 10 q 1103 1 1113 1 l 779 1 q 725 9 745 1 q 706 35 706 18 q 719 80 706 66 m 720 448 l 542 888 l 368 448 l 720 448 m 564 1104 q 477 1116 517 1104 q 404 1147 436 1127 q 322 1249 337 1189 q 369 1301 321 1266 q 451 1335 418 1335 q 537 1232 475 1259 q 587 1221 561 1221 q 635 1227 613 1221 q 678 1245 658 1232 q 751 1329 724 1272 q 781 1329 758 1340 q 818 1289 824 1306 q 726 1158 793 1208 q 564 1104 657 1104 z "},"":{"ha":846,"x_min":74,"x_max":828,"o":"m 74 0 m 553 86 q 313 -13 454 -13 q 140 50 205 -13 q 74 213 74 113 q 185 400 74 338 q 468 457 286 457 l 553 457 q 553 507 553 483 l 553 558 q 527 686 553 649 q 425 728 497 728 q 256 610 260 728 q 256 580 255 592 q 211 569 243 569 q 164 576 178 569 q 138 597 149 584 q 115 664 115 623 q 139 736 115 705 q 205 787 163 767 q 395 827 286 827 q 561 805 505 827 q 648 749 616 784 q 706 581 706 686 l 699 256 q 708 143 699 167 q 728 111 716 119 q 757 103 740 103 q 785 109 774 103 l 804 117 q 821 110 814 121 q 828 90 828 98 q 821 68 828 81 q 794 39 814 54 q 751 12 775 24 q 567 42 616 -52 q 553 86 557 60 m 551 175 q 552 369 551 273 q 360 351 411 363 q 288 327 310 338 q 252 300 265 315 q 231 222 231 274 q 268 139 231 170 q 373 109 304 109 q 551 175 470 109 m 411 921 q 319 936 362 921 q 243 975 276 951 q 156 1097 173 1025 q 205 1149 154 1118 q 290 1179 254 1179 q 380 1053 313 1086 q 432 1040 404 1040 q 483 1046 460 1040 q 528 1069 506 1053 q 603 1173 575 1102 q 633 1173 610 1184 q 670 1133 675 1151 q 576 982 645 1041 q 411 921 505 921 z "},"":{"ha":1124,"x_min":-11,"x_max":1136,"o":"m 719 80 q 762 75 747 75 q 790 78 776 75 q 814 88 804 81 q 839 135 839 103 q 823 194 839 161 l 759 352 l 330 352 l 254 159 q 243 121 243 133 q 247 103 243 109 q 258 94 250 98 q 277 87 266 90 l 305 79 q 363 66 350 72 q 389 28 389 53 q 379 -3 389 9 q 355 0 366 0 l 79 0 q -11 50 -11 0 q -1 87 -11 73 q 42 80 24 80 q 71 85 59 80 q 94 104 83 91 q 136 193 112 126 l 471 1004 q 552 1049 486 1037 q 591 1053 570 1053 q 642 1030 632 1053 l 709 861 q 936 321 905 398 l 997 161 q 1027 96 1015 109 q 1054 79 1040 84 q 1083 72 1068 75 q 1110 64 1099 68 q 1136 28 1136 52 q 1126 -3 1136 10 q 1103 1 1113 1 l 979 1 q 896 -153 896 -85 q 983 -227 896 -227 q 1097 -178 1043 -227 q 1126 -208 1126 -189 q 1108 -251 1126 -227 q 1061 -296 1090 -275 q 916 -349 989 -349 q 777 -271 816 -349 q 764 -212 764 -245 q 884 1 764 -105 l 779 1 q 725 9 745 1 q 706 35 706 18 q 719 80 706 66 m 720 448 l 542 888 l 368 448 l 720 448 z "},"":{"ha":846,"x_min":74,"x_max":830,"o":"m 553 86 q 313 -13 454 -13 q 140 50 205 -13 q 74 213 74 113 q 185 400 74 338 q 468 457 286 457 l 553 457 q 553 507 553 483 l 553 558 q 527 686 553 649 q 425 728 497 728 q 256 610 260 728 q 256 580 255 592 q 211 569 243 569 q 164 576 178 569 q 138 597 149 584 q 115 664 115 623 q 139 736 115 705 q 205 787 163 767 q 395 827 286 827 q 561 805 505 827 q 648 749 616 784 q 706 581 706 686 l 699 256 q 708 143 699 167 q 728 111 716 119 q 757 103 740 103 q 785 109 774 103 l 804 117 q 821 110 814 121 q 828 93 828 98 q 779 28 828 59 l 780 27 q 607 -157 607 -76 q 688 -227 607 -227 q 780 -195 734 -227 q 801 -178 793 -186 q 830 -208 830 -189 q 812 -251 830 -227 q 765 -296 794 -275 q 621 -349 694 -349 q 488 -271 524 -349 q 475 -212 475 -245 q 624 -8 475 -97 q 553 86 563 11 m 551 175 q 552 369 551 273 q 360 351 411 363 q 288 327 310 338 q 252 300 265 315 q 231 222 231 274 q 268 139 231 170 q 373 109 304 109 q 551 175 470 109 z "},"":{"ha":988,"x_min":80,"x_max":922,"o":"m 80 0 m 772 746 q 774 802 774 765 q 760 868 774 838 q 722 916 746 899 q 593 945 679 945 q 442 914 507 945 q 332 827 376 883 q 243 523 243 715 q 334 232 243 340 q 587 119 427 119 q 831 187 743 119 q 879 231 857 208 q 912 195 899 225 q 916 169 916 185 q 892 120 916 152 q 822 58 868 87 q 559 -14 712 -14 q 209 119 339 -14 q 80 470 80 250 q 123 712 80 604 q 239 896 165 820 q 412 1012 313 971 q 604 1053 511 1053 q 753 1037 697 1053 q 847 994 810 1021 q 922 846 922 939 q 869 747 922 776 q 831 736 852 736 q 772 746 789 736 m 498 1121 q 465 1153 478 1121 q 462 1164 462 1160 q 467 1178 462 1173 l 702 1322 q 733 1333 717 1333 q 765 1323 749 1333 q 793 1297 781 1312 q 819 1229 819 1262 q 800 1197 819 1204 l 498 1121 z "},"":{"ha":769,"x_min":77,"x_max":751,"o":"m 77 0 m 560 579 l 561 604 q 555 647 561 616 q 516 698 549 678 q 432 718 483 718 q 343 692 382 718 q 279 624 304 667 q 233 406 233 543 q 296 197 233 277 q 464 114 359 114 q 646 166 559 114 q 678 189 667 179 q 694 178 685 189 q 711 146 711 158 q 701 119 711 134 q 674 86 692 104 q 631 52 656 69 q 574 20 606 34 q 429 -13 503 -13 q 289 13 354 -13 q 178 87 224 38 q 77 376 77 193 q 205 712 77 585 q 473 827 321 827 q 639 784 572 827 q 709 666 709 739 q 691 606 709 626 q 620 570 661 570 q 560 579 580 570 m 428 913 q 397 925 409 913 q 376 950 376 943 q 380 968 376 963 l 597 1185 q 632 1200 612 1200 q 673 1188 652 1200 q 712 1158 694 1176 q 751 1086 751 1118 q 737 1063 751 1070 l 428 913 z "},"":{"ha":988,"x_min":80,"x_max":922,"o":"m 80 0 m 772 746 q 774 802 774 765 q 760 868 774 838 q 722 916 746 899 q 593 945 679 945 q 442 914 507 945 q 332 827 376 883 q 243 523 243 715 q 334 232 243 340 q 587 119 427 119 q 831 187 743 119 q 879 231 857 208 q 912 195 899 225 q 916 169 916 185 q 892 120 916 152 q 822 58 868 87 q 559 -14 712 -14 q 209 119 339 -14 q 80 470 80 250 q 123 712 80 604 q 239 896 165 820 q 412 1012 313 971 q 604 1053 511 1053 q 753 1037 697 1053 q 847 994 810 1021 q 922 846 922 939 q 869 747 922 776 q 831 736 852 736 q 772 746 789 736 m 404 1100 q 396 1096 404 1100 q 378 1091 389 1091 q 361 1096 368 1091 q 350 1108 355 1101 q 339 1131 339 1124 q 344 1149 339 1144 l 513 1305 q 571 1335 543 1335 q 646 1305 616 1335 l 816 1149 q 821 1137 821 1144 q 818 1123 821 1131 q 810 1108 814 1116 q 784 1091 797 1091 q 755 1100 770 1091 l 579 1198 q 404 1100 418 1109 z "},"":{"ha":769,"x_min":77,"x_max":711,"o":"m 77 0 m 560 579 l 561 604 q 555 647 561 616 q 516 698 549 678 q 432 718 483 718 q 343 692 382 718 q 279 624 304 667 q 233 406 233 543 q 296 197 233 277 q 464 114 359 114 q 646 166 559 114 q 678 189 667 179 q 694 178 685 189 q 711 146 711 158 q 701 119 711 134 q 674 86 692 104 q 631 52 656 69 q 574 20 606 34 q 429 -13 503 -13 q 289 13 354 -13 q 178 87 224 38 q 77 376 77 193 q 205 712 77 585 q 473 827 321 827 q 639 784 572 827 q 709 666 709 739 q 691 606 709 626 q 620 570 661 570 q 560 579 580 570 m 325 942 q 273 916 292 916 q 242 928 254 916 q 230 945 230 939 q 235 962 230 958 l 391 1169 q 458 1200 408 1200 q 530 1169 506 1200 l 686 962 q 690 948 690 957 q 679 928 690 939 q 650 916 667 916 q 621 924 633 916 q 595 942 608 932 l 460 1050 l 325 942 z "},"":{"ha":988,"x_min":80,"x_max":922,"o":"m 80 0 m 772 746 q 774 802 774 765 q 760 868 774 838 q 722 916 746 899 q 593 945 679 945 q 442 914 507 945 q 332 827 376 883 q 243 523 243 715 q 334 232 243 340 q 587 119 427 119 q 831 187 743 119 q 879 231 857 208 q 912 195 899 225 q 916 169 916 185 q 892 120 916 152 q 822 58 868 87 q 559 -14 712 -14 q 209 119 339 -14 q 80 470 80 250 q 123 712 80 604 q 239 896 165 820 q 412 1012 313 971 q 604 1053 511 1053 q 753 1037 697 1053 q 847 994 810 1021 q 922 846 922 939 q 869 747 922 776 q 831 736 852 736 q 772 746 789 736 m 578 1112 q 535 1119 555 1112 q 502 1139 516 1126 q 472 1217 472 1168 q 507 1295 472 1263 q 589 1326 541 1326 q 665 1298 636 1326 q 693 1220 693 1269 q 659 1142 693 1174 q 578 1112 625 1112 z "},"":{"ha":769,"x_min":77,"x_max":711,"o":"m 77 0 m 560 579 l 561 604 q 555 647 561 616 q 516 698 549 678 q 432 718 483 718 q 343 692 382 718 q 279 624 304 667 q 233 406 233 543 q 296 197 233 277 q 464 114 359 114 q 646 166 559 114 q 678 189 667 179 q 694 178 685 189 q 711 146 711 158 q 701 119 711 134 q 674 86 692 104 q 631 52 656 69 q 574 20 606 34 q 429 -13 503 -13 q 289 13 354 -13 q 178 87 224 38 q 77 376 77 193 q 205 712 77 585 q 473 827 321 827 q 639 784 572 827 q 709 666 709 739 q 691 606 709 626 q 620 570 661 570 q 560 579 580 570 m 456 937 q 414 944 433 937 q 380 964 395 951 q 351 1042 351 994 q 385 1120 351 1087 q 467 1151 419 1151 q 543 1122 515 1151 q 572 1045 572 1094 q 537 967 572 999 q 456 937 504 937 z "},"":{"ha":988,"x_min":80,"x_max":922,"o":"m 80 0 m 772 746 q 774 802 774 765 q 760 868 774 838 q 722 916 746 899 q 593 945 679 945 q 442 914 507 945 q 332 827 376 883 q 243 523 243 715 q 334 232 243 340 q 587 119 427 119 q 831 187 743 119 q 879 231 857 208 q 912 195 899 225 q 916 169 916 185 q 892 120 916 152 q 822 58 868 87 q 559 -14 712 -14 q 209 119 339 -14 q 80 470 80 250 q 123 712 80 604 q 239 896 165 820 q 412 1012 313 971 q 604 1053 511 1053 q 753 1037 697 1053 q 847 994 810 1021 q 922 846 922 939 q 869 747 922 776 q 831 736 852 736 q 772 746 789 736 m 588 1091 q 522 1122 551 1091 l 352 1278 q 347 1290 347 1283 q 350 1303 347 1296 q 358 1318 353 1311 q 383 1335 370 1335 q 413 1326 397 1335 l 588 1229 l 734 1310 q 764 1326 748 1317 q 789 1335 779 1335 q 806 1330 800 1335 q 818 1318 813 1325 q 829 1295 829 1302 q 824 1278 829 1283 l 654 1122 q 588 1091 625 1091 z "},"":{"ha":769,"x_min":77,"x_max":711,"o":"m 77 0 m 560 579 l 561 604 q 555 647 561 616 q 516 698 549 678 q 432 718 483 718 q 343 692 382 718 q 279 624 304 667 q 233 406 233 543 q 296 197 233 277 q 464 114 359 114 q 646 166 559 114 q 678 189 667 179 q 694 178 685 189 q 711 146 711 158 q 701 119 711 134 q 674 86 692 104 q 631 52 656 69 q 574 20 606 34 q 429 -13 503 -13 q 289 13 354 -13 q 178 87 224 38 q 77 376 77 193 q 205 712 77 585 q 473 827 321 827 q 639 784 572 827 q 709 666 709 739 q 691 606 709 626 q 620 570 661 570 q 560 579 580 570 m 231 1152 q 227 1165 227 1157 q 238 1185 227 1174 q 267 1197 250 1197 q 321 1172 288 1197 l 456 1063 l 592 1172 q 644 1197 625 1197 q 675 1185 663 1197 q 687 1168 687 1174 q 682 1152 687 1156 l 526 945 q 459 913 507 913 q 417 923 439 913 q 387 945 396 932 l 231 1152 z "},"":{"ha":1170,"x_min":50,"x_max":1101,"o":"m 50 0 m 501 -7 l 308 1 l 133 1 q 74 13 98 1 q 50 42 50 24 q 60 87 50 75 q 110 81 85 81 q 152 84 135 81 q 183 98 170 87 q 214 183 214 123 l 214 874 q 136 953 214 937 q 72 975 87 963 q 58 1001 58 987 q 68 1043 58 1032 q 91 1040 81 1040 q 296 1040 91 1040 q 338 1041 312 1040 q 395 1044 338 1041 q 569 1048 480 1048 q 743 1027 659 1048 q 888 969 827 1006 q 990 884 949 932 q 1057 781 1031 836 q 1101 557 1101 682 q 985 183 1101 332 q 715 18 893 66 q 501 -7 623 -7 m 374 163 q 406 98 374 113 q 536 85 433 85 q 719 119 639 85 q 846 211 799 153 q 932 503 932 315 q 703 926 932 827 q 499 962 621 962 q 401 946 418 962 q 379 906 383 930 q 374 844 374 883 l 374 163 m 539 1091 q 473 1122 502 1091 l 303 1278 q 298 1290 298 1283 q 301 1303 298 1296 q 309 1318 304 1311 q 334 1335 321 1335 q 364 1326 348 1335 l 539 1229 l 685 1310 q 715 1326 699 1317 q 741 1335 730 1335 q 758 1330 751 1335 q 769 1318 764 1325 q 780 1295 780 1302 q 775 1278 780 1283 l 606 1122 q 539 1091 576 1091 z "},"":{"ha":935,"x_min":71,"x_max":1076,"o":"m 71 0 m 623 85 q 392 -14 518 -14 q 165 81 253 -14 q 71 370 71 186 q 202 706 71 576 q 492 827 325 827 q 621 804 559 827 l 621 1000 q 612 1061 621 1048 q 561 1082 596 1082 q 531 1079 546 1082 q 511 1079 517 1076 q 502 1088 505 1082 q 536 1145 488 1110 q 683 1200 610 1200 q 770 1116 760 1200 q 773 1063 773 1091 l 773 276 q 781 146 773 172 q 801 112 789 120 q 829 104 812 104 q 857 110 846 104 l 877 119 q 892 111 886 121 q 897 73 907 90 q 866 40 886 56 q 821 13 846 24 q 656 11 711 -37 q 623 85 630 34 m 621 667 q 467 718 555 718 q 295 640 361 718 q 224 412 224 556 q 355 130 224 184 q 434 114 395 114 q 498 120 472 114 q 546 136 524 126 q 621 186 591 157 l 621 667 m 884 1069 q 868 1118 868 1091 q 876 1163 868 1145 q 896 1195 883 1181 q 961 1227 925 1227 q 1018 1211 997 1227 q 1052 1172 1039 1196 q 1076 1069 1076 1127 q 1059 959 1076 1010 q 1018 868 1042 907 q 968 805 994 829 q 929 779 942 781 q 908 780 916 777 q 895 789 901 783 q 880 819 882 802 q 942 959 942 888 q 908 1059 942 1031 q 884 1069 897 1069 z "},"":{"ha":1170,"x_min":50,"x_max":1101,"o":"m 501 -7 l 308 1 l 133 1 q 74 13 98 1 q 50 42 50 24 q 60 87 50 75 q 110 81 85 81 q 152 84 135 81 q 183 98 170 87 q 214 183 214 123 l 214 471 l 90 471 q 83 507 83 488 q 85 538 83 526 q 92 560 87 551 q 121 581 104 581 l 214 581 l 214 874 q 136 953 214 937 q 72 975 87 963 q 58 1001 58 987 q 68 1043 58 1032 q 91 1040 81 1040 l 296 1040 q 338 1041 312 1040 l 395 1044 q 569 1048 480 1048 q 743 1027 659 1048 q 888 969 827 1006 q 990 884 949 932 q 1057 781 1031 836 q 1101 557 1101 682 q 985 183 1101 332 q 715 18 893 66 q 501 -7 623 -7 m 583 581 q 591 538 591 566 q 569 476 591 494 q 551 471 562 471 l 374 471 l 374 163 q 406 98 374 113 q 536 85 433 85 q 719 119 639 85 q 846 211 799 153 q 932 503 932 315 q 703 926 932 827 q 499 962 621 962 q 401 946 418 962 q 379 906 383 930 q 374 844 374 883 l 374 581 l 583 581 z "},"":{"ha":935,"x_min":71,"x_max":907,"o":"m 623 85 q 392 -14 518 -14 q 165 81 253 -14 q 71 370 71 186 q 202 706 71 576 q 492 827 325 827 q 621 804 559 827 l 621 882 l 477 882 q 472 910 472 897 q 476 935 472 923 q 486 956 479 947 q 521 976 501 976 l 621 976 l 621 1000 q 612 1061 621 1048 q 561 1082 596 1082 q 531 1079 546 1082 q 511 1079 517 1076 q 502 1088 505 1082 q 536 1145 488 1110 q 683 1200 610 1200 q 770 1116 760 1200 q 773 1063 773 1091 l 773 976 l 874 976 q 880 950 880 964 q 877 925 880 937 q 867 903 873 913 q 829 882 852 882 l 773 882 l 773 276 q 781 146 773 172 q 801 112 789 120 q 829 104 812 104 q 857 110 846 104 l 877 119 q 892 111 886 121 q 897 73 907 90 q 866 40 886 56 q 821 13 846 24 q 656 11 711 -37 q 623 85 630 34 m 621 667 q 467 718 555 718 q 295 640 361 718 q 224 412 224 556 q 355 130 224 184 q 434 114 395 114 q 498 120 472 114 q 546 136 524 126 q 621 186 591 157 l 621 667 z "},"":{"ha":979,"x_min":60,"x_max":921,"o":"m 60 0 m 820 302 q 859 317 838 317 q 895 309 890 317 q 921 134 921 256 q 902 11 921 49 q 889 0 896 0 l 140 0 q 60 48 60 0 q 71 87 60 74 q 115 81 94 81 q 153 84 137 81 q 182 98 168 87 q 214 183 214 123 l 214 870 q 167 945 214 929 q 139 954 153 950 q 111 961 124 958 q 87 970 98 965 q 64 1003 64 982 q 75 1043 64 1031 q 100 1040 87 1040 l 793 1040 q 871 1028 856 1040 q 900 939 900 1008 q 889 830 900 872 q 873 780 878 788 q 846 768 866 768 q 807 775 818 768 q 796 785 797 782 q 766 909 787 882 q 714 946 744 936 q 637 956 685 956 l 486 956 q 398 941 414 956 q 378 908 382 927 q 374 861 374 890 l 374 572 l 414 571 q 692 597 564 571 q 709 571 702 593 q 717 527 717 549 q 705 463 717 490 q 602 459 660 459 q 374 478 543 459 l 374 172 q 401 104 374 121 q 484 89 425 89 l 587 92 q 780 133 735 97 q 813 186 805 153 q 821 253 821 220 q 820 302 821 287 m 261 1173 q 256 1203 256 1188 q 259 1232 256 1218 q 270 1257 263 1246 q 304 1281 286 1281 l 800 1281 q 806 1253 806 1269 q 803 1224 806 1238 q 793 1199 799 1211 q 755 1173 778 1173 l 261 1173 z "},"":{"ha":820,"x_min":73,"x_max":743,"o":"m 73 0 m 73 365 q 90 511 73 447 q 136 625 107 574 q 204 713 165 675 q 288 777 243 751 q 461 827 376 827 q 598 797 547 827 q 682 716 650 766 q 743 462 743 621 q 693 401 743 403 l 220 391 q 296 174 224 244 q 454 114 357 114 q 688 174 598 114 q 703 164 694 174 q 720 129 720 144 q 639 45 720 96 q 420 -13 545 -13 q 165 91 258 -13 q 73 365 73 193 m 224 479 q 581 504 419 488 q 432 720 589 720 q 289 652 345 720 q 224 479 238 589 m 185 987 q 180 1017 180 1002 q 183 1046 180 1032 q 194 1071 187 1060 q 229 1095 210 1095 l 724 1095 q 730 1068 730 1083 q 727 1039 730 1053 q 717 1013 723 1025 q 680 987 701 987 l 185 987 z "},"":{"ha":979,"x_min":60,"x_max":921,"o":"m 60 0 m 820 302 q 859 317 838 317 q 895 309 890 317 q 921 134 921 256 q 902 11 921 49 q 889 0 896 0 l 140 0 q 60 48 60 0 q 71 87 60 74 q 115 81 94 81 q 153 84 137 81 q 182 98 168 87 q 214 183 214 123 l 214 870 q 167 945 214 929 q 139 954 153 950 q 111 961 124 958 q 87 970 98 965 q 64 1003 64 982 q 75 1043 64 1031 q 100 1040 87 1040 l 793 1040 q 871 1028 856 1040 q 900 939 900 1008 q 889 830 900 872 q 873 780 878 788 q 846 768 866 768 q 807 775 818 768 q 796 785 797 782 q 766 909 787 882 q 714 946 744 936 q 637 956 685 956 l 486 956 q 398 941 414 956 q 378 908 382 927 q 374 861 374 890 l 374 572 l 414 571 q 692 597 564 571 q 709 571 702 593 q 717 527 717 549 q 705 463 717 490 q 602 459 660 459 q 374 478 543 459 l 374 172 q 401 104 374 121 q 484 89 425 89 l 587 92 q 780 133 735 97 q 813 186 805 153 q 821 253 821 220 q 820 302 821 287 m 520 1104 q 433 1116 473 1104 q 360 1147 392 1127 q 278 1249 293 1189 q 325 1301 277 1266 q 407 1335 374 1335 q 493 1232 431 1259 q 543 1221 517 1221 q 591 1227 569 1221 q 634 1245 614 1232 q 707 1329 680 1272 q 736 1329 714 1340 q 774 1289 780 1306 q 682 1158 749 1208 q 520 1104 613 1104 z "},"":{"ha":820,"x_min":73,"x_max":743,"o":"m 73 0 m 73 365 q 90 511 73 447 q 136 625 107 574 q 204 713 165 675 q 288 777 243 751 q 461 827 376 827 q 598 797 547 827 q 682 716 650 766 q 743 462 743 621 q 693 401 743 403 l 220 391 q 296 174 224 244 q 454 114 357 114 q 688 174 598 114 q 703 164 694 174 q 720 129 720 144 q 639 45 720 96 q 420 -13 545 -13 q 165 91 258 -13 q 73 365 73 193 m 224 479 q 581 504 419 488 q 432 720 589 720 q 289 652 345 720 q 224 479 238 589 m 450 921 q 358 936 401 921 q 281 975 315 951 q 195 1097 212 1025 q 243 1149 193 1118 q 328 1179 293 1179 q 418 1053 351 1086 q 471 1040 443 1040 q 522 1046 498 1040 q 566 1069 545 1053 q 642 1173 614 1102 q 671 1173 649 1184 q 709 1133 714 1151 q 615 982 684 1041 q 450 921 544 921 z "},"":{"ha":979,"x_min":60,"x_max":921,"o":"m 60 0 m 820 302 q 859 317 838 317 q 895 309 890 317 q 921 134 921 256 q 902 11 921 49 q 889 0 896 0 l 140 0 q 60 48 60 0 q 71 87 60 74 q 115 81 94 81 q 153 84 137 81 q 182 98 168 87 q 214 183 214 123 l 214 870 q 167 945 214 929 q 139 954 153 950 q 111 961 124 958 q 87 970 98 965 q 64 1003 64 982 q 75 1043 64 1031 q 100 1040 87 1040 l 793 1040 q 871 1028 856 1040 q 900 939 900 1008 q 889 830 900 872 q 873 780 878 788 q 846 768 866 768 q 807 775 818 768 q 796 785 797 782 q 766 909 787 882 q 714 946 744 936 q 637 956 685 956 l 486 956 q 398 941 414 956 q 378 908 382 927 q 374 861 374 890 l 374 572 l 414 571 q 692 597 564 571 q 709 571 702 593 q 717 527 717 549 q 705 463 717 490 q 602 459 660 459 q 374 478 543 459 l 374 172 q 401 104 374 121 q 484 89 425 89 l 587 92 q 780 133 735 97 q 813 186 805 153 q 821 253 821 220 q 820 302 821 287 m 526 1112 q 483 1119 503 1112 q 450 1139 464 1126 q 420 1217 420 1168 q 454 1295 420 1263 q 536 1326 489 1326 q 612 1298 584 1326 q 641 1220 641 1269 q 606 1142 641 1174 q 526 1112 573 1112 z "},"":{"ha":820,"x_min":73,"x_max":743,"o":"m 73 0 m 73 365 q 90 511 73 447 q 136 625 107 574 q 204 713 165 675 q 288 777 243 751 q 461 827 376 827 q 598 797 547 827 q 682 716 650 766 q 743 462 743 621 q 693 401 743 403 l 220 391 q 296 174 224 244 q 454 114 357 114 q 688 174 598 114 q 703 164 694 174 q 720 129 720 144 q 639 45 720 96 q 420 -13 545 -13 q 165 91 258 -13 q 73 365 73 193 m 224 479 q 581 504 419 488 q 432 720 589 720 q 289 652 345 720 q 224 479 238 589 m 452 937 q 409 944 429 937 q 376 964 390 951 q 346 1042 346 994 q 380 1120 346 1087 q 462 1151 414 1151 q 538 1122 510 1151 q 567 1045 567 1094 q 532 967 567 999 q 452 937 499 937 z "},"":{"ha":977,"x_min":60,"x_max":921,"o":"m 547 -212 q 666 0 547 -105 l 140 0 q 60 48 60 0 q 71 87 60 74 q 115 81 94 81 q 153 84 137 81 q 182 98 168 87 q 214 183 214 123 l 214 870 q 167 945 214 929 q 139 954 153 950 q 111 961 124 958 q 87 970 98 965 q 64 1003 64 982 q 75 1043 64 1031 q 100 1040 87 1040 q 793 1040 100 1040 q 871 1028 856 1040 q 900 939 900 1008 q 889 830 900 872 q 873 780 878 788 q 846 768 866 768 q 807 775 818 768 q 796 785 797 782 q 766 909 787 882 q 714 946 744 936 q 637 956 685 956 l 486 956 q 398 941 414 956 q 378 908 382 927 q 374 861 374 890 l 374 572 l 414 571 q 692 597 564 571 q 709 571 702 593 q 717 527 717 549 q 705 463 717 490 q 602 459 660 459 q 374 478 543 459 l 374 172 q 401 104 374 121 q 484 89 425 89 l 587 92 q 780 133 735 97 q 813 186 805 153 q 821 253 821 220 q 820 302 821 287 q 859 317 838 317 q 895 309 890 317 q 921 134 921 256 q 902 11 921 49 q 889 0 896 0 l 761 0 q 678 -153 678 -87 q 765 -227 678 -227 q 879 -178 825 -227 q 908 -208 908 -189 q 890 -251 908 -227 q 842 -296 872 -275 q 698 -349 772 -349 q 559 -271 598 -349 q 547 -212 547 -245 z "},"":{"ha":820,"x_min":73,"x_max":743,"o":"m 484 -8 q 420 -13 447 -13 q 165 91 258 -13 q 73 371 73 193 q 203 713 73 587 q 472 827 320 827 q 682 716 611 827 q 743 462 743 621 q 693 401 743 403 l 220 391 q 296 174 224 244 q 454 114 357 114 q 688 174 598 114 q 703 164 694 174 q 720 131 720 144 q 703 96 720 117 q 652 54 685 75 q 511 -104 547 -26 q 500 -153 500 -131 q 581 -227 500 -227 q 694 -178 640 -227 q 723 -208 723 -189 q 705 -251 723 -227 q 658 -296 687 -275 q 513 -349 587 -349 q 380 -271 417 -349 q 368 -213 368 -245 q 378 -152 368 -180 q 404 -98 387 -123 q 484 -8 433 -51 m 224 479 q 581 504 419 488 q 432 720 589 720 q 289 652 345 720 q 224 479 238 589 z "},"":{"ha":979,"x_min":60,"x_max":921,"o":"m 60 0 m 820 302 q 859 317 838 317 q 895 309 890 317 q 921 134 921 256 q 902 11 921 49 q 889 0 896 0 l 140 0 q 60 48 60 0 q 71 87 60 74 q 115 81 94 81 q 153 84 137 81 q 182 98 168 87 q 214 183 214 123 l 214 870 q 167 945 214 929 q 139 954 153 950 q 111 961 124 958 q 87 970 98 965 q 64 1003 64 982 q 75 1043 64 1031 q 100 1040 87 1040 l 793 1040 q 871 1028 856 1040 q 900 939 900 1008 q 889 830 900 872 q 873 780 878 788 q 846 768 866 768 q 807 775 818 768 q 796 785 797 782 q 766 909 787 882 q 714 946 744 936 q 637 956 685 956 l 486 956 q 398 941 414 956 q 378 908 382 927 q 374 861 374 890 l 374 572 l 414 571 q 692 597 564 571 q 709 571 702 593 q 717 527 717 549 q 705 463 717 490 q 602 459 660 459 q 374 478 543 459 l 374 172 q 401 104 374 121 q 484 89 425 89 l 587 92 q 780 133 735 97 q 813 186 805 153 q 821 253 821 220 q 820 302 821 287 m 536 1091 q 470 1122 499 1091 l 300 1278 q 296 1290 296 1283 q 299 1303 296 1296 q 307 1318 302 1311 q 332 1335 318 1335 q 361 1326 345 1335 l 536 1229 l 682 1310 q 712 1326 696 1317 q 738 1335 728 1335 q 755 1330 748 1335 q 766 1318 762 1325 q 777 1295 777 1302 q 772 1278 777 1283 l 603 1122 q 536 1091 574 1091 z "},"":{"ha":820,"x_min":73,"x_max":743,"o":"m 73 0 m 73 365 q 90 511 73 447 q 136 625 107 574 q 204 713 165 675 q 288 777 243 751 q 461 827 376 827 q 598 797 547 827 q 682 716 650 766 q 743 462 743 621 q 693 401 743 403 l 220 391 q 296 174 224 244 q 454 114 357 114 q 688 174 598 114 q 703 164 694 174 q 720 129 720 144 q 639 45 720 96 q 420 -13 545 -13 q 165 91 258 -13 q 73 365 73 193 m 224 479 q 581 504 419 488 q 432 720 589 720 q 289 652 345 720 q 224 479 238 589 m 226 1152 q 222 1165 222 1157 q 234 1185 222 1174 q 262 1197 245 1197 q 316 1172 283 1197 l 452 1063 l 587 1172 q 639 1197 620 1197 q 670 1185 658 1197 q 682 1168 682 1174 q 677 1152 682 1156 l 521 945 q 454 913 503 913 q 413 923 434 913 q 382 945 391 932 l 226 1152 z "},"":{"ha":1115,"x_min":81,"x_max":1072,"o":"m 81 0 m 1063 494 q 1072 454 1072 471 q 1066 430 1072 437 q 1053 420 1061 423 q 1034 414 1045 416 q 1008 404 1023 412 q 978 314 978 387 l 978 156 q 941 109 969 138 q 863 52 912 79 q 601 -14 744 -14 q 365 23 458 -14 q 208 127 271 60 q 81 483 81 260 q 125 726 81 620 q 243 905 169 833 q 626 1053 396 1053 q 901 986 810 1053 q 972 852 972 933 q 943 772 972 802 q 871 743 916 743 q 815 753 831 743 q 819 806 819 774 q 805 868 819 838 q 764 916 791 899 q 623 947 717 947 q 461 923 528 947 q 349 848 395 899 q 253 540 253 743 q 634 93 253 93 q 789 121 724 93 q 822 140 810 130 l 821 334 q 758 401 821 383 q 726 409 742 406 q 693 416 709 412 q 667 426 677 420 q 645 462 645 437 q 655 499 645 488 q 722 494 671 494 l 1063 494 m 429 1100 q 421 1096 429 1100 q 403 1091 414 1091 q 386 1096 393 1091 q 375 1108 380 1101 q 364 1131 364 1124 q 369 1149 364 1144 l 538 1305 q 596 1335 568 1335 q 671 1305 641 1335 l 841 1149 q 846 1137 846 1144 q 843 1123 846 1131 q 835 1108 840 1116 q 809 1091 822 1091 q 780 1100 795 1091 l 604 1198 q 429 1100 444 1109 z "},"":{"ha":847,"x_min":66,"x_max":813,"o":"m 66 0 m 288 942 q 236 916 255 916 q 205 928 217 916 q 193 945 193 939 q 198 962 193 958 l 355 1169 q 421 1200 372 1200 q 493 1169 469 1200 l 649 962 q 654 948 654 957 q 642 928 654 939 q 613 916 630 916 q 584 924 597 916 q 559 942 572 932 l 423 1050 l 288 942 m 334 271 q 309 220 309 245 q 323 183 309 196 q 360 164 337 171 q 438 155 395 155 l 496 155 q 787 49 718 155 q 813 -47 813 9 q 794 -146 813 -104 q 743 -222 775 -189 q 669 -279 711 -255 q 581 -317 627 -302 q 410 -348 489 -348 q 271 -335 330 -348 q 165 -296 212 -323 q 66 -131 66 -239 q 157 33 66 -39 q 216 72 185 55 q 180 154 180 102 q 260 290 180 235 q 106 450 142 334 q 94 534 94 488 q 109 623 94 581 q 149 696 123 664 q 208 753 174 729 q 281 794 242 778 q 440 827 357 827 q 660 758 578 827 q 669 827 669 791 q 653 886 669 863 q 732 917 680 917 q 779 901 762 917 q 813 843 813 871 q 804 792 813 814 q 781 752 795 771 q 716 688 756 717 q 743 571 743 637 q 714 447 743 504 q 635 349 684 389 q 384 267 533 267 q 334 271 363 267 m 301 415 q 313 403 301 415 q 357 380 326 391 q 424 368 388 368 q 491 378 459 368 q 545 408 522 389 q 595 528 595 450 q 551 670 595 613 q 410 733 500 733 q 261 640 295 733 q 250 561 250 608 q 263 477 250 514 q 301 415 277 439 m 302 32 q 213 -105 213 -28 q 290 -206 213 -172 q 442 -235 352 -235 q 594 -208 524 -235 q 686 -90 686 -172 q 509 19 686 19 l 448 18 q 302 32 356 18 z "},"":{"ha":1115,"x_min":81,"x_max":1072,"o":"m 81 0 m 1063 494 q 1072 454 1072 471 q 1066 430 1072 437 q 1053 420 1061 423 q 1034 414 1045 416 q 1008 404 1023 412 q 978 314 978 387 l 978 156 q 941 109 969 138 q 863 52 912 79 q 601 -14 744 -14 q 365 23 458 -14 q 208 127 271 60 q 81 483 81 260 q 125 726 81 620 q 243 905 169 833 q 626 1053 396 1053 q 901 986 810 1053 q 972 852 972 933 q 943 772 972 802 q 871 743 916 743 q 815 753 831 743 q 819 806 819 774 q 805 868 819 838 q 764 916 791 899 q 623 947 717 947 q 461 923 528 947 q 349 848 395 899 q 253 540 253 743 q 634 93 253 93 q 789 121 724 93 q 822 140 810 130 l 821 334 q 758 401 821 383 q 726 409 742 406 q 693 416 709 412 q 667 426 677 420 q 645 462 645 437 q 655 499 645 488 q 722 494 671 494 l 1063 494 m 597 1104 q 509 1116 550 1104 q 437 1147 469 1127 q 355 1249 370 1189 q 402 1301 353 1266 q 484 1335 450 1335 q 570 1232 507 1259 q 620 1221 593 1221 q 668 1227 646 1221 q 711 1245 690 1232 q 783 1329 756 1272 q 813 1329 791 1340 q 850 1289 857 1306 q 759 1158 825 1208 q 597 1104 690 1104 z "},"":{"ha":847,"x_min":66,"x_max":813,"o":"m 66 0 m 417 921 q 325 936 368 921 q 249 975 282 951 q 162 1097 179 1025 q 211 1149 160 1118 q 296 1179 260 1179 q 386 1053 319 1086 q 438 1040 410 1040 q 489 1046 466 1040 q 534 1069 512 1053 q 609 1173 581 1102 q 639 1173 616 1184 q 676 1133 682 1151 q 583 982 651 1041 q 417 921 511 921 m 334 271 q 309 220 309 245 q 323 183 309 196 q 360 164 337 171 q 438 155 395 155 l 496 155 q 787 49 718 155 q 813 -47 813 9 q 794 -146 813 -104 q 743 -222 775 -189 q 669 -279 711 -255 q 581 -317 627 -302 q 410 -348 489 -348 q 271 -335 330 -348 q 165 -296 212 -323 q 66 -131 66 -239 q 157 33 66 -39 q 216 72 185 55 q 180 154 180 102 q 260 290 180 235 q 106 450 142 334 q 94 534 94 488 q 109 623 94 581 q 149 696 123 664 q 208 753 174 729 q 281 794 242 778 q 440 827 357 827 q 660 758 578 827 q 669 827 669 791 q 653 886 669 863 q 732 917 680 917 q 779 901 762 917 q 813 843 813 871 q 804 792 813 814 q 781 752 795 771 q 716 688 756 717 q 743 571 743 637 q 714 447 743 504 q 635 349 684 389 q 384 267 533 267 q 334 271 363 267 m 301 415 q 313 403 301 415 q 357 380 326 391 q 424 368 388 368 q 491 378 459 368 q 545 408 522 389 q 595 528 595 450 q 551 670 595 613 q 410 733 500 733 q 261 640 295 733 q 250 561 250 608 q 263 477 250 514 q 301 415 277 439 m 302 32 q 213 -105 213 -28 q 290 -206 213 -172 q 442 -235 352 -235 q 594 -208 524 -235 q 686 -90 686 -172 q 509 19 686 19 l 448 18 q 302 32 356 18 z "},"":{"ha":1115,"x_min":81,"x_max":1072,"o":"m 81 0 m 1063 494 q 1072 454 1072 471 q 1066 430 1072 437 q 1053 420 1061 423 q 1034 414 1045 416 q 1008 404 1023 412 q 978 314 978 387 l 978 156 q 941 109 969 138 q 863 52 912 79 q 601 -14 744 -14 q 365 23 458 -14 q 208 127 271 60 q 81 483 81 260 q 125 726 81 620 q 243 905 169 833 q 626 1053 396 1053 q 901 986 810 1053 q 972 852 972 933 q 943 772 972 802 q 871 743 916 743 q 815 753 831 743 q 819 806 819 774 q 805 868 819 838 q 764 916 791 899 q 623 947 717 947 q 461 923 528 947 q 349 848 395 899 q 253 540 253 743 q 634 93 253 93 q 789 121 724 93 q 822 140 810 130 l 821 334 q 758 401 821 383 q 726 409 742 406 q 693 416 709 412 q 667 426 677 420 q 645 462 645 437 q 655 499 645 488 q 722 494 671 494 l 1063 494 m 603 1112 q 561 1119 580 1112 q 527 1139 541 1126 q 497 1217 497 1168 q 532 1295 497 1263 q 614 1326 566 1326 q 690 1298 661 1326 q 718 1220 718 1269 q 684 1142 718 1174 q 603 1112 650 1112 z "},"":{"ha":847,"x_min":66,"x_max":813,"o":"m 66 0 m 420 937 q 377 944 397 937 q 344 964 358 951 q 314 1042 314 994 q 349 1120 314 1087 q 430 1151 382 1151 q 507 1122 478 1151 q 535 1045 535 1094 q 500 967 535 999 q 420 937 467 937 m 334 271 q 309 220 309 245 q 323 183 309 196 q 360 164 337 171 q 438 155 395 155 l 496 155 q 787 49 718 155 q 813 -47 813 9 q 794 -146 813 -104 q 743 -222 775 -189 q 669 -279 711 -255 q 581 -317 627 -302 q 410 -348 489 -348 q 271 -335 330 -348 q 165 -296 212 -323 q 66 -131 66 -239 q 157 33 66 -39 q 216 72 185 55 q 180 154 180 102 q 260 290 180 235 q 106 450 142 334 q 94 534 94 488 q 109 623 94 581 q 149 696 123 664 q 208 753 174 729 q 281 794 242 778 q 440 827 357 827 q 660 758 578 827 q 669 827 669 791 q 653 886 669 863 q 732 917 680 917 q 779 901 762 917 q 813 843 813 871 q 804 792 813 814 q 781 752 795 771 q 716 688 756 717 q 743 571 743 637 q 714 447 743 504 q 635 349 684 389 q 384 267 533 267 q 334 271 363 267 m 301 415 q 313 403 301 415 q 357 380 326 391 q 424 368 388 368 q 491 378 459 368 q 545 408 522 389 q 595 528 595 450 q 551 670 595 613 q 410 733 500 733 q 261 640 295 733 q 250 561 250 608 q 263 477 250 514 q 301 415 277 439 m 302 32 q 213 -105 213 -28 q 290 -206 213 -172 q 442 -235 352 -235 q 594 -208 524 -235 q 686 -90 686 -172 q 509 19 686 19 l 448 18 q 302 32 356 18 z "},"":{"ha":1115,"x_min":81,"x_max":1072,"o":"m 81 0 m 1063 494 q 1072 454 1072 471 q 1066 430 1072 437 q 1053 420 1061 423 q 1034 414 1045 416 q 1008 404 1023 412 q 978 314 978 387 l 978 156 q 941 109 969 138 q 863 52 912 79 q 601 -14 744 -14 q 365 23 458 -14 q 208 127 271 60 q 81 483 81 260 q 125 726 81 620 q 243 905 169 833 q 626 1053 396 1053 q 901 986 810 1053 q 972 852 972 933 q 943 772 972 802 q 871 743 916 743 q 815 753 831 743 q 819 806 819 774 q 805 868 819 838 q 764 916 791 899 q 623 947 717 947 q 461 923 528 947 q 349 848 395 899 q 253 540 253 743 q 634 93 253 93 q 789 121 724 93 q 822 140 810 130 l 821 334 q 758 401 821 383 q 726 409 742 406 q 693 416 709 412 q 667 426 677 420 q 645 462 645 437 q 655 499 645 488 q 722 494 671 494 l 1063 494 m 485 -176 q 469 -136 469 -163 q 476 -94 469 -109 q 496 -67 483 -79 q 567 -41 526 -41 q 628 -51 608 -41 q 662 -77 649 -61 q 686 -148 686 -107 q 674 -224 686 -189 q 642 -288 662 -260 q 552 -349 600 -349 q 507 -324 515 -349 q 529 -291 518 -314 q 541 -245 541 -268 q 538 -211 541 -222 q 530 -191 536 -199 q 485 -176 517 -175 z "},"":{"ha":847,"x_min":66,"x_max":813,"o":"m 66 0 m 520 1076 q 536 1035 536 1062 q 529 993 536 1008 q 509 966 522 978 q 438 940 479 940 q 377 950 397 940 q 343 977 356 960 q 319 1047 319 1006 q 331 1124 319 1088 q 363 1187 343 1159 q 453 1248 405 1248 q 498 1223 490 1248 q 476 1190 487 1213 q 465 1144 465 1167 q 467 1110 465 1121 q 475 1090 469 1099 q 520 1076 488 1074 m 334 271 q 309 220 309 245 q 323 183 309 196 q 360 164 337 171 q 438 155 395 155 l 496 155 q 787 49 718 155 q 813 -47 813 9 q 794 -146 813 -104 q 743 -222 775 -189 q 669 -279 711 -255 q 581 -317 627 -302 q 410 -348 489 -348 q 271 -335 330 -348 q 165 -296 212 -323 q 66 -131 66 -239 q 157 33 66 -39 q 216 72 185 55 q 180 154 180 102 q 260 290 180 235 q 106 450 142 334 q 94 534 94 488 q 109 623 94 581 q 149 696 123 664 q 208 753 174 729 q 281 794 242 778 q 440 827 357 827 q 660 758 578 827 q 669 827 669 791 q 653 886 669 863 q 732 917 680 917 q 779 901 762 917 q 813 843 813 871 q 804 792 813 814 q 781 752 795 771 q 716 688 756 717 q 743 571 743 637 q 714 447 743 504 q 635 349 684 389 q 384 267 533 267 q 334 271 363 267 m 301 415 q 313 403 301 415 q 357 380 326 391 q 424 368 388 368 q 491 378 459 368 q 545 408 522 389 q 595 528 595 450 q 551 670 595 613 q 410 733 500 733 q 261 640 295 733 q 250 561 250 608 q 263 477 250 514 q 301 415 277 439 m 302 32 q 213 -105 213 -28 q 290 -206 213 -172 q 442 -235 352 -235 q 594 -208 524 -235 q 686 -90 686 -172 q 509 19 686 19 l 448 18 q 302 32 356 18 z "},"":{"ha":1283,"x_min":69,"x_max":1217,"o":"m 69 0 m 496 -5 q 429 0 481 0 l 146 0 q 90 11 111 0 q 69 52 69 22 q 79 87 69 74 q 130 80 106 80 q 166 85 153 80 q 190 103 180 90 q 210 193 210 130 l 210 887 q 179 947 208 935 q 155 955 170 951 l 122 962 q 81 982 89 970 q 74 1006 74 994 q 84 1045 74 1031 q 151 1040 100 1040 l 427 1040 q 484 1028 463 1040 q 505 987 505 1017 q 494 953 505 965 q 438 960 469 960 q 370 852 372 960 l 370 553 l 913 553 l 913 887 q 882 947 911 935 q 857 955 873 951 l 825 962 q 784 982 791 970 q 777 1006 777 994 q 787 1045 777 1033 q 854 1040 802 1040 l 1130 1040 q 1186 1028 1165 1040 q 1208 987 1208 1017 q 1197 953 1208 965 q 1141 960 1171 960 q 1073 852 1075 960 l 1073 160 q 1084 110 1073 122 q 1126 86 1101 92 q 1168 78 1152 81 q 1195 68 1184 74 q 1217 32 1217 58 q 1206 -5 1217 8 q 1139 0 1190 0 l 856 0 q 800 11 821 0 q 779 52 779 22 q 789 87 779 74 q 837 80 814 80 q 871 85 859 80 q 892 102 884 90 q 913 186 911 127 l 913 459 l 370 459 l 370 160 q 400 92 370 106 q 426 85 410 88 q 458 78 442 81 q 485 68 474 74 q 507 32 507 57 q 496 -5 507 8 m 458 1100 q 450 1096 458 1100 q 432 1091 443 1091 q 415 1096 422 1091 q 404 1108 409 1101 q 393 1131 393 1124 q 398 1149 393 1144 l 568 1305 q 625 1335 597 1335 q 701 1305 670 1335 l 870 1149 q 875 1137 875 1144 q 872 1123 875 1131 q 864 1108 869 1116 q 838 1091 851 1091 q 809 1100 825 1091 l 633 1198 q 458 1100 473 1109 z "},"":{"ha":991,"x_min":41,"x_max":958,"o":"m 56 0 m 427 -3 q 384 0 414 0 l 168 0 q 84 23 102 0 q 77 43 77 32 q 87 85 77 72 q 125 80 104 80 q 156 97 146 80 q 165 160 166 114 l 165 1000 q 156 1061 165 1047 q 106 1082 142 1082 l 92 1082 q 78 1081 86 1082 q 65 1082 71 1079 q 56 1090 60 1085 q 88 1147 41 1112 q 228 1200 157 1200 q 315 1116 305 1200 q 317 1063 317 1091 l 317 694 q 536 814 420 780 q 623 827 579 827 q 706 815 667 827 q 774 778 746 804 q 837 608 837 722 l 837 153 q 875 84 837 97 q 901 77 886 80 q 927 71 916 75 q 946 62 939 67 q 958 34 958 54 q 947 -3 958 9 q 904 0 933 0 l 688 0 q 604 23 623 0 q 597 43 597 32 q 607 85 597 73 q 644 80 624 80 q 674 94 663 80 q 686 146 684 109 l 686 560 q 617 689 686 675 q 565 693 596 693 q 495 684 533 693 q 425 659 458 674 q 317 588 359 629 l 317 153 q 355 84 317 97 q 381 77 366 80 q 408 71 396 75 q 427 62 420 67 q 438 34 438 54 q 427 -3 438 10 m 463 921 q 411 895 430 895 q 380 907 392 895 q 368 924 368 918 q 373 941 368 937 l 530 1148 q 596 1179 547 1179 q 668 1148 644 1179 l 824 941 q 829 927 829 936 q 817 907 829 918 q 788 895 805 895 q 759 903 772 895 q 734 921 747 911 l 598 1029 l 463 921 z "},"":{"ha":1283,"x_min":69,"x_max":1217,"o":"m 496 -5 q 429 0 481 0 l 146 0 q 90 11 111 0 q 69 52 69 22 q 79 87 69 74 q 130 80 106 80 q 166 85 153 80 q 190 103 180 90 q 210 193 210 130 l 210 688 l 94 688 q 88 716 88 703 q 92 741 88 730 q 102 762 96 753 q 137 782 116 782 l 210 782 l 210 887 q 179 947 208 935 q 155 955 170 951 l 122 962 q 81 982 89 970 q 74 1006 74 994 q 84 1045 74 1031 q 151 1040 100 1040 l 427 1040 q 484 1028 463 1040 q 505 987 505 1017 q 494 953 505 965 q 438 960 469 960 q 370 852 372 960 l 370 782 l 913 782 l 913 887 q 882 947 911 935 q 857 955 873 951 l 825 962 q 784 982 791 970 q 777 1006 777 994 q 787 1045 777 1033 q 854 1040 802 1040 l 1130 1040 q 1186 1028 1165 1040 q 1208 987 1208 1017 q 1197 953 1208 965 q 1141 960 1171 960 q 1073 852 1075 960 l 1073 782 l 1194 782 q 1200 756 1200 770 q 1197 731 1200 743 q 1187 709 1193 719 q 1149 688 1172 688 l 1073 688 l 1073 160 q 1084 110 1073 122 q 1126 86 1101 92 q 1168 78 1152 81 q 1195 68 1184 74 q 1217 32 1217 58 q 1206 -5 1217 8 q 1139 0 1190 0 l 856 0 q 800 11 821 0 q 779 52 779 22 q 789 87 779 74 q 837 80 814 80 q 871 85 859 80 q 892 102 884 90 q 913 186 911 127 l 913 459 l 370 459 l 370 160 q 400 92 370 106 q 426 85 410 88 q 458 78 442 81 q 485 68 474 74 q 507 32 507 57 q 496 -5 507 8 m 913 553 l 913 688 l 370 688 l 370 553 l 913 553 z "},"":{"ha":991,"x_min":27,"x_max":958,"o":"m 427 -3 q 384 0 414 0 l 168 0 q 84 23 102 0 q 77 43 77 32 q 87 85 77 72 q 125 80 104 80 q 156 97 146 80 q 165 160 166 114 l 165 869 l 33 869 q 27 898 27 884 q 31 923 27 911 q 41 944 35 935 q 77 964 56 964 l 165 964 l 165 1000 q 156 1061 165 1047 q 106 1082 142 1082 l 92 1082 q 78 1081 86 1082 q 65 1082 71 1079 q 56 1090 60 1085 q 88 1147 41 1112 q 228 1200 157 1200 q 315 1116 305 1200 q 317 1063 317 1091 l 317 964 l 443 964 q 449 939 449 952 q 445 913 449 925 q 435 891 441 901 q 398 869 420 869 l 317 869 l 317 694 q 536 814 420 780 q 623 827 579 827 q 706 815 667 827 q 774 778 746 804 q 837 608 837 722 l 837 153 q 875 84 837 97 q 901 77 886 80 q 927 71 916 75 q 946 62 939 67 q 958 34 958 54 q 947 -3 958 9 q 904 0 933 0 l 688 0 q 604 23 623 0 q 597 43 597 32 q 607 85 597 73 q 644 80 624 80 q 674 94 663 80 q 686 146 684 109 l 686 560 q 617 689 686 675 q 565 693 596 693 q 495 684 533 693 q 425 659 458 674 q 317 588 359 629 l 317 153 q 355 84 317 97 q 381 77 366 80 q 408 71 396 75 q 427 62 420 67 q 438 34 438 54 q 427 -3 438 10 z "},"":{"ha":582,"x_min":-5,"x_max":574,"o":"m 0 0 m 497 -5 q 430 0 481 0 l 147 0 q 91 11 112 0 q 70 52 70 22 q 80 87 70 74 q 130 80 107 80 q 166 85 153 80 q 189 102 179 90 q 211 186 210 127 l 211 880 q 181 947 211 933 q 155 955 172 951 q 123 962 139 958 q 96 971 107 966 q 75 1008 75 982 q 85 1045 75 1033 q 152 1040 100 1040 l 428 1040 q 485 1028 463 1040 q 506 987 506 1017 q 495 953 506 965 q 439 960 469 960 q 371 852 373 960 l 371 160 q 401 92 371 106 q 427 85 410 88 q 459 78 443 81 q 486 68 475 74 q 508 32 508 57 q 497 -5 508 8 m 170 1205 q 44 1141 90 1205 q 1 1177 16 1149 q -5 1200 -5 1187 q 9 1235 -5 1213 q 49 1280 23 1258 q 191 1335 112 1335 q 247 1321 220 1335 q 300 1289 274 1306 q 351 1257 326 1272 q 401 1242 376 1242 q 522 1304 461 1242 q 569 1267 550 1304 q 574 1244 574 1257 q 559 1208 574 1230 q 520 1165 545 1185 q 390 1116 461 1116 q 301 1147 353 1116 q 221 1191 249 1177 q 170 1205 194 1205 z "},"":{"ha":486,"x_min":-81,"x_max":536,"o":"m 0 0 m 185 0 q 81 47 81 0 q 92 85 81 72 q 128 80 108 80 q 165 95 149 80 q 183 151 182 110 l 183 614 q 170 681 183 662 q 123 699 157 699 q 77 693 98 699 q 60 712 65 692 q 65 744 55 730 q 97 773 75 758 q 144 800 118 789 q 237 827 199 827 q 292 816 274 827 q 319 787 310 805 q 334 690 334 757 l 334 149 q 373 83 336 95 q 398 77 383 80 q 425 71 413 75 q 444 62 437 67 q 455 34 455 54 q 445 -3 455 9 q 401 0 431 0 l 185 0 m 93 1036 q -39 950 16 1036 q -81 1000 -81 962 q -20 1104 -81 1043 q 125 1173 50 1173 q 196 1155 166 1173 q 244 1125 227 1137 q 279 1101 261 1112 q 366 1076 321 1076 q 494 1164 436 1076 q 532 1131 520 1164 q 536 1109 536 1121 q 528 1080 536 1098 q 506 1044 519 1063 q 472 1006 492 1025 q 429 972 452 987 q 342 941 379 941 q 285 948 306 941 q 247 965 264 955 q 211 988 229 976 q 176 1012 194 1001 q 93 1036 134 1036 z "},"":{"ha":582,"x_min":10,"x_max":561,"o":"m 10 0 m 497 -5 q 430 0 481 0 l 147 0 q 91 11 112 0 q 70 52 70 22 q 80 87 70 74 q 130 80 107 80 q 166 85 153 80 q 189 102 179 90 q 211 186 210 127 l 211 880 q 181 947 211 933 q 155 955 172 951 q 123 962 139 958 q 96 971 107 966 q 75 1008 75 982 q 85 1045 75 1033 q 152 1040 100 1040 l 428 1040 q 485 1028 463 1040 q 506 987 506 1017 q 495 953 506 965 q 439 960 469 960 q 371 852 373 960 l 371 160 q 401 92 371 106 q 427 85 410 88 q 459 78 443 81 q 486 68 475 74 q 508 32 508 57 q 497 -5 508 8 m 16 1173 q 10 1203 10 1188 q 14 1232 10 1218 q 24 1257 18 1246 q 59 1281 40 1281 l 555 1281 q 561 1253 561 1269 q 557 1224 561 1238 q 547 1199 553 1211 q 510 1173 532 1173 l 16 1173 z "},"":{"ha":486,"x_min":-38,"x_max":513,"o":"m 0 0 m 185 0 q 81 47 81 0 q 92 85 81 72 q 128 80 108 80 q 165 95 149 80 q 183 151 182 110 l 183 614 q 170 681 183 662 q 123 699 157 699 q 77 693 98 699 q 60 712 65 692 q 65 744 55 730 q 97 773 75 758 q 144 800 118 789 q 237 827 199 827 q 292 816 274 827 q 319 787 310 805 q 334 690 334 757 l 334 149 q 373 83 336 95 q 398 77 383 80 q 425 71 413 75 q 444 62 437 67 q 455 34 455 54 q 445 -3 455 9 q 401 0 431 0 l 185 0 m -33 987 q -38 1017 -38 1002 q -34 1046 -38 1032 q -24 1071 -31 1060 q 11 1095 -8 1095 l 507 1095 q 513 1068 513 1083 q 509 1039 513 1053 q 499 1013 505 1025 q 462 987 484 987 l -33 987 z "},"":{"ha":582,"x_min":31,"x_max":534,"o":"m 32 0 m 497 -5 q 430 0 481 0 l 147 0 q 91 11 112 0 q 70 52 70 22 q 80 87 70 74 q 130 80 107 80 q 166 85 153 80 q 189 102 179 90 q 211 186 210 127 l 211 880 q 181 947 211 933 q 155 955 172 951 q 123 962 139 958 q 96 971 107 966 q 75 1008 75 982 q 85 1045 75 1033 q 152 1040 100 1040 l 428 1040 q 485 1028 463 1040 q 506 987 506 1017 q 495 953 506 965 q 439 960 469 960 q 371 852 373 960 l 371 160 q 401 92 371 106 q 427 85 410 88 q 459 78 443 81 q 486 68 475 74 q 508 32 508 57 q 497 -5 508 8 m 274 1104 q 186 1116 227 1104 q 114 1147 146 1127 q 32 1249 47 1189 q 79 1301 31 1266 q 161 1335 127 1335 q 247 1232 184 1259 q 297 1221 271 1221 q 345 1227 323 1221 q 388 1245 368 1232 q 460 1329 433 1272 q 490 1329 468 1340 q 528 1289 534 1306 q 436 1158 503 1208 q 274 1104 367 1104 z "},"":{"ha":486,"x_min":-26,"x_max":496,"o":"m 0 0 m 185 0 q 81 47 81 0 q 92 85 81 72 q 128 80 108 80 q 165 95 149 80 q 183 151 182 110 l 183 614 q 170 681 183 662 q 123 699 157 699 q 77 693 98 699 q 60 712 65 692 q 65 744 55 730 q 97 773 75 758 q 144 800 118 789 q 237 827 199 827 q 292 816 274 827 q 319 787 310 805 q 334 690 334 757 l 334 149 q 373 83 336 95 q 398 77 383 80 q 425 71 413 75 q 444 62 437 67 q 455 34 455 54 q 445 -3 455 9 q 401 0 431 0 l 185 0 m 231 921 q 139 936 182 921 q 63 975 96 951 q -24 1097 -7 1025 q 25 1149 -26 1118 q 110 1179 75 1179 q 200 1053 133 1086 q 252 1040 224 1040 q 303 1046 280 1040 q 348 1069 326 1053 q 423 1173 395 1102 q 453 1173 431 1184 q 490 1133 496 1151 q 397 982 465 1041 q 231 921 326 921 z "},"":{"ha":582,"x_min":70,"x_max":508,"o":"m 139 -212 q 258 0 139 -105 l 147 0 q 91 11 112 0 q 70 52 70 22 q 80 87 70 74 q 130 80 107 80 q 166 85 153 80 q 189 102 179 90 q 211 186 210 127 l 211 880 q 181 947 211 933 q 155 955 172 951 q 123 962 139 958 q 96 971 107 966 q 75 1008 75 982 q 85 1045 75 1033 q 152 1040 100 1040 l 428 1040 q 485 1028 463 1040 q 506 987 506 1017 q 495 953 506 965 q 439 960 469 960 q 371 852 373 960 l 371 160 q 401 92 371 106 q 427 85 410 88 q 459 78 443 81 q 486 68 475 74 q 508 32 508 57 q 497 -5 508 8 q 430 0 481 0 l 353 0 q 271 -153 271 -87 q 357 -227 271 -227 q 471 -178 418 -227 q 500 -208 500 -189 q 483 -251 500 -227 q 435 -296 465 -275 q 290 -349 364 -349 q 152 -271 191 -349 q 139 -212 139 -245 z "},"":{"ha":486,"x_min":55,"x_max":455,"o":"m 227 953 q 184 960 203 953 q 151 981 165 967 q 121 1057 121 1009 q 156 1135 121 1103 q 237 1167 190 1167 q 313 1139 285 1167 q 342 1061 342 1110 q 308 983 342 1015 q 227 953 275 953 m 185 0 q 81 47 81 0 q 92 85 81 72 q 121 80 108 80 q 183 160 184 80 l 183 614 q 170 681 183 662 q 123 699 157 699 q 77 693 98 699 q 60 712 65 692 q 65 744 55 730 q 97 773 75 758 q 144 800 118 789 q 237 827 199 827 q 292 816 274 827 q 319 787 310 805 q 334 690 334 757 l 334 149 q 373 83 336 95 q 398 77 383 80 q 425 71 413 75 q 444 62 437 67 q 455 34 455 54 q 445 -3 455 9 q 401 0 431 0 l 302 0 q 219 -153 219 -87 q 306 -227 219 -227 q 420 -178 366 -227 q 449 -208 449 -189 q 431 -251 449 -227 q 384 -296 413 -275 q 239 -349 313 -349 q 100 -271 139 -349 q 87 -212 87 -245 q 207 0 87 -105 l 185 0 z "},"":{"ha":582,"x_min":70,"x_max":508,"o":"m 70 0 m 497 -5 q 430 0 481 0 l 147 0 q 91 11 112 0 q 70 52 70 22 q 80 87 70 74 q 130 80 107 80 q 166 85 153 80 q 189 102 179 90 q 211 186 210 127 l 211 880 q 181 947 211 933 q 155 955 172 951 q 123 962 139 958 q 96 971 107 966 q 75 1008 75 982 q 85 1045 75 1033 q 152 1040 100 1040 l 428 1040 q 485 1028 463 1040 q 506 987 506 1017 q 495 953 506 965 q 439 960 469 960 q 371 852 373 960 l 371 160 q 401 92 371 106 q 427 85 410 88 q 459 78 443 81 q 486 68 475 74 q 508 32 508 57 q 497 -5 508 8 m 280 1112 q 238 1119 257 1112 q 204 1139 218 1126 q 174 1217 174 1168 q 209 1295 174 1263 q 291 1326 243 1326 q 367 1298 338 1326 q 395 1220 395 1269 q 361 1142 395 1174 q 280 1112 328 1112 z "},"":{"ha":486,"x_min":55,"x_max":455,"o":"m 185 0 q 81 47 81 0 q 92 85 81 72 q 128 80 108 80 q 165 95 149 80 q 183 151 182 110 l 183 614 q 170 681 183 662 q 123 699 157 699 q 77 693 98 699 q 60 712 65 692 q 65 744 55 730 q 97 773 75 758 q 144 800 118 789 q 237 827 199 827 q 292 816 274 827 q 319 787 310 805 q 334 690 334 757 l 334 149 q 373 83 336 95 q 398 77 383 80 q 425 71 413 75 q 444 62 437 67 q 455 34 455 54 q 445 -3 455 9 q 401 0 431 0 l 185 0 z "},"":{"ha":1371,"x_min":70,"x_max":1344,"o":"m 70 0 m 497 -5 q 430 0 481 0 l 147 0 q 91 11 112 0 q 70 52 70 22 q 80 87 70 74 q 130 80 107 80 q 166 85 153 80 q 189 102 179 90 q 211 186 210 127 l 211 880 q 181 947 211 933 q 155 955 172 951 q 123 962 139 958 q 96 971 107 966 q 75 1008 75 982 q 85 1045 75 1033 q 152 1040 100 1040 l 428 1040 q 485 1028 463 1040 q 506 987 506 1017 q 495 953 506 965 q 439 960 469 960 q 371 852 373 960 l 371 160 q 401 92 371 106 q 427 85 410 88 q 459 78 443 81 q 486 68 475 74 q 508 32 508 57 q 497 -5 508 8 m 1277 960 q 1209 843 1209 960 l 1209 298 q 1035 9 1209 76 q 900 -13 975 -13 q 772 3 825 -13 q 682 47 719 20 q 608 182 608 102 q 636 276 608 241 q 713 311 664 311 q 767 292 753 311 q 759 229 759 260 q 903 90 759 90 q 1011 131 973 90 q 1049 248 1049 172 l 1049 880 q 1036 928 1048 916 q 991 950 1017 945 q 948 959 965 955 q 918 969 930 963 q 895 1008 895 981 q 906 1045 895 1033 q 973 1040 922 1040 l 1267 1040 q 1344 987 1344 1040 q 1333 953 1344 965 q 1277 960 1309 960 z "},"":{"ha":972,"x_min":55,"x_max":827,"o":"m 60 0 m 227 953 q 184 960 203 953 q 151 981 165 967 q 121 1057 121 1009 q 156 1135 121 1103 q 237 1167 190 1167 q 313 1139 285 1167 q 342 1061 342 1110 q 308 983 342 1015 q 227 953 275 953 m 185 0 q 81 47 81 0 q 92 85 81 72 q 121 80 108 80 q 183 160 184 80 l 183 614 q 170 681 183 662 q 123 699 157 699 q 77 693 98 699 q 60 712 65 692 q 65 744 55 730 q 97 773 75 758 q 144 800 118 789 q 237 827 199 827 q 292 816 274 827 q 319 787 310 805 q 334 690 334 757 l 334 149 q 373 83 336 95 q 398 77 383 80 q 425 71 413 75 q 444 62 437 67 q 455 34 455 54 q 445 -3 455 9 q 401 0 431 0 l 185 0 m 713 953 q 690 953 713 953 q 636 981 666 953 q 607 1057 607 1008 q 642 1135 607 1103 q 723 1167 676 1167 q 799 1139 770 1167 q 827 1061 827 1110 q 793 983 827 1015 q 713 953 760 953 m 493 -170 q 512 -208 496 -191 q 557 -225 528 -225 q 607 -219 587 -225 q 641 -197 627 -213 q 669 -73 669 -162 l 669 614 q 656 681 669 662 q 609 699 643 699 q 577 693 591 699 q 559 712 564 692 q 564 744 554 730 q 594 773 574 758 q 637 800 614 789 q 724 827 688 827 q 778 816 760 827 q 806 787 796 805 q 821 690 821 757 l 821 25 q 736 -255 821 -153 q 545 -349 659 -349 q 404 -288 437 -349 q 394 -239 394 -269 q 417 -188 394 -209 q 462 -168 441 -168 q 493 -170 483 -168 z "},"":{"ha":772,"x_min":10,"x_max":746,"o":"m 10 0 m 679 960 q 611 843 611 960 l 611 298 q 437 9 611 76 q 302 -13 377 -13 q 174 3 227 -13 q 84 47 121 20 q 10 182 10 102 q 38 276 10 241 q 115 311 66 311 q 169 292 155 311 q 161 229 161 260 q 304 90 161 90 q 413 131 375 90 q 451 248 451 172 l 451 880 q 437 928 450 916 q 393 950 418 945 q 350 959 367 955 q 320 969 332 963 q 297 1008 297 981 q 308 1045 297 1033 q 375 1040 323 1040 l 669 1040 q 746 987 746 1040 q 735 953 746 965 q 679 960 711 960 m 308 1100 q 300 1096 308 1100 q 282 1091 293 1091 q 266 1096 272 1091 q 254 1108 259 1101 q 243 1131 243 1124 q 248 1149 243 1144 l 418 1305 q 475 1335 447 1335 q 551 1305 520 1335 l 720 1149 q 725 1137 725 1144 q 722 1123 725 1131 q 714 1108 719 1116 q 688 1091 701 1091 q 659 1100 675 1091 l 484 1198 q 308 1100 323 1109 z "},"":{"ha":486,"x_min":-92,"x_max":472,"o":"m 0 0 m 0 -176 q 19 -215 3 -198 q 65 -231 35 -231 q 117 -225 96 -231 q 152 -201 138 -218 q 183 -71 183 -162 l 183 614 q 170 681 183 662 q 123 699 157 699 q 91 693 105 699 q 73 712 78 692 q 78 744 68 730 q 108 773 88 758 q 151 800 127 789 q 238 827 202 827 q 292 816 274 827 q 319 787 310 805 q 334 690 334 757 l 334 25 q 248 -255 334 -152 q 52 -349 169 -349 q -55 -317 -14 -349 q -92 -249 -92 -288 q -64 -189 -92 -209 q 0 -176 -38 -170 m 106 942 q 54 916 73 916 q 23 928 35 916 q 12 945 12 939 q 16 962 12 958 l 173 1169 q 239 1200 190 1200 q 311 1169 288 1200 l 467 962 q 472 948 472 957 q 460 928 472 939 q 432 916 448 916 q 402 924 415 916 q 377 942 390 932 l 241 1050 l 106 942 z "},"":{"ha":1097,"x_min":77,"x_max":1106,"o":"m 77 0 m 507 -5 q 440 0 492 0 l 157 0 q 101 11 122 0 q 79 52 79 22 q 90 87 79 73 q 138 80 116 80 q 173 85 161 80 q 194 102 185 90 q 214 186 213 127 l 214 887 q 183 947 212 935 q 159 955 174 951 l 126 962 q 85 982 92 970 q 77 1006 77 994 q 88 1045 77 1031 q 155 1040 104 1040 l 438 1040 q 494 1028 473 1040 q 515 987 515 1017 q 505 953 515 964 q 456 960 479 960 q 419 955 433 960 q 396 937 406 949 q 374 852 376 911 l 374 152 q 387 107 376 119 q 429 86 404 92 q 469 78 453 81 q 496 68 485 74 q 517 32 517 58 q 507 -5 517 7 m 1069 955 q 1033 960 1053 960 q 1002 953 1013 960 q 977 933 990 946 q 947 903 963 921 l 589 532 q 804 366 713 498 q 852 292 829 328 l 893 221 q 1017 109 960 105 q 1061 115 1045 109 q 1084 122 1077 122 q 1098 112 1090 122 q 1106 87 1106 101 q 1095 55 1106 74 q 1062 22 1083 37 q 957 -13 1015 -13 q 866 2 900 -13 q 803 49 831 17 q 751 121 775 81 q 706 203 728 161 l 663 285 q 499 456 588 428 q 475 459 486 460 q 450 455 464 457 q 437 474 441 458 q 433 502 433 491 q 441 519 433 512 l 785 901 q 802 930 802 919 q 726 965 802 955 q 685 980 692 969 q 678 1004 678 990 q 689 1043 678 1029 q 712 1040 701 1040 l 976 1040 q 1070 1020 1049 1040 q 1080 998 1080 1011 q 1069 955 1080 967 m 525 -176 q 509 -136 509 -163 q 516 -94 509 -109 q 536 -67 523 -79 q 607 -41 566 -41 q 668 -51 648 -41 q 702 -77 689 -61 q 726 -148 726 -107 q 714 -224 726 -189 q 682 -288 702 -260 q 592 -349 640 -349 q 547 -324 555 -349 q 569 -291 558 -314 q 581 -245 581 -268 q 578 -211 581 -222 q 570 -191 576 -199 q 525 -176 557 -175 z "},"":{"ha":899,"x_min":49,"x_max":899,"o":"m 58 0 m 414 -3 q 371 0 401 0 l 168 0 q 84 23 102 0 q 77 43 77 32 q 87 85 77 72 q 125 80 104 80 q 156 97 146 80 q 165 160 166 114 l 165 1000 q 156 1061 165 1047 q 106 1082 142 1082 q 84 1080 95 1082 q 67 1081 73 1078 q 58 1089 61 1084 q 59 1117 49 1103 q 90 1146 70 1131 q 133 1173 109 1162 q 221 1200 184 1200 q 276 1189 258 1200 q 302 1160 294 1178 q 317 1063 317 1130 l 317 153 q 351 84 317 97 q 374 77 361 80 q 398 71 387 75 q 415 62 409 67 q 425 34 425 54 q 414 -3 425 10 m 701 827 q 807 762 807 827 q 642 535 807 680 q 514 439 578 479 q 603 335 557 399 l 674 235 q 809 106 764 106 q 858 114 846 106 q 876 122 870 121 q 890 117 881 123 q 899 99 899 112 q 888 67 899 86 q 859 30 878 47 q 759 -13 812 -13 q 669 13 705 -13 q 600 78 632 38 q 540 168 568 119 l 484 264 q 366 418 415 382 q 347 443 338 437 l 367 454 l 476 532 q 572 614 546 584 q 624 710 624 671 q 570 741 624 737 q 563 764 563 752 q 576 788 563 777 q 610 808 589 800 q 701 827 653 827 m 421 -176 q 406 -135 406 -162 q 412 -93 406 -109 q 432 -66 419 -78 q 503 -40 463 -40 q 565 -50 544 -40 q 598 -77 585 -60 q 623 -148 623 -106 q 610 -224 623 -189 q 578 -287 598 -259 q 488 -348 536 -348 q 443 -323 452 -348 q 466 -290 454 -313 q 477 -244 477 -267 q 474 -210 477 -221 q 466 -191 472 -199 q 421 -176 453 -174 z "},"":{"ha":899,"x_min":33,"x_max":899,"o":"m 701 827 q 807 762 807 827 q 644 532 807 684 q 578 474 612 501 l 516 425 q 604 325 559 386 l 675 229 q 761 129 732 151 q 809 106 790 106 q 838 109 827 106 q 856 114 849 111 q 866 119 863 117 q 876 122 870 121 q 890 117 881 123 q 899 99 899 112 q 888 67 899 86 q 859 30 878 47 q 759 -13 812 -13 q 669 12 705 -13 q 600 75 632 36 q 540 161 568 114 l 484 255 q 366 405 415 370 q 347 429 337 425 l 365 439 q 522 561 486 528 q 578 617 557 593 q 624 710 624 670 q 570 741 624 737 q 563 764 563 752 q 576 788 563 777 q 610 808 589 800 q 701 827 653 827 m 414 -3 q 371 0 401 0 l 168 0 q 84 23 102 0 q 77 43 77 32 q 87 85 77 72 q 125 80 104 80 q 156 97 146 80 q 165 160 166 114 l 165 627 q 156 688 165 674 q 106 709 142 709 q 76 706 90 709 q 56 706 62 703 q 47 715 50 709 q 80 772 33 737 q 228 827 155 827 q 315 743 305 827 q 317 690 317 718 l 317 149 q 351 83 319 96 q 374 77 361 80 q 398 71 387 75 q 415 62 409 67 q 425 34 425 54 q 414 -3 425 10 z "},"":{"ha":966,"x_min":54,"x_max":915,"o":"m 54 0 m 915 211 q 874 0 915 58 l 134 0 q 60 27 81 0 q 54 48 54 37 q 64 87 54 74 q 125 81 87 81 q 208 183 208 81 l 208 880 q 169 943 208 926 q 140 953 157 948 l 106 962 q 66 982 74 970 q 58 1006 58 994 q 69 1045 58 1031 q 136 1040 85 1040 l 432 1040 q 488 1028 467 1040 q 509 987 509 1017 q 499 953 509 964 q 450 960 473 960 q 413 955 427 960 q 390 937 400 949 q 368 852 370 911 l 368 167 q 396 103 370 119 q 478 89 418 89 l 529 90 l 587 90 q 781 156 735 90 q 811 238 803 189 q 825 352 819 287 q 854 359 836 359 q 901 351 888 359 q 915 211 915 295 m 216 1114 q 182 1145 196 1114 q 180 1156 180 1153 q 184 1171 180 1166 l 420 1315 q 451 1326 435 1326 q 483 1315 467 1326 q 511 1289 498 1305 q 537 1221 537 1255 q 517 1190 537 1196 l 216 1114 z "},"":{"ha":485,"x_min":49,"x_max":449,"o":"m 438 -3 q 395 0 425 0 l 178 0 q 95 23 113 0 q 87 43 87 32 q 98 85 87 72 q 135 80 115 80 q 166 97 156 80 q 176 160 177 114 l 176 882 q 167 943 176 930 q 117 964 152 964 q 86 961 101 964 q 66 961 72 958 q 57 970 60 964 q 59 997 49 983 q 91 1027 69 1011 q 138 1055 113 1043 q 231 1082 193 1082 q 286 1071 268 1082 q 313 1042 304 1060 q 328 945 328 1012 l 328 149 q 366 83 330 96 q 392 77 377 80 q 418 71 406 75 q 437 62 431 67 q 449 34 449 54 q 438 -3 449 10 m 113 1118 q 79 1149 92 1118 q 76 1161 76 1157 q 81 1175 76 1170 l 316 1319 q 347 1330 331 1330 q 379 1319 363 1330 q 407 1293 395 1309 q 433 1225 433 1259 q 414 1194 433 1200 l 113 1118 z "},"":{"ha":972,"x_min":60,"x_max":921,"o":"m 60 0 m 921 211 q 880 0 921 58 l 140 0 q 66 27 87 0 q 60 48 60 37 q 71 87 60 74 q 131 81 94 81 q 214 183 214 81 l 214 880 q 175 943 214 926 q 146 953 163 948 l 113 962 q 72 982 80 970 q 64 1006 64 994 q 75 1045 64 1031 q 142 1040 91 1040 l 438 1040 q 494 1028 473 1040 q 515 987 515 1017 q 505 953 515 964 q 456 960 479 960 q 419 955 433 960 q 396 937 406 949 q 374 852 376 911 l 374 167 q 402 103 376 119 q 484 89 425 89 l 535 90 l 593 90 q 787 156 741 90 q 817 238 809 189 q 831 352 825 287 q 860 359 842 359 q 907 351 895 359 q 921 211 921 295 m 424 -176 q 408 -136 408 -163 q 415 -94 408 -109 q 435 -67 422 -79 q 506 -41 465 -41 q 567 -51 547 -41 q 601 -77 588 -61 q 625 -148 625 -107 q 613 -224 625 -189 q 581 -288 601 -260 q 491 -349 539 -349 q 446 -324 454 -349 q 468 -291 457 -314 q 479 -245 479 -268 q 477 -211 479 -222 q 469 -191 475 -199 q 424 -176 456 -175 z "}}}
